<svg width="38" height="24" viewBox="0 0 38 24" fill="none" xmlns="http://www.w3.org/2000/svg">
<g clip-path="url(#clip0_80_530)">
<path d="M10.9607 9.14308C10.9607 9.60208 11.015 9.97068 11.0994 10.2419C11.1954 10.5131 11.3226 10.8099 11.4914 11.1298C11.5573 11.2329 11.5816 11.3291 11.5816 11.4137C11.5816 11.5401 11.5029 11.6618 11.3468 11.7881L10.5698 12.3016C10.4739 12.3746 10.3652 12.4106 10.2507 12.4164C10.1247 12.4164 10.0033 12.3561 9.88304 12.2413C9.71422 12.0663 9.56969 11.8727 9.43788 11.6618C9.29913 11.4265 9.1731 11.1854 9.05863 10.9374C8.09547 12.0721 6.89066 12.6401 5.43957 12.6401C4.40357 12.6401 3.57916 12.3445 2.97675 11.7522C2.37435 11.1541 2.06794 10.3694 2.06794 9.37954C2.06794 8.3352 2.43563 7.47747 3.18835 6.83765C3.94107 6.19783 4.93429 5.87793 6.205 5.87793C6.6201 5.87793 7.05369 5.91386 7.50579 5.97413C7.96366 6.0344 8.4331 6.13756 8.92104 6.24536V5.3459C8.92104 4.41052 8.72794 3.75215 8.34291 3.37197C7.95094 2.99179 7.28957 2.80402 6.33797 2.80402C5.91016 2.80402 5.465 2.8527 5.00713 2.96049C4.55504 3.07524 4.10988 3.20854 3.68207 3.38356C3.53754 3.44963 3.393 3.49831 3.24847 3.54699C3.18835 3.56554 3.12244 3.57713 3.05538 3.58293C2.88079 3.58293 2.79638 3.45659 2.79638 3.19695V2.59306C2.79638 2.39949 2.82066 2.24881 2.88079 2.1642C2.97097 2.04945 3.09122 1.95904 3.22419 1.90456C3.65779 1.68086 4.17 1.49424 4.77241 1.34936C5.40488 1.18593 6.04891 1.10827 6.69294 1.11406C8.16254 1.11406 9.2286 1.44556 9.92119 2.11668C10.5953 2.78084 10.9387 3.78924 10.9387 5.1477V9.14424L10.9607 9.14308ZM5.96797 11.0208C6.3715 11.0208 6.79354 10.9478 7.23291 10.7971C7.67807 10.6522 8.07004 10.381 8.40072 10.0124C8.5996 9.77711 8.74991 9.51747 8.82275 9.2219C8.8956 8.92633 8.943 8.56354 8.943 8.14743V7.62815C8.56954 7.53774 8.19607 7.46472 7.81104 7.4172C7.43179 7.36852 7.04675 7.34418 6.65479 7.34418C5.82922 7.34418 5.22797 7.50761 4.82444 7.83911C4.41513 8.17061 4.22204 8.64236 4.22204 9.25783C4.22204 9.83738 4.36657 10.2662 4.67413 10.5618C4.96897 10.8701 5.40141 11.0208 5.96797 11.0208ZM15.8504 12.3549C15.6273 12.3549 15.477 12.319 15.381 12.2286C15.285 12.1556 15.1948 11.9805 15.122 11.7522L12.2314 2.21404C12.177 2.05061 12.1354 1.88834 12.1227 1.71911C12.1227 1.51974 12.2187 1.41079 12.4118 1.41079H13.6223C13.8571 1.41079 14.0143 1.44672 14.0976 1.53134C14.2005 1.60436 14.2722 1.77938 14.345 2.01468L16.417 10.1828L18.3375 2.01468C18.3977 1.76663 18.4705 1.60436 18.5665 1.53134C18.7168 1.44093 18.8856 1.39804 19.0602 1.41079H20.0418C20.2766 1.41079 20.4396 1.44672 20.5356 1.53134C20.6315 1.60436 20.7217 1.77938 20.7703 2.01468L22.7151 10.279L24.8414 2.01468C24.9201 1.76663 25.0045 1.60436 25.0889 1.53134C25.2334 1.44093 25.4022 1.39804 25.571 1.41079H26.7157C26.9146 1.41079 27.0233 1.50699 27.0233 1.71911C27.0233 1.77938 27.0117 1.83965 26.999 1.91847C26.9805 2.02163 26.9504 2.12363 26.9146 2.22679L23.9453 11.7592C23.8725 12.0072 23.7893 12.1695 23.6863 12.2425C23.5476 12.3329 23.3857 12.3758 23.2227 12.363H22.1624C21.9277 12.363 21.7704 12.3271 21.6687 12.2425C21.5727 12.1579 21.4883 11.9944 21.4398 11.7476L19.5308 3.7904L17.6334 11.7348C17.5733 11.9829 17.5004 12.1451 17.3987 12.2297C17.3027 12.3144 17.1281 12.3503 16.9049 12.3503L15.8504 12.3549ZM31.6587 12.6876C31.0204 12.6876 30.3822 12.6088 29.7682 12.4639C29.1543 12.319 28.6721 12.1556 28.353 11.9689C28.1541 11.86 28.0223 11.7394 27.9737 11.6247C27.9252 11.5157 27.8951 11.401 27.8951 11.2804V10.6522C27.8951 10.3926 27.998 10.2662 28.1784 10.2662C28.2512 10.2662 28.3287 10.2778 28.4015 10.3022C28.4744 10.3323 28.5877 10.381 28.7091 10.4285C29.1311 10.6151 29.5821 10.76 30.0642 10.8574C30.5579 10.9605 31.0343 11.0081 31.528 11.0081C32.305 11.0081 32.9074 10.869 33.3225 10.5977C33.7318 10.3497 33.9793 9.90345 33.9666 9.42706C33.9723 9.10715 33.8521 8.79883 33.6359 8.56354C33.4127 8.33404 32.9918 8.12308 32.3894 7.92372L30.6065 7.36852C29.7093 7.08454 29.0409 6.66843 28.6374 6.11322C28.2397 5.59974 28.0234 4.97268 28.0177 4.32011C28.0177 3.80084 28.1321 3.34763 28.3553 2.95006C28.5784 2.55713 28.8733 2.21404 29.241 1.94165C29.6087 1.65768 30.0295 1.44672 30.5175 1.30184C31.0112 1.15115 31.5292 1.09088 32.0715 1.09088C32.342 1.09088 32.6253 1.10247 32.897 1.13956C33.1803 1.17549 33.4393 1.22418 33.6983 1.27865C33.9388 1.33893 34.1735 1.3992 34.3967 1.47222C34.6198 1.54524 34.7944 1.6229 34.9147 1.69593C35.0592 1.76895 35.1853 1.87675 35.2824 2.00424C35.3668 2.12479 35.4026 2.26968 35.3968 2.41456V2.99411C35.3968 3.25374 35.2939 3.38704 35.1136 3.38704C34.9448 3.36849 34.7887 3.32097 34.6441 3.24215C33.903 2.91065 33.0959 2.74722 32.2831 2.75881C31.5789 2.75881 31.0239 2.86777 30.6447 3.10306C30.2596 3.33836 30.0665 3.6942 30.0665 4.20188C30.0665 4.54613 30.1868 4.8417 30.4342 5.07699C30.6817 5.31229 31.1384 5.54759 31.7893 5.7597L33.5353 6.30911C34.421 6.59309 35.065 6.99181 35.4443 7.49834C35.8235 7.99906 36.0108 8.57861 36.0108 9.22538C36.0108 9.75045 35.8963 10.2338 35.6917 10.6557C35.4685 11.0718 35.1737 11.4404 34.7944 11.7429C34.4094 12.0512 33.9573 12.268 33.4278 12.4314C32.8739 12.6007 32.2958 12.6911 31.6633 12.6911L31.6587 12.6876ZM33.9885 18.6812C29.9359 21.6821 24.0575 23.2689 18.9989 23.2689C11.9111 23.2689 5.52166 20.6424 0.697785 16.2727C0.318535 15.9284 0.661942 15.4578 1.11982 15.7348C6.3345 18.7659 12.7725 20.6065 19.4267 20.6065C23.9188 20.6065 28.8513 19.6642 33.3977 17.7447C34.0718 17.4306 34.6499 18.1852 33.9874 18.6801L33.9885 18.6812ZM35.6755 16.756C35.1575 16.0918 32.2484 16.4361 30.936 16.5995C30.5441 16.6482 30.4782 16.2982 30.8401 16.0385C33.1526 14.4146 36.952 14.8794 37.3983 15.423C37.8377 15.984 37.2723 19.794 35.1101 21.6172C34.7794 21.9012 34.4533 21.7563 34.6037 21.3819C35.0974 20.1626 36.1935 17.4144 35.6755 16.756Z" fill="white"/>
</g>
<defs>
<clipPath id="clip0_80_530">
<rect width="37" height="24" fill="white" transform="translate(0.535156)"/>
</clipPath>
</defs>
</svg>
