<svg width="29" height="24" viewBox="0 0 29 24" fill="none" xmlns="http://www.w3.org/2000/svg">
    <path
        d="M13.5522 22.4872C16.8991 21.8066 19.6628 21.2431 19.6947 21.2356L19.7528 21.2216L16.5934 16.895C14.8553 14.5156 13.4341 12.5591 13.4341 12.5478C13.4341 12.5366 16.6966 2.18283 16.7153 2.14627C16.7219 2.13408 18.9419 6.54689 22.0975 12.8441L27.5106 23.645L27.5519 23.7275H17.5103H7.46875L13.5522 22.4872Z"
        fill="white" />
    <path
        d="M1.5 21.1672C1.5 21.1616 2.98875 18.1859 4.80844 14.555L8.11687 7.95406L11.9766 4.23031C14.0972 2.18188 15.8381 0.502813 15.8447 0.5C15.8308 0.562112 15.8101 0.622484 15.7828 0.68L11.5922 11.0169L7.47656 21.17H4.48687C2.84531 21.1803 1.5 21.1737 1.5 21.1672Z"
        fill="white" />
</svg>