<svg width="32" height="24" viewBox="0 0 32 24" fill="none" xmlns="http://www.w3.org/2000/svg">
<path d="M18.361 11.0726H20.9214C20.9808 11.0726 21.0378 11.0472 21.0799 11.002C21.1221 10.9568 21.1459 10.8954 21.1462 10.8313V8.36998C21.1462 8.30563 21.1225 8.24393 21.0804 8.19843C21.0382 8.15293 20.9811 8.12737 20.9214 8.12737H18.361C18.3017 8.12737 18.2448 8.15279 18.2029 8.19805C18.161 8.2433 18.1374 8.30468 18.1374 8.36867V10.8313C18.1374 10.9643 18.2377 11.0726 18.361 11.0726ZM14.7916 3.98998H17.3508C17.4104 3.98998 17.4676 3.96442 17.5097 3.91892C17.5519 3.87342 17.5756 3.81171 17.5756 3.74737V1.28476C17.5753 1.22064 17.5514 1.15927 17.5093 1.11405C17.4672 1.06884 17.4102 1.04346 17.3508 1.04346H14.7916C14.7323 1.04346 14.6754 1.06888 14.6335 1.11413C14.5916 1.15939 14.568 1.22076 14.568 1.28476V3.74737C14.568 3.88041 14.6671 3.98998 14.7916 3.98998ZM14.7916 7.53128H17.3508C17.4103 7.53094 17.4673 7.50527 17.5094 7.45985C17.5515 7.41442 17.5753 7.35291 17.5756 7.28867V4.82737C17.5753 4.76325 17.5514 4.70188 17.5093 4.65666C17.4672 4.61145 17.4102 4.58606 17.3508 4.58607H14.7916C14.7323 4.58607 14.6754 4.61149 14.6335 4.65674C14.5916 4.702 14.568 4.76337 14.568 4.82737V7.28867C14.568 7.42172 14.6671 7.52998 14.7916 7.53128ZM11.2512 7.53128H13.8128C13.872 7.5306 13.9286 7.50473 13.9702 7.45931C14.0118 7.41388 14.0352 7.35257 14.0352 7.28867V4.82737C14.0352 4.76337 14.0116 4.702 13.9697 4.65674C13.9278 4.61149 13.8709 4.58607 13.8116 4.58607H11.2524C11.1931 4.58607 11.1362 4.61149 11.0943 4.65674C11.0524 4.702 11.0288 4.76337 11.0288 4.82737V7.28867C11.0288 7.42172 11.1291 7.52998 11.2524 7.53128M7.67086 7.53128H10.2313C10.2907 7.53094 10.3476 7.50523 10.3895 7.45976C10.4314 7.4143 10.4549 7.35279 10.4549 7.28867V4.82737C10.4549 4.76337 10.4313 4.702 10.3894 4.65674C10.3475 4.61149 10.2906 4.58607 10.2313 4.58607H7.67086C7.61147 4.58606 7.55448 4.61145 7.51237 4.65666C7.47025 4.70188 7.44643 4.76325 7.44611 4.82737V7.28867C7.44611 7.42172 7.54761 7.52998 7.67086 7.53128ZM14.7916 11.0726H17.3508C17.4102 11.0726 17.4672 11.0472 17.5093 11.002C17.5514 10.9568 17.5753 10.8954 17.5756 10.8313V8.36998C17.5756 8.30563 17.5519 8.24393 17.5097 8.19843C17.4676 8.15293 17.4104 8.12737 17.3508 8.12737H14.7916C14.7323 8.12737 14.6754 8.15279 14.6335 8.19805C14.5916 8.2433 14.568 8.30468 14.568 8.36867V10.8313C14.568 10.9643 14.6671 11.0726 14.7916 11.0726ZM11.2512 11.0726H13.8128C13.8719 11.0722 13.9284 11.0467 13.9701 11.0015C14.0118 10.9562 14.0352 10.8951 14.0352 10.8313V8.36998C14.0353 8.33829 14.0297 8.30688 14.0186 8.27754C14.0075 8.24819 13.9912 8.2215 13.9705 8.19897C13.9499 8.17644 13.9253 8.15852 13.8983 8.14624C13.8712 8.13395 13.8422 8.12754 13.8128 8.12737H11.2512C11.1921 8.12771 11.1355 8.15329 11.0939 8.19851C11.0522 8.24372 11.0288 8.3049 11.0288 8.36867V10.8313C11.0288 10.9643 11.1291 11.0726 11.2524 11.0726M7.67086 11.0726H10.2313C10.2906 11.0726 10.3475 11.0472 10.3894 11.0019C10.4313 10.9567 10.4549 10.8953 10.4549 10.8313V8.36998C10.455 8.33829 10.4494 8.30688 10.4383 8.27754C10.4272 8.24819 10.4109 8.2215 10.3902 8.19897C10.3696 8.17644 10.345 8.15852 10.318 8.14624C10.2909 8.13395 10.2619 8.12754 10.2325 8.12737H7.67086C7.61126 8.12737 7.55409 8.15293 7.51194 8.19843C7.46979 8.24393 7.44611 8.30563 7.44611 8.36998V10.8313C7.44611 10.9643 7.54761 11.0726 7.67086 11.0726ZM4.14253 11.0726H6.7042C6.76327 11.0722 6.81982 11.0467 6.86149 11.0015C6.90315 10.9562 6.92653 10.8951 6.92653 10.8313V8.36998C6.92669 8.33829 6.92107 8.30688 6.90998 8.27754C6.89889 8.24819 6.88256 8.2215 6.86191 8.19897C6.84127 8.17644 6.81671 8.15852 6.78965 8.14624C6.76259 8.13395 6.73355 8.12754 6.7042 8.12737H4.14253C4.08345 8.12771 4.0269 8.15329 3.98524 8.19851C3.94358 8.24372 3.9202 8.3049 3.9202 8.36867V10.8313C3.9202 10.9643 4.01807 11.0726 4.14253 11.0726ZM30.1785 9.52302C30.0999 9.4565 29.3665 8.85781 27.8174 8.85781C27.409 8.85911 27.0006 8.89694 26.597 8.97128C26.2973 6.75389 24.5996 5.67128 24.5235 5.62433L24.1078 5.36476L23.8347 5.79128C23.4916 6.36259 23.2427 6.99389 23.0952 7.6565C22.8173 8.92172 22.9865 10.1113 23.5822 11.1274C22.8632 11.5604 21.7093 11.6661 21.4749 11.6752H2.37232C2.13249 11.6755 1.90253 11.7784 1.73271 11.9612C1.56289 12.144 1.46703 12.392 1.46607 12.6508C1.4437 14.4572 1.72707 16.2527 2.30224 17.9491C2.96078 19.8117 3.93953 21.1839 5.21432 22.0239C6.64016 22.9669 8.96016 23.5069 11.5883 23.5069C12.7759 23.5109 13.9612 23.3947 15.1287 23.16C16.7513 22.8382 18.3126 22.2259 19.7482 21.3482C20.9315 20.6089 21.9964 19.6681 22.9019 18.5622C24.4147 16.7126 25.3162 14.653 25.9868 12.823H26.2538C27.9117 12.823 28.9303 12.1069 29.4922 11.5069C29.8655 11.1248 30.1567 10.6591 30.3464 10.1426L30.4649 9.76693L30.1785 9.52302Z" fill="white"/>
</svg>
