<svg width="55" height="22" viewBox="0 0 55 22" fill="none" xmlns="http://www.w3.org/2000/svg">
<path d="M5.29865 19.149C5.29646 19.6517 5.08334 20.1043 4.74275 20.4241L4.74187 20.425C4.39155 20.7517 3.91899 20.9524 3.3993 20.9524C2.87889 20.9524 2.40562 20.751 2.05415 20.4225L2.05524 20.4234C1.71312 20.1039 1.5 19.6512 1.5 19.149C1.5 18.646 1.71372 18.1926 2.05579 17.8739L2.05677 17.873C2.4071 17.5463 2.87966 17.3456 3.39935 17.3456C3.91905 17.3456 4.39155 17.5462 4.74291 17.874L4.74182 17.873C5.08323 18.1937 5.29646 18.6463 5.29854 19.1486V19.1489L5.29865 19.149ZM24.331 20.6565H20.9239L11.9533 6.57746C11.7464 6.25976 11.5568 5.89446 11.404 5.51067L11.389 5.46802H11.3102C11.3813 6.10276 11.4219 6.83863 11.4219 7.58392C11.4219 7.76545 11.4195 7.94639 11.4148 8.12683L11.4153 8.10018V20.6564H8.40391V1.50218H12.032L20.7029 15.2507C21.0681 15.8184 21.3043 16.2122 21.4093 16.4254H21.4618C21.3751 15.7744 21.3256 15.0216 21.3256 14.2573C21.3256 14.1133 21.3273 13.9695 21.3308 13.8264L21.3305 13.8476V1.5H24.3309L24.331 20.6565ZM39.0005 20.6565H28.4575V1.50218H38.5828V4.19973H31.5739V9.62507H38.0317V12.3095H31.5739V17.9741H39.0005V20.6565ZM53.985 4.19973H48.5877V20.6565H45.4715V4.19973H40.0874V1.50218H53.985V4.19973Z" fill="white"/>
</svg>
