<svg width="25" height="24" viewBox="0 0 25 24" fill="none" xmlns="http://www.w3.org/2000/svg">
<g clip-path="url(#clip0_80_597)">
<path d="M3.11258 11.678C2.07458 9.86799 1.86358 8.17399 2.60158 6.89699C3.58958 5.18499 6.06958 4.58699 9.20558 5.15799C9.24867 5.16385 9.29013 5.17839 9.32746 5.20071C9.36479 5.22303 9.3972 5.25269 9.42275 5.28788C9.44831 5.32308 9.46646 5.36309 9.47613 5.40549C9.48579 5.4479 9.48677 5.49182 9.47899 5.53461C9.47122 5.5774 9.45486 5.61818 9.43089 5.65447C9.40693 5.69077 9.37586 5.72183 9.33956 5.74579C9.30327 5.76975 9.26249 5.78611 9.2197 5.79388C9.1769 5.80164 9.13298 5.80066 9.09058 5.79099C6.19058 5.26299 3.97958 5.79599 3.15858 7.21899C2.55358 8.26599 2.73558 9.72799 3.67058 11.359C3.69407 11.3957 3.70986 11.4368 3.71699 11.4798C3.72412 11.5229 3.72245 11.5669 3.71206 11.6092C3.70168 11.6516 3.6828 11.6913 3.65658 11.7262C3.63036 11.761 3.59734 11.7902 3.55952 11.8118C3.5217 11.8335 3.47987 11.8473 3.43656 11.8524C3.39326 11.8574 3.34938 11.8536 3.30759 11.8412C3.26579 11.8287 3.22696 11.808 3.19344 11.7801C3.15992 11.7522 3.13241 11.7168 3.11258 11.678ZM18.0326 5.60899C19.8676 5.63299 21.1886 6.20499 21.7836 7.23499C22.6036 8.65399 21.9636 10.83 20.0656 13.072C20.0351 13.1037 20.0115 13.1413 19.9961 13.1825C19.9807 13.2236 19.9739 13.2675 19.9761 13.3114C19.9783 13.3553 19.9895 13.3983 20.009 13.4377C20.0285 13.4771 20.0558 13.5122 20.0893 13.5406C20.1228 13.5691 20.1618 13.5903 20.2039 13.6032C20.2459 13.616 20.2901 13.62 20.3338 13.6151C20.3775 13.6102 20.4197 13.5964 20.4579 13.5745C20.496 13.5526 20.5292 13.5232 20.5556 13.488C22.6096 11.062 23.3266 8.62199 22.3406 6.91299C21.6146 5.65599 20.0806 4.99299 18.0416 4.96599C17.9979 4.96307 17.9541 4.96908 17.9129 4.98366C17.8716 4.99823 17.8337 5.02106 17.8016 5.05075C17.7695 5.08044 17.7437 5.11637 17.7259 5.15635C17.7081 5.19633 17.6987 5.23951 17.6981 5.28327C17.6976 5.32702 17.7059 5.37043 17.7227 5.41084C17.7395 5.45125 17.7644 5.48781 17.7958 5.51829C17.8272 5.54877 17.8645 5.57254 17.9053 5.58813C17.9462 5.60373 17.9889 5.61083 18.0326 5.60899ZM16.1786 20.848C16.1423 20.8262 16.1021 20.8117 16.0603 20.8055C16.0185 20.7992 15.9758 20.8012 15.9348 20.8114C15.8937 20.8216 15.8551 20.8398 15.8211 20.865C15.7871 20.8901 15.7584 20.9217 15.7366 20.958C14.8026 22.511 13.6566 23.357 12.4766 23.357C10.8346 23.357 9.26858 21.71 8.27658 18.939C8.26332 18.8979 8.24195 18.86 8.21373 18.8273C8.18552 18.7947 8.15103 18.7681 8.11232 18.749C8.07362 18.73 8.03148 18.7189 7.98841 18.7165C7.94534 18.714 7.90222 18.7203 7.8616 18.7348C7.82099 18.7493 7.78371 18.7719 7.75199 18.8011C7.72026 18.8304 7.69473 18.8657 7.67691 18.9049C7.65909 18.9442 7.64935 18.9867 7.64826 19.0298C7.64717 19.073 7.65476 19.1159 7.67058 19.156C8.74358 22.154 10.5006 24 12.4746 24C13.9146 24 15.2476 23.018 16.2876 21.29C16.3094 21.2538 16.3238 21.2136 16.3301 21.1717C16.3364 21.1299 16.3344 21.0872 16.3241 21.0462C16.3139 21.0052 16.2957 20.9665 16.2706 20.9325C16.2454 20.8985 16.2148 20.8698 16.1786 20.848ZM23.5346 18.254C23.5341 18.5368 23.4558 18.8141 23.3081 19.0553C23.1605 19.2966 22.9493 19.4925 22.6976 19.6216C22.446 19.7508 22.1637 19.8081 21.8816 19.7873C21.5995 19.7666 21.3286 19.6686 21.0986 19.504C18.6436 20.949 13.9526 20.214 9.53858 17.664C7.65858 16.579 6.01158 15.272 4.74358 13.879C4.71312 13.8481 4.68922 13.8114 4.67331 13.771C4.6574 13.7307 4.6498 13.6875 4.65098 13.6442C4.65216 13.6008 4.66208 13.5581 4.68016 13.5187C4.69824 13.4793 4.7241 13.4439 4.75618 13.4147C4.78827 13.3855 4.82592 13.3631 4.86688 13.3489C4.90784 13.3346 4.95126 13.3287 4.99454 13.3316C5.03782 13.3346 5.08006 13.3462 5.11873 13.3658C5.1574 13.3855 5.1917 13.4128 5.21958 13.446C6.44158 14.789 8.03658 16.055 9.85958 17.107C14.0266 19.513 18.4126 20.227 20.6566 19.013C20.5397 18.808 20.4716 18.5788 20.4574 18.3432C20.4432 18.1077 20.4833 17.872 20.5746 17.6544C20.666 17.4368 20.8061 17.2431 20.9843 17.0883C21.1624 16.9334 21.3737 16.8216 21.6019 16.7614C21.8301 16.7013 22.069 16.6943 22.3003 16.7412C22.5316 16.788 22.7491 16.8874 22.9359 17.0317C23.1226 17.1759 23.2738 17.3612 23.3776 17.5731C23.4814 17.785 23.5351 18.018 23.5346 18.254ZM4.47258 18.254C4.47307 18.5257 4.40169 18.7926 4.26569 19.0278C4.12968 19.2629 3.93389 19.4579 3.69818 19.593C3.46246 19.7281 3.19522 19.7984 2.92356 19.7968C2.65191 19.7952 2.3855 19.7218 2.15139 19.584C1.91727 19.4461 1.72377 19.2489 1.59053 19.0121C1.45729 18.7754 1.38904 18.5076 1.39272 18.236C1.39639 17.9643 1.47186 17.6985 1.61146 17.4654C1.75106 17.2324 1.94982 17.0404 2.18758 16.909C1.95458 14.032 4.97758 10.175 9.54758 7.53699C11.4456 6.44099 13.4216 5.66299 15.2786 5.26599C15.3592 5.25463 15.4411 5.27422 15.5079 5.32082C15.5746 5.36742 15.6212 5.43758 15.6383 5.51717C15.6554 5.59676 15.6418 5.67987 15.6001 5.74979C15.5584 5.8197 15.4917 5.87123 15.4136 5.89399C13.6236 6.27799 11.7106 7.03099 9.86858 8.09399C5.56458 10.579 2.72058 14.161 2.82058 16.721C2.85858 16.718 2.89558 16.715 2.93358 16.715C3.78358 16.715 4.47358 17.405 4.47358 18.255L4.47258 18.254ZM10.9366 1.53999C10.9509 1.14143 11.1194 0.763977 11.4064 0.487092C11.6935 0.210207 12.0767 0.055481 12.4756 0.055481C12.8744 0.055481 13.2577 0.210207 13.5447 0.487092C13.8318 0.763977 14.0002 1.14143 14.0146 1.53999C14.0146 1.56299 14.0126 1.58499 14.0116 1.60699C16.5606 2.92399 18.3316 7.41699 18.3316 12.61C18.3316 14.745 18.0336 16.794 17.4776 18.57C17.4665 18.6121 17.447 18.6515 17.4203 18.6859C17.3935 18.7202 17.3601 18.7488 17.322 18.7699C17.2839 18.7909 17.242 18.8041 17.1987 18.8085C17.1554 18.8129 17.1116 18.8084 17.0701 18.7954C17.0285 18.7824 16.99 18.7612 16.9569 18.7329C16.9238 18.7046 16.8968 18.6699 16.8775 18.6309C16.8582 18.5919 16.847 18.5493 16.8446 18.5059C16.8422 18.4624 16.8487 18.4189 16.8636 18.378C17.3996 16.666 17.6886 14.681 17.6886 12.61C17.6886 7.71999 16.0626 3.51499 13.8416 2.24699C13.6835 2.55365 13.4268 2.79824 13.1129 2.94145C12.799 3.08465 12.4461 3.11815 12.1109 3.03657C11.7756 2.95498 11.4776 2.76304 11.2646 2.49161C11.0516 2.22018 10.9361 1.88501 10.9366 1.53999ZM12.2406 11.521C12.0976 11.5519 11.962 11.6106 11.8417 11.6938C11.7214 11.7771 11.6187 11.8832 11.5394 12.0061C11.4601 12.1291 11.4058 12.2664 11.3795 12.4104C11.3533 12.5543 11.3557 12.702 11.3866 12.845C11.4174 12.988 11.4762 13.1235 11.5594 13.2438C11.6426 13.3642 11.7488 13.4669 11.8717 13.5462C11.9947 13.6255 12.132 13.6798 12.2759 13.706C12.4199 13.7322 12.5676 13.7299 12.7106 13.699C12.9994 13.6367 13.2516 13.4622 13.4118 13.2139C13.5719 12.9656 13.6269 12.6638 13.5646 12.375C13.5023 12.0862 13.3277 11.8339 13.0794 11.6738C12.8311 11.5136 12.5294 11.4587 12.2406 11.521Z" fill="white"/>
</g>
<defs>
<clipPath id="clip0_80_597">
<rect width="24" height="24" fill="white" transform="translate(0.464844)"/>
</clipPath>
</defs>
</svg>
