<svg width="41" height="24" viewBox="0 0 41 24" fill="none" xmlns="http://www.w3.org/2000/svg">
<g clip-path="url(#clip0_80_572)">
<path d="M40.2262 22.4948C38.8012 22.8636 37.9199 22.5107 37.1293 21.3025C35.3543 18.5969 33.3949 16.0153 31.5043 13.386C31.2605 13.0458 31.0074 12.7119 30.6918 12.2891C28.4543 15.3603 26.2199 18.2853 24.123 21.328C23.373 22.4153 22.5855 22.889 21.1855 22.5043L29.598 11.0174L21.7668 0.643145C23.1137 0.37608 24.0449 0.512792 24.8699 1.74002C26.6918 4.44883 28.7012 7.02728 30.7043 9.75516C32.7199 7.03681 34.7043 4.45518 36.5793 1.77181C37.3324 0.684477 38.1418 0.271162 39.4949 0.67176C38.4699 2.05478 37.4668 3.41554 36.4574 4.76676C35.0949 6.58853 33.7574 8.43255 32.3449 10.2162C31.8418 10.852 31.923 11.2653 32.373 11.8662C34.9855 15.3603 37.5668 18.8894 40.2262 22.4948Z" fill="white"/>
<path d="M1.0582 11.3757C1.2832 10.228 1.4332 9.05799 1.7457 7.9325C3.6207 1.11915 11.3082 -1.71364 16.5895 2.50853C19.6832 4.98524 20.452 8.47617 20.2988 12.4122H2.86133C2.59883 19.4735 7.5957 23.737 13.9645 21.5624C16.1988 20.7993 17.5145 19.0189 18.1738 16.7933C18.5082 15.6774 19.0613 15.5025 20.0926 15.8205C19.5645 18.6056 18.3676 20.9329 15.8676 22.389C12.1176 24.57 6.76445 23.8642 3.94883 20.8343C2.28633 19.0539 1.58008 16.8379 1.26758 14.4438C1.2207 14.0623 1.12383 13.6871 1.04883 13.3088C1.05508 12.6644 1.0582 12.0201 1.0582 11.3757ZM2.89258 10.902H18.652C18.5488 5.79598 15.4238 2.16834 11.152 2.13655C6.46445 2.09839 3.0957 5.64019 2.89258 10.902Z" fill="white"/>
</g>
<defs>
<clipPath id="clip0_80_572">
<rect width="40" height="24" fill="white" transform="translate(0.464844)"/>
</clipPath>
</defs>
</svg>
