<svg width="28" height="24" viewBox="0 0 28 24" fill="none" xmlns="http://www.w3.org/2000/svg">
<g opacity="0.2">
<path d="M17.5508 15.7083C19.5312 15.7083 21.1367 14.2812 21.1367 12.5208C21.1367 10.7604 19.5312 9.33331 17.5508 9.33331C15.5703 9.33331 13.9648 10.7604 13.9648 12.5208C13.9648 14.2812 15.5703 15.7083 17.5508 15.7083Z" fill="white"/>
<path d="M10.3789 8.375L13.9648 8.37491V2H10.3789C9.42786 2 8.51576 2.33582 7.84327 2.9336C7.17077 3.53137 6.79297 4.34212 6.79297 5.1875C6.79297 6.03288 7.17077 6.84363 7.84327 7.4414C8.51576 8.03918 9.42786 8.375 10.3789 8.375Z" fill="white"/>
<path d="M6.79297 19.1875C6.79297 20.0329 7.17077 20.8437 7.84327 21.4415C8.51576 22.0392 9.42786 22.375 10.3789 22.375C11.33 22.375 12.2421 22.0392 12.9145 21.4415C13.587 20.8437 13.9648 20.0329 13.9648 19.1875V16L10.3789 16.0001C9.908 16.0001 9.4417 16.0825 9.00663 16.2427C8.57157 16.4029 8.17626 16.6377 7.84327 16.9337C7.51029 17.2297 7.24615 17.581 7.06594 17.9678C6.88573 18.3545 6.79297 18.769 6.79297 19.1875Z" fill="white"/>
</g>
<path d="M20.1469 8.5833C20.9055 8.04165 21.4708 7.27647 21.7615 6.39767C22.0522 5.51887 22.0535 4.57168 21.765 3.69214C21.4766 2.8126 20.9134 2.04598 20.1562 1.5024C19.399 0.958811 18.4869 0.666233 17.5508 0.666688H10.3789C9.44283 0.666233 8.53069 0.958811 7.77351 1.5024C7.01633 2.04598 6.45307 2.8126 6.16464 3.69214C5.87621 4.57168 5.87745 5.51887 6.16818 6.39767C6.45891 7.27647 7.02417 8.04165 7.78277 8.5833C7.21515 8.98817 6.75295 9.52035 6.43419 10.1361C6.11543 10.7518 5.94921 11.4334 5.94922 12.1249C5.94922 12.8165 6.11545 13.4981 6.43421 14.1138C6.75298 14.7295 7.21519 15.2617 7.78282 15.6666C7.1688 16.1057 6.67919 16.6931 6.36087 17.3726C6.04254 18.0521 5.90615 18.8009 5.96475 19.5474C6.02336 20.2939 6.275 21.013 6.69558 21.6359C7.11616 22.2588 7.6916 22.7647 8.36681 23.1051C9.04202 23.4454 9.7944 23.6089 10.5519 23.5798C11.3094 23.5508 12.0467 23.3302 12.6931 22.9391C13.3396 22.5481 13.8736 21.9996 14.244 21.3464C14.6144 20.6931 14.8088 19.9569 14.8086 19.2082V15.557C15.271 15.9179 15.8017 16.184 16.3695 16.3397C16.9374 16.4954 17.531 16.5375 18.1156 16.4636C18.7002 16.3897 19.2639 16.2013 19.7738 15.9094C20.2837 15.6174 20.7294 15.2279 21.0848 14.7636C21.4402 14.2993 21.6982 13.7695 21.8436 13.2055C21.989 12.6414 22.0189 12.0543 21.9316 11.4787C21.8442 10.903 21.6414 10.3504 21.3349 9.85322C21.0284 9.35604 20.6246 8.92429 20.1469 8.5833ZM20.293 5.04169C20.2921 5.75937 20.0033 6.44746 19.4896 6.95513C18.976 7.4628 18.2795 7.74863 17.5528 7.74997L17.5508 7.74992L17.5467 7.75002L14.8086 7.74992V2.33335H17.5508C18.2778 2.33417 18.9748 2.61977 19.4889 3.1275C20.003 3.63524 20.2921 4.32364 20.293 5.04169ZM7.63672 5.04169C7.63754 4.32364 7.92671 3.63524 8.4408 3.1275C8.95488 2.61977 9.65189 2.33417 10.3789 2.33335H13.1211V7.74992H10.3789L10.3769 7.74997C9.65024 7.74863 8.95375 7.46281 8.4401 6.95514C7.92645 6.44747 7.63755 5.75938 7.63672 5.04169ZM7.63672 12.1249C7.63755 11.4072 7.92645 10.7191 8.4401 10.2115C8.95375 9.70379 9.65024 9.41796 10.3769 9.41663L10.3789 9.41669L13.1211 9.41661V14.8331L10.3789 14.8332C9.65189 14.8324 8.95488 14.5468 8.4408 14.0391C7.92671 13.5314 7.63754 12.843 7.63672 12.1249ZM10.3789 21.9165C10.0186 21.9168 9.66177 21.847 9.3288 21.711C8.99583 21.575 8.69325 21.3756 8.43837 21.1241C8.18348 20.8726 7.98128 20.5739 7.84333 20.2452C7.70537 19.9164 7.63437 19.5641 7.63437 19.2082C7.63437 18.8523 7.70537 18.5 7.84333 18.1712C7.98128 17.8425 8.18348 17.5438 8.43837 17.2923C8.69325 17.0408 8.99583 16.8414 9.3288 16.7054C9.66177 16.5694 10.0186 16.4996 10.3789 16.4999L13.1211 16.4998V19.2082C13.1203 19.9262 12.8311 20.6146 12.317 21.1223C11.8029 21.6301 11.1059 21.9157 10.3789 21.9165ZM17.5508 14.8332C16.824 14.8331 16.127 14.5479 15.613 14.0405C15.0989 13.533 14.8099 12.8448 14.8093 12.127C14.8088 11.4092 15.0968 10.7205 15.6101 10.2123C16.1234 9.70409 16.8199 9.41793 17.5467 9.41669H17.5508L17.5528 9.41664C18.2796 9.41762 18.9762 9.70353 19.4897 10.2115C20.0032 10.7196 20.2914 11.4081 20.2912 12.1259C20.2909 12.8437 20.0021 13.5321 19.4883 14.0397C18.9744 14.5474 18.2776 14.8328 17.5508 14.8332Z" fill="white"/>
</svg>
