<svg width="24" height="24" viewBox="0 0 24 24" fill="none" xmlns="http://www.w3.org/2000/svg">
<path d="M4.19362 15.673L6.46008 0.461012C6.47648 0.34825 6.52656 0.243763 6.60318 0.162424C6.6798 0.0810849 6.77906 0.0270408 6.88683 0.0079851C6.99459 -0.0110706 7.10537 0.00583323 7.2034 0.0562903C7.30142 0.106747 7.38169 0.188186 7.43279 0.289012L9.86983 5.06001L4.19362 15.673ZM20.2888 19.364L18.1307 5.36501C18.1148 5.26689 18.0734 5.1752 18.011 5.09997C17.9486 5.02473 17.8675 4.96884 17.7767 4.93839C17.686 4.90795 17.5889 4.90412 17.4962 4.92734C17.4034 4.95055 17.3186 4.9999 17.2509 5.07001L3.64258 19.364L11.1722 23.792C11.4044 23.9281 11.6663 23.9997 11.9326 23.9997C12.199 23.9997 12.4609 23.9281 12.6931 23.792L20.2888 19.364ZM14.1699 7.14801L12.4257 3.66601C12.3817 3.57845 12.3156 3.50511 12.2345 3.45395C12.1534 3.40278 12.0605 3.37573 11.9657 3.37573C11.8709 3.37573 11.778 3.40278 11.6969 3.45395C11.6158 3.50511 11.5497 3.57845 11.5057 3.66601L3.84862 17.984L14.1699 7.14801Z" fill="white"/>
</svg>
