<svg width="24" height="24" viewBox="0 0 24 24" fill="none" xmlns="http://www.w3.org/2000/svg">
<path d="M13.982 2.75091L18.8322 5.60232C19.6352 4.74285 20.9713 4.7076 21.8162 5.52433C21.9586 5.66532 22.0854 5.82507 22.1849 6.00056C22.7645 7.02803 22.4157 8.34049 21.4011 8.92997C21.2323 9.02747 21.0479 9.10547 20.8518 9.15271V14.8518C21.9807 15.1255 22.676 16.2737 22.4069 17.422C22.3604 17.6252 22.28 17.8202 22.1805 18.0002C21.5965 19.0239 20.3106 19.3749 19.3004 18.7817C19.1087 18.6722 18.9318 18.5237 18.7858 18.3557L13.9621 21.1876C14.3271 22.3088 13.7276 23.5193 12.6253 23.8905C12.41 23.9648 12.1873 24 11.9646 24C10.8048 24 9.86026 23.0468 9.86026 21.8633C9.86026 21.6601 9.89123 21.4531 9.94874 21.2536L5.09482 18.4059C4.29186 19.2616 2.95948 19.2969 2.11891 18.4764C1.28203 17.6597 1.25106 16.3082 2.0496 15.4533C2.32979 15.1563 2.6874 14.9455 3.07893 14.848V9.14896C1.95006 8.87522 1.25106 7.71951 1.52388 6.5668C1.57033 6.3673 1.64701 6.17606 1.74656 6.00056C2.32611 4.97684 3.61645 4.62586 4.62292 5.21909C4.79546 5.32033 4.95694 5.44558 5.09556 5.59408L9.94948 2.74641C9.61915 1.61395 10.2569 0.422237 11.3666 0.0899972C11.5584 0.0277491 11.7619 0 11.9661 0C13.1259 0 14.0705 0.95322 14.0705 2.13293C14.0705 2.34368 14.0395 2.55067 13.982 2.75016V2.75091ZM13.4754 3.62989C13.4563 3.64939 13.4408 3.66889 13.4179 3.68838L19.7701 14.8758C19.7967 14.8683 19.8276 14.86 19.8505 14.8525V9.14596C18.7253 8.86472 18.0418 7.70451 18.322 6.56005C18.3257 6.5368 18.3338 6.50905 18.3375 6.4858L13.4754 3.62989ZM10.5106 3.68838L10.4531 3.62989L5.59105 6.4813C5.91401 7.61376 5.2681 8.79798 4.15471 9.12572C4.12817 9.13321 4.10457 9.13771 4.07803 9.14521V14.8518L4.16282 14.875L10.515 3.68763L10.5106 3.68838ZM12.5538 4.19612C12.1696 4.30562 11.7626 4.30562 11.3821 4.19612L5.02994 15.3835C5.31824 15.6648 5.52174 16.0277 5.62128 16.4267H18.3139C18.4097 16.0285 18.6132 15.6648 18.9052 15.3798L12.5538 4.19612ZM13.5212 20.4219L18.3522 17.5825C18.3367 17.5352 18.3257 17.4887 18.3139 17.4415H5.6176L5.59474 17.5232L10.4531 20.3746C10.8335 19.9726 11.3711 19.7221 11.9661 19.7221C12.5847 19.7221 13.1377 19.9921 13.5212 20.4219Z" fill="white"/>
</svg>
