<svg width="54" height="24" viewBox="0 0 54 24" fill="none" xmlns="http://www.w3.org/2000/svg">
<g clip-path="url(#clip0_80_554)">
<path opacity="0.1" d="M48.095 1.27667C48.0845 1.31833 48.0845 1.36191 48.095 1.40357C48.095 1.40357 48.2297 2.30177 48.074 2.70233L41.6974 19.6314C41.2425 20.8772 41.852 22.2609 43.0743 22.7354C44.2955 23.2099 45.6515 22.5986 46.1384 21.3627L52.5149 4.43474C52.6386 4.10701 53.3541 3.4637 53.3541 3.4637C53.3843 3.43432 53.4116 3.40218 53.4358 3.3677V3.35667C53.4358 3.34674 53.4469 3.34674 53.4469 3.33571C53.6125 2.90315 52.5459 2.07998 51.0762 1.49846C49.6066 0.918049 48.2716 0.802187 48.106 1.24467C48.106 1.24467 48.095 1.2557 48.095 1.27777V1.27667Z" fill="white"/>
<path d="M47.9112 1.12872C47.9009 1.17038 47.9009 1.21395 47.9112 1.25562C47.9112 1.25562 48.046 2.15382 47.8903 2.55438L41.5137 19.4824C41.0588 20.7293 41.6694 22.113 42.8906 22.5875C44.1129 23.062 45.4688 22.4507 45.9547 21.2148L52.3312 4.28679C52.456 3.95907 53.1704 3.31576 53.1704 3.31576C53.2006 3.28637 53.2279 3.25423 53.2521 3.21976V3.20872C53.2521 3.19879 53.2631 3.19879 53.2631 3.18776C53.4288 2.7552 52.3621 1.93203 50.8925 1.35051C49.4229 0.7701 48.0879 0.654238 47.9223 1.09672C47.9223 1.10776 47.9223 1.11769 47.9112 1.12872Z" fill="url(#paint0_linear_80_554)"/>
<path d="M49.9185 8.78564L45.3119 20.9931C44.9696 21.8703 43.9869 22.3239 43.1069 21.9752C42.2269 21.6276 41.7609 20.6025 42.0822 19.7263L45.0215 11.9216C45.0215 11.9216 45.3848 11.3203 46.1091 10.8877C46.8335 10.4541 47.4231 10.549 48.2203 10.1903C49.0275 9.83061 49.9185 8.78564 49.9185 8.78564Z" fill="url(#paint1_linear_80_554)"/>
<path d="M52.1495 2.8358C52.2422 2.59083 51.5819 2.10311 50.6754 1.74669C49.77 1.38918 48.9595 1.29759 48.8679 1.54255C48.7762 1.78642 49.4365 2.27414 50.343 2.63055C51.2496 2.98807 52.0589 3.07966 52.1506 2.83469L52.1495 2.8358Z" fill="#CCCCCC"/>
<path opacity="0.3" d="M47.8675 1.25458C47.8675 1.25458 48.0011 2.14948 47.8477 2.55003L41.5131 19.4306C41.0603 20.6731 41.6676 22.0524 42.88 22.5269C43.0865 22.6107 43.3018 22.6637 43.5182 22.6736C43.1119 22.358 42.816 21.9167 42.6735 21.4157C42.5311 20.9147 42.5499 20.3829 42.7265 19.8929L48.9375 3.35003C48.9375 3.35003 48.084 2.539 47.8675 1.25348V1.25458Z" fill="#E9E9E9"/>
<g opacity="0.5">
<path opacity="0.5" d="M45.8301 12.3332C45.8547 12.3329 45.8791 12.3278 45.9018 12.3181C45.9244 12.3084 45.945 12.2943 45.9622 12.2767C45.9794 12.2591 45.993 12.2382 46.0022 12.2154C46.0113 12.1925 46.0159 12.168 46.0156 12.1434C46.0159 12.1188 46.0113 12.0943 46.0022 12.0715C45.993 12.0486 45.9794 12.0277 45.9622 12.0101C45.945 11.9925 45.9244 11.9784 45.9018 11.9687C45.8791 11.959 45.8547 11.9539 45.8301 11.9536C45.7805 11.9545 45.7333 11.9749 45.6987 12.0105C45.6642 12.0461 45.6451 12.0938 45.6457 12.1434C45.6451 12.193 45.6642 12.2408 45.6987 12.2763C45.7333 12.3119 45.7805 12.3323 45.8301 12.3332ZM47.0336 13.7864C47.1871 13.7864 47.3119 13.6584 47.3119 13.5018C47.3119 13.3451 47.1871 13.2171 47.0336 13.2171C46.8802 13.2171 46.7565 13.3451 46.7565 13.5018C46.7565 13.6584 46.8802 13.7864 47.0336 13.7864ZM45.193 15.6601C45.4823 15.6601 45.7175 15.4195 45.7175 15.1238C45.7175 14.8281 45.4823 14.5864 45.193 14.5864C44.9026 14.5864 44.6685 14.827 44.6685 15.1238C44.6685 15.4206 44.9026 15.6601 45.193 15.6601ZM44.3494 16.3972C44.5029 16.3972 44.6277 16.2703 44.6277 16.1136C44.6277 15.9569 44.5029 15.8289 44.3494 15.8289C44.1959 15.8289 44.0723 15.9558 44.0723 16.1136C44.0723 16.2714 44.1959 16.3972 44.3494 16.3972ZM45.4503 18.4088C45.4999 18.4079 45.5471 18.3875 45.5816 18.3519C45.6162 18.3163 45.6353 18.2686 45.6347 18.219C45.635 18.1696 45.6158 18.1221 45.5812 18.0868C45.5467 18.0515 45.4997 18.0312 45.4503 18.0303C45.4007 18.0309 45.3533 18.0511 45.3186 18.0864C45.2838 18.1218 45.2645 18.1694 45.2648 18.219C45.2645 18.2436 45.269 18.2681 45.2782 18.2909C45.2874 18.3138 45.301 18.3347 45.3182 18.3523C45.3354 18.3699 45.3559 18.384 45.3786 18.3937C45.4013 18.4034 45.4256 18.4085 45.4503 18.4088Z" fill="#E9E9E9"/>
</g>
<path opacity="0.1" d="M12.953 11.1007C13.2335 11.3324 13.7403 11.1956 14.0826 10.816C14.4447 10.4165 14.4966 9.90012 14.2173 9.6684C13.9368 9.43667 13.43 9.5735 13.0888 9.97405C12.7266 10.3735 12.6626 10.8789 12.953 11.1007ZM12.116 11.8488C12.0432 11.8488 11.9085 11.9856 12.0222 12.0375C12.1768 12.0905 12.2496 12.2273 12.2496 12.4171C12.116 13.2072 11.1532 14.1021 10.7811 14.4077C10.6873 14.5015 10.822 14.7123 10.9147 14.6394C11.1212 14.4706 11.5562 14.123 11.9085 13.6596C11.3288 14.976 10.1904 16.6819 9.75534 17.2822C8.05823 19.6723 5.48 21.8725 3.71002 21.8725C3.02199 21.8777 2.35458 21.638 1.82733 21.1962C1.30008 20.7544 0.94744 20.1395 0.832565 19.4615C0.811586 19.3037 0.605107 19.2728 0.645961 19.4836C0.966169 21.4521 2.45679 22.2201 4.25879 22.2201C6.23525 22.2201 8.554 20.768 9.83815 19.2728C11.9085 16.8607 13.2434 14.0811 12.8923 12.512C12.7465 11.9327 12.3435 11.8378 12.116 11.8488ZM24.8371 17.1034C25.3859 16.9666 25.8309 16.661 25.8309 16.1765C25.8309 16.1236 25.7381 16.1236 25.7381 16.1765C25.7381 16.4612 25.4168 16.7029 25.0536 16.7558C24.2056 16.8927 22.5283 15.8819 21.7411 14.8392C22.5913 15.1658 24.3193 14.6913 25.1375 14.091C25.8927 13.5327 26.1931 12.9225 26.245 12.427C26.3377 11.6061 25.4577 11.1216 24.2265 11.6061C23.4393 11.9327 22.4974 12.6378 21.5147 13.9652C22.5493 12.2273 24.5887 9.38371 26.5861 7.57295C29.0186 5.37157 30.4264 5.79309 28.2424 8.13129C27.3425 9.08909 25.6443 10.3316 24.475 10.869C24.1128 11.0267 24.2884 11.2375 24.5479 11.1227C25.7889 10.5633 27.4452 9.41571 28.45 8.45792C31.4091 5.56136 28.9358 3.38205 25.6653 6.44633C23.4393 8.53185 21.9906 10.7112 20.7274 13.5437C20.2935 14.0811 19.9722 14.5236 19.5791 14.8601C19.5272 14.9021 19.4963 14.944 19.4654 14.987C18.3778 15.9338 16.6696 17.2193 15.6041 17.2292C14.8478 17.2513 14.5275 16.6709 14.6623 15.9238C14.8687 14.7542 16.059 13.3749 17.0738 12.9004C18.3877 12.2902 19.165 13.4808 17.4359 14.4287C16.7734 14.7763 15.9873 14.965 15.6659 14.965C15.2938 14.965 15.3236 15.1238 15.645 15.1338C16.1728 15.1558 17.0219 14.9241 17.5806 14.6593C19.3505 13.7964 19.4654 12.1854 17.5397 12.1324C15.4484 12.0585 12.9431 13.8703 12.964 16.1556C12.985 17.1873 13.7922 17.7445 14.8996 17.7445C16.7524 17.7247 18.3988 16.2924 19.7547 15.029C19.9512 14.8601 20.1378 14.6814 20.3244 14.4916C19.8474 15.7131 19.61 16.8507 19.7238 17.6927C19.7966 18.304 20.1378 18.5876 20.4072 18.8193C20.4591 18.8612 20.5729 18.8193 20.5 18.7034C20.1069 18.229 20.2206 16.8077 20.7584 15.4284C21.2144 16.3553 22.9844 17.525 24.8371 17.1034ZM22.6111 13.1123C24.7753 11.1426 25.6233 12.9015 24.2475 13.9752C23.5331 14.5335 22.1143 14.955 21.6693 14.6814L21.5765 14.6284C21.5246 14.5335 21.4628 14.4386 21.422 14.3437C21.783 13.8913 22.1971 13.4907 22.6111 13.1123ZM34.6399 10.869C35.5089 10.9638 35.1479 9.89019 34.2667 10.1627C33.8736 10.2797 33.4905 11.0477 33.2111 11.712C32.3422 13.0273 30.8924 14.8281 29.8777 15.776C28.9778 16.5661 28.1496 16.7768 29.1644 15.3015C29.5784 14.7123 30.1062 14.0811 30.4066 13.4488C31.1199 11.8598 29.5983 11.1536 28.3672 12.1114C27.6528 12.6698 26.6899 13.8174 25.9347 14.4496C25.7271 14.6174 25.779 14.8701 25.9866 14.7023C26.5861 14.2069 27.6428 13.0692 28.5538 12.4072C29.309 11.8168 29.6094 12.1964 29.1743 12.6907C28.5736 13.397 27.5181 14.6284 27.2486 15.4074C26.8765 16.5771 27.3215 17.0924 28.0768 17.0924C29.1125 17.0924 30.655 15.4494 31.6896 14.144C32.0319 13.7026 32.404 13.1862 32.7253 12.6907C31.8243 14.4706 30.8814 16.2714 29.712 17.9034C28.0558 20.1986 25.9866 21.9266 24.019 21.9266C23.3285 21.9323 22.6584 21.693 22.1279 21.2513C21.5973 20.8096 21.2408 20.1942 21.1216 19.5145C21.0995 19.3567 20.914 19.3247 20.9339 19.5365C21.2552 21.5051 22.7459 22.2731 24.5468 22.2731C26.5243 22.2731 28.429 21.1045 29.7639 19.6723C32.4559 16.7768 32.7761 13.5227 33.6042 11.701C33.9984 10.869 34.3495 10.8381 34.6399 10.869ZM45.5911 8.08826C45.9852 7.40412 45.9643 6.86785 45.0423 6.86785C44.3489 6.88881 43.0868 7.38316 42.4961 7.84661C42.3614 7.98343 42.4243 8.05626 42.5899 7.98343C42.7037 7.9415 42.8384 7.86757 42.962 7.81461C43.6245 7.44605 43.3551 8.21516 43.2105 8.49874C42.4243 9.90012 41.0264 11.8698 40.2911 12.8485C39.9429 13.3267 39.5665 13.7836 39.1637 14.2168C38.4593 14.9021 37.0625 16.1136 35.9948 16.5131C32.5696 17.8185 36.9377 11.8797 37.2999 11.3953C38.107 10.3636 39.919 8.56274 40.4677 7.65681C40.8608 6.97267 40.8398 6.4353 39.919 6.4353C39.2255 6.45736 37.9624 6.95171 37.3727 7.41516C37.238 7.55198 37.2999 7.62481 37.4655 7.55198C37.5792 7.51005 37.7139 7.43612 37.8387 7.38316C38.5012 7.01461 38.2318 7.78371 38.0871 8.0673C37.2999 9.46868 35.9031 11.4372 35.1677 12.4171C34.5671 13.2381 33.8317 14.0601 33.263 14.5225C33.0356 14.7123 33.1703 14.8921 33.3978 14.7332C33.6042 14.5964 33.9057 14.2918 34.2469 13.9332C33.6252 15.1967 33.1184 16.9765 34.7537 17.1873C36.1515 17.3771 37.8078 15.9338 38.8832 14.859L39.2664 14.4706L39.3603 14.3757C38.7386 15.6392 38.2318 17.419 39.8671 17.6298C41.658 17.8825 43.8829 15.4284 44.7431 14.5225C44.9087 14.3547 44.8568 14.059 44.5774 14.3547C44.0695 14.8921 42.3514 16.4822 41.1093 16.9556C37.683 18.261 42.0511 12.3211 42.4133 11.8378C43.2304 10.7851 45.0423 8.98316 45.5911 8.08826Z" fill="white"/>
<path d="M12.7664 10.9219C13.0458 11.1536 13.5537 11.0168 13.8949 10.6372C14.2571 10.2378 14.309 9.72135 14.0296 9.48963C13.7502 9.2579 13.2423 9.39473 12.9011 9.79528C12.539 10.1958 12.4871 10.6902 12.7664 10.9219ZM11.9383 11.67C11.8654 11.67 11.7318 11.8069 11.8456 11.8587C12.0001 11.9117 12.073 12.0485 12.073 12.2383C11.9383 13.0284 10.9755 13.9233 10.6034 14.2289C10.5095 14.3238 10.6442 14.5335 10.7381 14.4607C10.9446 14.2918 11.3785 13.9442 11.7318 13.4808C11.1521 14.7972 10.0126 16.5031 9.5787 17.1034C7.8805 19.4935 5.30337 21.6938 3.53339 21.6938C2.84552 21.699 2.17824 21.4594 1.65101 21.0178C1.12379 20.5763 0.771044 19.9616 0.655934 19.2838C0.633851 19.1249 0.427372 19.094 0.468226 19.3048C0.790643 21.2734 2.28127 22.0414 4.08216 22.0414C6.05862 22.0414 8.37737 20.5892 9.66152 19.094C11.7307 16.6819 13.0668 13.9023 12.7145 12.3332C12.56 11.7429 12.1658 11.6491 11.9383 11.67ZM24.6495 16.9247C25.1982 16.7878 25.6432 16.4822 25.6432 15.9978C25.6432 15.9448 25.5505 15.9448 25.5505 15.9978C25.5505 16.2825 25.2303 16.5241 24.867 16.5771C24.0179 16.7139 22.3418 15.7031 21.5545 14.6604C22.4036 14.987 24.1316 14.5125 24.9498 13.9122C25.7051 13.355 26.0054 12.7437 26.0573 12.2482C26.15 11.4273 25.2711 10.9429 24.0389 11.4273C23.2527 11.7539 22.3097 12.459 21.327 13.7865C22.3616 12.0485 24.401 9.20494 26.3996 7.39418C28.8321 5.1928 30.2388 5.61432 28.0558 7.95252C27.1548 8.91032 25.4566 10.1528 24.2873 10.6902C23.9251 10.848 24.1007 11.0587 24.3602 10.944C25.6024 10.3845 27.2586 9.23694 28.2623 8.27914C31.2226 5.38259 28.7481 3.20328 25.4776 6.26756C23.2527 8.34204 21.8029 10.5324 20.5398 13.3649C20.1058 13.9023 19.7845 14.3448 19.3914 14.6814C19.3395 14.7233 19.3086 14.7652 19.2777 14.8082C18.1901 15.755 16.4831 17.0405 15.4164 17.0505C14.6612 17.0725 14.3399 16.4921 14.4746 15.7451C14.6811 14.5754 15.8714 13.1961 16.8861 12.7216C18.2 12.1114 18.9774 13.302 17.2482 14.2499C16.5857 14.5975 15.7996 14.7862 15.4783 14.7862C15.1062 14.7862 15.136 14.9451 15.4573 14.955C15.9851 14.9771 16.8342 14.7453 17.394 14.4805C19.164 13.6176 19.2777 12.0066 17.352 11.9536C15.2607 11.8797 12.7565 13.6916 12.7764 15.9768C12.7985 17.0085 13.6045 17.5658 14.7131 17.5658C16.5659 17.5459 18.2111 16.1136 19.567 14.8502C19.7635 14.6814 19.9501 14.5026 20.1367 14.3128C19.6608 15.5343 19.4224 16.672 19.5361 17.5139C19.609 18.1252 19.9501 18.4088 20.2196 18.6405C20.2715 18.6825 20.3852 18.6405 20.3123 18.5247C19.9192 18.0502 20.033 16.63 20.5718 15.2496C21.0366 16.1765 22.8066 17.3462 24.6495 16.9247ZM22.4257 12.9225C24.5887 10.9539 25.4379 12.7128 24.0599 13.7865C23.3466 14.3448 21.9288 14.7652 21.4838 14.4927L21.39 14.4386C21.3381 14.3448 21.2762 14.2499 21.2354 14.155C21.5976 13.7125 22.0116 13.302 22.4257 12.9225ZM34.4534 10.6902C35.3224 10.7851 34.9613 9.71142 34.0813 9.98397C33.6871 10.1009 33.3039 10.8689 33.0246 11.5332C32.1556 12.8496 30.7058 14.6494 29.6922 15.5972C28.7912 16.3873 27.9631 16.598 28.9778 15.1227C29.3919 14.5335 29.9197 13.9023 30.22 13.27C30.9344 11.6811 29.4128 10.9749 28.1806 11.9327C27.4662 12.491 26.5034 13.6386 25.7481 14.2709C25.5416 14.4397 25.5935 14.6924 25.8 14.5236C26.4007 14.0281 27.4563 12.8905 28.3672 12.2284C29.1225 11.638 29.4228 12.0176 28.9877 12.512C28.3882 13.2182 27.3315 14.4496 27.0632 15.2287C26.69 16.3983 27.135 16.9136 27.8913 16.9136C28.9259 16.9136 30.4684 15.2717 31.503 13.9652C31.8453 13.5238 32.2174 13.0074 32.5387 12.512C31.6377 14.2918 30.6959 16.0927 29.5266 17.7247C27.8703 20.0198 25.8 21.7478 23.8335 21.7478C23.1429 21.7535 22.4726 21.5143 21.9419 21.0726C21.4112 20.6309 21.0545 20.0155 20.9351 19.3357C20.913 19.1779 20.7275 19.1459 20.7485 19.3578C21.0687 21.3263 22.5593 22.0943 24.3613 22.0943C26.3377 22.0943 28.2424 20.9258 29.5785 19.4935C32.2693 16.598 32.5906 13.344 33.4188 11.5222C33.8119 10.6902 34.174 10.6482 34.4534 10.6902ZM45.4034 7.89956C45.7976 7.21542 45.7766 6.67804 44.8557 6.67804C44.1612 6.70011 42.8991 7.19445 42.3084 7.6579C42.1748 7.79473 42.2366 7.86756 42.4023 7.79473C42.516 7.7528 42.6507 7.67887 42.7744 7.6259C43.4369 7.25735 43.1686 8.02645 43.0228 8.31004C42.2366 9.71142 40.8388 11.68 40.1045 12.6598C39.7556 13.1387 39.378 13.5956 38.976 14.0281C38.2716 14.7122 36.8748 15.9238 35.8082 16.3233C32.382 17.6298 36.75 11.691 37.1122 11.2066C37.9205 10.1738 39.7313 8.37404 40.2801 7.46811C40.6731 6.78397 40.6522 6.24659 39.7313 6.24659C39.0379 6.26756 37.7747 6.7619 37.1851 7.22535C37.0504 7.36218 37.1122 7.43611 37.2778 7.36218C37.3916 7.32025 37.5263 7.24632 37.651 7.19445C38.3135 6.8259 38.0441 7.5939 37.8995 7.87859C37.1122 9.27997 35.7154 11.2485 34.9801 12.2273C34.3794 13.0494 33.644 13.8714 33.0754 14.3349C32.8479 14.5225 32.9826 14.7023 33.2101 14.5445C33.4177 14.4077 33.718 14.1031 34.0592 13.7445C33.4375 15.008 32.9307 16.7878 34.5671 16.9986C35.9639 17.1873 37.6201 15.7451 38.6967 14.6703L39.0798 14.2808L39.1726 14.1859C38.5509 15.4505 38.0441 17.2292 39.6805 17.4411C41.4703 17.6927 43.6963 15.2397 44.5554 14.3338C44.721 14.1649 44.6691 13.8703 44.3898 14.1649C43.8819 14.7023 42.1638 16.2924 40.9227 16.7669C37.4953 18.0722 41.8634 12.1324 42.2256 11.648C43.0537 10.5953 44.8557 8.79445 45.4034 7.89956Z" fill="url(#paint2_linear_80_554)"/>
</g>
<defs>
<linearGradient id="paint0_linear_80_554" x1="44.7887" y1="6.00817" x2="50.2987" y2="6.64696" gradientUnits="userSpaceOnUse">
<stop stop-color="#C1C1C1"/>
<stop offset="1" stop-color="white"/>
</linearGradient>
<linearGradient id="paint1_linear_80_554" x1="44.4562" y1="11.7175" x2="47.799" y2="12.1841" gradientUnits="userSpaceOnUse">
<stop stop-color="white"/>
<stop offset="1" stop-color="white"/>
</linearGradient>
<linearGradient id="paint2_linear_80_554" x1="0.463809" y1="22.0718" x2="0.463809" y2="4.78232" gradientUnits="userSpaceOnUse">
<stop stop-color="white"/>
<stop offset="0.403" stop-color="#CBCBCB"/>
<stop offset="1" stop-color="white"/>
</linearGradient>
<clipPath id="clip0_80_554">
<rect width="53" height="24" fill="white" transform="translate(0.464844)"/>
</clipPath>
</defs>
</svg>
