<svg width="161" height="24" viewBox="0 0 161 24" fill="none" xmlns="http://www.w3.org/2000/svg">
<g clip-path="url(#clip0_80_585)">
<path d="M5.43558 13.5372C5.87469 13.0624 6.32378 12.5678 6.78286 12.0534C7.26188 11.5391 7.72095 11.0346 8.16007 10.54C8.59917 10.0256 9.00834 9.54091 9.38758 9.08588C9.78677 8.63087 10.1261 8.23519 10.4055 7.89885H15.7048C14.6469 9.10567 13.609 10.263 12.5911 11.3709C11.5931 12.459 10.4953 13.5867 9.29777 14.7539C9.89654 15.2881 10.5153 15.931 11.154 16.6828C11.7927 17.4148 12.4115 18.1765 13.0103 18.9678C13.609 19.7592 14.1579 20.5505 14.6569 21.3418C15.1559 22.1332 15.575 22.8553 15.9144 23.5082H10.7947C10.4754 22.9938 10.1061 22.4299 9.68698 21.8167C9.28778 21.1836 8.85864 20.5604 8.39958 19.9471C7.9405 19.314 7.45149 18.7106 6.93255 18.1369C6.43355 17.5632 5.93456 17.0785 5.43558 16.6828V23.5082H0.974609V1.1922L5.43558 0.47998V13.5372Z" fill="white"/>
<path d="M31.4343 22.974C30.6758 23.1916 29.6978 23.3895 28.5002 23.5675C27.3026 23.7654 26.0452 23.8643 24.7279 23.8643C23.3906 23.8643 22.2728 23.6862 21.3746 23.3301C20.4964 22.974 19.7978 22.4794 19.2789 21.8463C18.7599 21.1935 18.3907 20.4219 18.1711 19.5317C17.9516 18.6414 17.8418 17.6621 17.8418 16.5938V7.89886H22.3028V16.0596C22.3028 17.4841 22.4924 18.5128 22.8716 19.1459C23.2508 19.779 23.9594 20.0955 24.9973 20.0955C25.3167 20.0955 25.656 20.0856 26.0153 20.0658C26.3745 20.0262 26.6939 19.9867 26.9733 19.9471V7.89886H31.4343V22.974Z" fill="white"/>
<path d="M45.74 15.5848C45.74 12.736 44.6821 11.3115 42.5664 11.3115C42.1073 11.3115 41.6482 11.3709 41.1892 11.4896C40.7501 11.6083 40.3908 11.7567 40.1114 11.9347V19.9768C40.3309 20.0163 40.6103 20.0559 40.9497 20.0955C41.289 20.1153 41.6582 20.1252 42.0574 20.1252C43.275 20.1252 44.1931 19.7097 44.8119 18.8788C45.4306 18.0479 45.74 16.9499 45.74 15.5848ZM50.2908 15.7035C50.2907 16.9499 50.1011 18.0776 49.7219 19.0865C49.3626 20.0955 48.8337 20.9561 48.1351 21.6683C47.4365 22.3805 46.5783 22.9344 45.5603 23.3301C44.5424 23.706 43.3847 23.8939 42.0874 23.8939C41.5484 23.8939 40.9796 23.8643 40.3808 23.8049C39.802 23.7653 39.2232 23.706 38.6443 23.6269C38.0855 23.5477 37.5466 23.4587 37.0276 23.3598C36.5087 23.2411 36.0496 23.1224 35.6504 23.0037V1.1922L40.1114 0.47998V8.25496C40.6103 8.03736 41.1293 7.86919 41.6682 7.75048C42.2071 7.63179 42.7859 7.57244 43.4047 7.57242C44.5224 7.57244 45.5104 7.77027 46.3687 8.16593C47.227 8.54183 47.9455 9.08589 48.5243 9.79809C49.1032 10.5103 49.5423 11.3709 49.8417 12.3799C50.1411 13.369 50.2907 14.4769 50.2908 15.7035Z" fill="white"/>
<path d="M52.9707 15.8222C52.9707 14.4374 53.1803 13.2306 53.5994 12.2018C54.0385 11.1533 54.6074 10.2828 55.306 9.59036C56.0046 8.89794 56.8029 8.37368 57.7011 8.01756C58.6193 7.66147 59.5574 7.48341 60.5154 7.4834C62.7509 7.48341 64.5173 8.16595 65.8147 9.53101C67.1121 10.8763 67.7608 12.8646 67.7608 15.4958C67.7608 15.753 67.7508 16.0398 67.7308 16.3564C67.7109 16.6531 67.6909 16.9202 67.671 17.1576H57.5514C57.6512 18.0677 58.0804 18.7898 58.8388 19.3239C59.5973 19.8581 60.6152 20.1252 61.8926 20.1252C62.711 20.1252 63.5094 20.0559 64.2878 19.9174C65.0862 19.7592 65.7349 19.5712 66.2339 19.3536L66.8326 22.9443C66.5931 23.063 66.2738 23.1817 65.8746 23.3004C65.4754 23.4191 65.0263 23.518 64.5273 23.5972C64.0483 23.6961 63.5293 23.7752 62.9705 23.8346C62.4116 23.8939 61.8527 23.9236 61.2939 23.9236C59.8767 23.9236 58.6392 23.7159 57.5814 23.3004C56.5435 22.885 55.6752 22.3211 54.9766 21.6089C54.298 20.8769 53.789 20.0163 53.4497 19.0272C53.1304 18.038 52.9707 16.9697 52.9707 15.8222ZM63.4495 14.1307C63.4295 13.7548 63.3597 13.3888 63.2399 13.0327C63.1401 12.6766 62.9705 12.3601 62.731 12.0831C62.5114 11.8061 62.222 11.5786 61.8627 11.4006C61.5234 11.2225 61.0943 11.1335 60.5753 11.1335C60.0763 11.1335 59.6472 11.2225 59.2879 11.4006C58.9286 11.5588 58.6292 11.7765 58.3897 12.0534C58.1502 12.3304 57.9606 12.6568 57.8209 13.0327C57.7011 13.3888 57.6113 13.7548 57.5514 14.1307H63.4495Z" fill="white"/>
<path d="M80.6939 11.816C80.2947 11.7171 79.8257 11.6182 79.2868 11.5193C78.7478 11.4006 78.169 11.3412 77.5503 11.3412C77.2708 11.3412 76.9315 11.3709 76.5323 11.4303C76.1531 11.4698 75.8637 11.5193 75.6641 11.5786V23.5082H71.2031V8.72979C72.0015 8.45283 72.9396 8.19565 74.0174 7.95823C75.1152 7.70106 76.3327 7.57246 77.67 7.57245C77.9095 7.57246 78.199 7.59225 78.5383 7.6318C78.8776 7.6516 79.2169 7.69117 79.5562 7.7505C79.8955 7.79008 80.2348 7.84943 80.5742 7.92855C80.9135 7.98792 81.2029 8.06705 81.4424 8.16595L80.6939 11.816Z" fill="white"/>
<path d="M83.834 8.43299C84.5924 8.21539 85.5705 8.01755 86.768 7.83948C87.9656 7.64166 89.2231 7.54274 90.5404 7.54272C91.8777 7.54274 92.9854 7.72079 93.8637 8.07688C94.7619 8.41322 95.4704 8.89792 95.9894 9.53098C96.5083 10.1641 96.8776 10.9158 97.0971 11.7863C97.3167 12.6568 97.4265 13.6262 97.4265 14.6945V23.5081H92.9655V15.2287C92.9655 13.8043 92.7759 12.7953 92.3967 12.2018C92.0174 11.6083 91.3088 11.3115 90.271 11.3115C89.9516 11.3115 89.6123 11.3313 89.253 11.3709C88.8937 11.3906 88.5744 11.4203 88.295 11.4599V23.5081H83.834V8.43299Z" fill="white"/>
<path d="M100.746 15.8222C100.746 14.4374 100.956 13.2306 101.375 12.2018C101.814 11.1533 102.383 10.2828 103.081 9.59036C103.78 8.89794 104.578 8.37368 105.477 8.01756C106.395 7.66147 107.333 7.48341 108.291 7.4834C110.526 7.48341 112.293 8.16595 113.59 9.53101C114.887 10.8763 115.536 12.8646 115.536 15.4958C115.536 15.753 115.526 16.0398 115.506 16.3564C115.486 16.6531 115.466 16.9202 115.446 17.1576H105.327C105.427 18.0677 105.856 18.7898 106.614 19.3239C107.373 19.8581 108.391 20.1252 109.668 20.1252C110.486 20.1252 111.285 20.0559 112.063 19.9174C112.862 19.7592 113.51 19.5712 114.009 19.3536L114.608 22.9443C114.369 23.063 114.049 23.1817 113.65 23.3004C113.251 23.4191 112.802 23.518 112.303 23.5972C111.824 23.6961 111.305 23.7752 110.746 23.8346C110.187 23.8939 109.628 23.9236 109.069 23.9236C107.652 23.9236 106.415 23.7159 105.357 23.3004C104.319 22.885 103.451 22.3211 102.752 21.6089C102.073 20.8769 101.564 20.0163 101.225 19.0272C100.906 18.038 100.746 16.9697 100.746 15.8222ZM111.225 14.1307C111.205 13.7548 111.135 13.3888 111.015 13.0327C110.916 12.6766 110.746 12.3601 110.506 12.0831C110.287 11.8061 109.997 11.5786 109.638 11.4006C109.299 11.2225 108.87 11.1335 108.351 11.1335C107.852 11.1335 107.423 11.2225 107.063 11.4006C106.704 11.5588 106.405 11.7765 106.165 12.0534C105.926 12.3304 105.736 12.6568 105.596 13.0327C105.477 13.3888 105.387 13.7548 105.327 14.1307H111.225Z" fill="white"/>
<path d="M118.828 4.01134L123.289 3.29913V7.89883H128.648V11.5786H123.289V17.0686C123.289 17.9984 123.449 18.7403 123.768 19.2942C124.107 19.8482 124.776 20.1251 125.774 20.1251C126.253 20.1251 126.742 20.0856 127.241 20.0064C127.76 19.9075 128.229 19.7789 128.648 19.6206L129.277 23.063C128.738 23.2806 128.139 23.4686 127.481 23.6268C126.822 23.7851 126.014 23.8642 125.056 23.8642C123.838 23.8642 122.83 23.706 122.032 23.3894C121.233 23.0531 120.595 22.5981 120.116 22.0244C119.636 21.4309 119.297 20.7186 119.098 19.8877C118.918 19.0568 118.828 18.1369 118.828 17.1279V4.01134Z" fill="white"/>
<path d="M130.918 15.8222C130.918 14.4374 131.128 13.2306 131.547 12.2018C131.986 11.1533 132.555 10.2828 133.253 9.59036C133.952 8.89794 134.75 8.37368 135.648 8.01756C136.567 7.66147 137.505 7.48341 138.463 7.4834C140.698 7.48341 142.465 8.16595 143.762 9.53101C145.059 10.8763 145.708 12.8646 145.708 15.4958C145.708 15.753 145.698 16.0398 145.678 16.3564C145.658 16.6531 145.638 16.9202 145.618 17.1576H135.499C135.598 18.0677 136.028 18.7898 136.786 19.3239C137.545 19.8581 138.563 20.1252 139.84 20.1252C140.658 20.1252 141.457 20.0559 142.235 19.9174C143.033 19.7592 143.682 19.5712 144.181 19.3536L144.78 22.9443C144.54 23.063 144.221 23.1817 143.822 23.3004C143.423 23.4191 142.974 23.518 142.475 23.5972C141.996 23.6961 141.477 23.7752 140.918 23.8346C140.359 23.8939 139.8 23.9236 139.241 23.9236C137.824 23.9236 136.587 23.7159 135.529 23.3004C134.491 22.885 133.623 22.3211 132.924 21.6089C132.245 20.8769 131.736 20.0163 131.397 19.0272C131.078 18.038 130.918 16.9697 130.918 15.8222ZM141.397 14.1307C141.377 13.7548 141.307 13.3888 141.187 13.0327C141.087 12.6766 140.918 12.3601 140.678 12.0831C140.459 11.8061 140.169 11.5786 139.81 11.4006C139.471 11.2225 139.042 11.1335 138.523 11.1335C138.024 11.1335 137.594 11.2225 137.235 11.4006C136.876 11.5588 136.577 11.7765 136.337 12.0534C136.097 12.3304 135.908 12.6568 135.768 13.0327C135.648 13.3888 135.559 13.7548 135.499 14.1307H141.397Z" fill="white"/>
<path d="M153.672 20.3329C154.49 20.3329 155.069 20.2538 155.408 20.0955C155.747 19.9372 155.917 19.6306 155.917 19.1755C155.917 18.8194 155.698 18.5128 155.258 18.2556C154.819 17.9786 154.151 17.672 153.252 17.3357C152.554 17.0785 151.915 16.8114 151.336 16.5344C150.777 16.2575 150.298 15.931 149.899 15.5551C149.5 15.1595 149.191 14.6945 148.971 14.1604C148.752 13.6262 148.642 12.9833 148.642 12.2315C148.642 10.7675 149.191 9.61015 150.288 8.75944C151.386 7.90876 152.893 7.48341 154.809 7.4834C155.767 7.48341 156.686 7.57244 157.564 7.75048C158.442 7.90876 159.141 8.08681 159.66 8.28463L158.881 11.727C158.362 11.5489 157.793 11.3907 157.175 11.2522C156.576 11.1137 155.897 11.0445 155.139 11.0445C153.741 11.0445 153.043 11.4302 153.043 12.2018C153.043 12.3799 153.073 12.5381 153.133 12.6766C153.193 12.8151 153.312 12.9536 153.492 13.0921C153.672 13.2108 153.911 13.3493 154.211 13.5075C154.53 13.646 154.929 13.8043 155.408 13.9823C156.386 14.3384 157.194 14.6945 157.833 15.0506C158.472 15.387 158.971 15.7629 159.33 16.1783C159.709 16.574 159.969 17.0191 160.109 17.5137C160.268 18.0083 160.348 18.582 160.348 19.2349C160.348 20.778 159.759 21.9452 158.582 22.7366C157.424 23.5279 155.777 23.9236 153.642 23.9236C152.245 23.9236 151.077 23.8049 150.139 23.5675C149.221 23.3301 148.582 23.1323 148.223 22.974L148.971 19.3833C149.73 19.68 150.508 19.9174 151.306 20.0955C152.105 20.2538 152.893 20.3329 153.672 20.3329Z" fill="white"/>
</g>
<defs>
<clipPath id="clip0_80_585">
<rect width="160" height="24" fill="white" transform="translate(0.464844)"/>
</clipPath>
</defs>
</svg>
