<svg width="24" height="24" viewBox="0 0 24 24" fill="none" xmlns="http://www.w3.org/2000/svg">
<g clip-path="url(#clip0_80_583)">
<path d="M0.464844 0.234009L21.4617 20.7698C21.4617 20.7698 21.8584 21.348 21.346 21.9218C20.8335 22.4955 20.1593 22.0035 20.1593 22.0035L0.464844 0.234009ZM6.70144 2.29276L23.0048 17.9295C23.0048 17.9295 23.398 18.5078 22.8848 19.0815C22.3709 19.6553 21.701 19.1633 21.701 19.1633L6.70144 2.29276ZM2.32209 6.69526L18.6205 22.3365C18.6205 22.3365 19.0172 22.9103 18.5048 23.4848C17.9923 24.063 17.3224 23.5665 17.3224 23.5665L2.32209 6.69526ZM11.9727 4.06201L23.3642 14.988C23.3642 14.988 23.6409 15.3908 23.2816 15.7928C22.9222 16.1948 22.4536 15.852 22.4536 15.852L11.9727 4.06201ZM3.76247 11.7968L15.1539 22.7228C15.1539 22.7228 15.4271 23.1248 15.0677 23.5268C14.7083 23.9295 14.2447 23.586 14.2447 23.586L3.76247 11.7968ZM17.3591 6.61276L22.5592 11.5658C22.5592 11.5658 22.6936 11.7578 22.5182 11.9445C22.3378 12.1328 22.1064 11.9723 22.1064 11.9723L17.3591 6.61276ZM6.38734 17.2298L11.5832 22.188C11.5832 22.188 11.7212 22.3748 11.5451 22.5623C11.3661 22.7543 11.134 22.59 11.134 22.59L6.38734 17.2298Z" fill="white"/>
</g>
<defs>
<clipPath id="clip0_80_583">
<rect width="23" height="24" fill="white" transform="translate(0.464844)"/>
</clipPath>
</defs>
</svg>
