<svg width="87" height="26" viewBox="0 0 87 26" fill="none" xmlns="http://www.w3.org/2000/svg">
<path fill-rule="evenodd" clip-rule="evenodd" d="M80.6342 10.9144C80.5568 10.9297 80.4793 11.0978 80.4793 11.1894C80.4638 11.8006 80.4483 13.4202 80.4483 14.5203C80.4483 14.5509 80.4947 14.6119 80.5412 14.6119C80.7738 14.6272 81.332 14.6425 81.8127 14.6425C82.4794 14.6425 82.8671 14.5509 83.0842 14.4592C83.6423 14.1842 83.9059 13.5882 83.9059 12.9312C83.9059 11.4492 82.8515 10.8838 81.2855 10.8838C81.177 10.8686 80.8669 10.8686 80.6342 10.9144ZM84.6348 17.7442C84.6348 16.2316 83.5028 15.3912 81.4561 15.3912C81.3631 15.3912 80.7119 15.3759 80.5568 15.4065C80.5102 15.4217 80.4483 15.4523 80.4483 15.4982C80.4483 16.583 80.4327 18.3096 80.4793 18.9818C80.5102 19.2721 80.7274 19.6847 80.991 19.8069C81.2699 19.9597 81.9058 19.9902 82.3399 19.9902C83.5649 19.9902 84.6348 19.318 84.6348 17.7442ZM77.4712 10.0741C77.6261 10.0741 78.0914 10.1198 79.2853 10.1198C80.4172 10.1198 81.3165 10.0894 82.4175 10.0894C83.7664 10.0894 85.6271 10.563 85.6271 12.5492C85.6271 13.5272 84.9293 14.3064 84.0145 14.6884C83.968 14.7037 83.968 14.7341 84.0145 14.7494C85.3169 15.0704 86.4645 15.8649 86.4645 17.3622C86.4645 18.8291 85.5341 19.761 84.1851 20.3417C83.3632 20.6931 82.3399 20.8153 81.301 20.8153C80.5102 20.8153 78.386 20.7237 77.2076 20.7542C77.0836 20.7084 77.3161 20.1583 77.4246 20.0666C77.7038 20.0513 77.9208 20.036 78.2154 19.9444C78.6341 19.8375 78.6805 19.7153 78.7426 19.0888C78.7737 18.554 78.7737 16.6593 78.7737 15.3148C78.7737 13.466 78.7892 12.2131 78.7737 11.602C78.7582 11.1284 78.5875 10.9756 78.2465 10.8838C77.9829 10.838 77.5487 10.7769 77.1921 10.7311C77.1145 10.6546 77.3781 10.1351 77.4712 10.0741ZM68.5244 19.5777C68.8966 19.8679 69.6253 19.9902 70.2766 19.9902C71.1139 19.9902 71.9512 19.8375 72.7575 19.1193C73.5793 18.3859 74.1529 17.2553 74.1529 15.4523C74.1529 13.7257 73.4862 12.3201 72.1218 11.4951C71.3465 11.0213 70.354 10.8228 69.2067 10.8228C68.8656 10.8228 68.5399 10.838 68.3384 10.9297C68.2918 10.9603 68.1833 11.0978 68.1833 11.1741C68.1523 11.4798 68.1523 13.8327 68.1523 15.2079C68.1523 16.6289 68.1523 18.6151 68.1833 18.8442C68.1833 19.0735 68.2918 19.4249 68.5244 19.5777ZM65.0046 10.0741C65.2993 10.0741 66.4311 10.1198 66.9738 10.1198C67.9508 10.1198 68.6484 10.0741 70.4936 10.0741C72.0442 10.0741 73.3466 10.4867 74.277 11.2658C75.4088 12.2284 75.9981 13.5578 75.9981 15.1773C75.9981 17.4844 74.9282 18.8138 73.8583 19.5777C72.7885 20.357 71.3929 20.8153 69.4083 20.8153C68.3539 20.8153 66.5398 20.7847 65.0357 20.7694H65.0201C64.9427 20.632 65.1442 20.0972 65.2682 20.0819C65.6714 20.036 65.7799 20.0207 65.9815 19.9444C66.3071 19.8222 66.3692 19.6541 66.4157 19.0888C66.4622 18.0345 66.4466 16.7664 66.4466 15.3301C66.4466 14.3064 66.4622 12.3048 66.4311 11.663C66.3847 11.1284 66.1521 10.9909 65.6869 10.8991C65.4543 10.8533 65.1442 10.7922 64.7101 10.7464C64.648 10.6393 64.9271 10.1657 65.0046 10.0741Z" fill="white"/>
<path fill-rule="evenodd" clip-rule="evenodd" d="M46.243 20.1735C45.8554 20.1276 45.5763 20.0666 45.2351 19.9138C45.1886 19.8832 45.111 19.7305 45.111 19.6693C45.08 19.1345 45.08 17.6066 45.08 16.5829C45.08 15.7578 44.9406 15.0397 44.5838 14.5355C44.1651 13.9549 43.5605 13.6188 42.7852 13.6188C42.1029 13.6188 41.1881 14.0772 40.4283 14.719C40.4128 14.7341 40.2888 14.8412 40.3043 14.6731C40.3043 14.505 40.3353 14.1689 40.3509 13.9397C40.3664 13.7257 40.2423 13.6188 40.2423 13.6188C39.7461 13.8632 38.3506 14.1842 37.8389 14.2299C37.4668 14.3064 37.3738 14.6578 37.7614 14.78H37.777C38.1955 14.9022 38.4746 15.0397 38.6917 15.1773C38.8467 15.2995 38.8312 15.4676 38.8312 15.6051C38.8467 16.7511 38.8467 18.5081 38.8003 19.4708C38.7848 19.8527 38.6763 19.9901 38.3972 20.0513L38.4281 20.036C38.211 20.0819 38.0404 20.1276 37.7768 20.1582C37.6838 20.2499 37.6838 20.7389 37.7768 20.8459C37.9474 20.8459 38.8467 20.8 39.5911 20.8C40.6145 20.8 41.1417 20.8459 41.4053 20.8459C41.5138 20.7236 41.5448 20.2652 41.4827 20.1582C41.1881 20.1429 40.9711 20.1125 40.7695 20.0513C40.4904 19.9901 40.4128 19.8527 40.3973 19.5318C40.3664 18.722 40.3664 17.0108 40.3664 15.8496C40.3664 15.5286 40.4594 15.3758 40.5524 15.2842C40.909 14.9787 41.4827 14.7647 41.9944 14.7647C42.4906 14.7647 42.8162 14.9175 43.0643 15.1162C43.4054 15.3911 43.5139 15.7884 43.5605 16.0787C43.6379 16.7358 43.607 18.0345 43.607 19.1651C43.607 19.7763 43.5605 19.9291 43.3279 20.0054C43.2194 20.0513 42.9403 20.1125 42.6146 20.1429C42.5061 20.2499 42.5371 20.7236 42.6146 20.8306C43.0643 20.8306 43.5915 20.7847 44.3668 20.7847C45.328 20.7847 45.9484 20.8306 46.1965 20.8306C46.2739 20.7389 46.3051 20.2958 46.243 20.1735ZM50.5381 14.337C49.7162 14.337 49.2046 14.9634 49.2046 15.9412C49.2046 16.9343 49.6541 18.0802 50.9257 18.0802C51.1427 18.0802 51.5459 17.9886 51.7319 17.7748C52.0265 17.4997 52.2282 16.9496 52.2282 16.3691C52.2282 15.1009 51.5923 14.337 50.5381 14.337ZM50.4294 21.0903C50.1194 21.0903 49.9022 21.1819 49.7628 21.2584C49.1114 21.6708 48.8169 22.0681 48.8169 22.5419C48.8169 22.9849 48.9874 23.3363 49.3596 23.6419C49.8092 24.0239 50.4294 24.2073 51.2202 24.2073C52.8018 24.2073 53.4996 23.3669 53.4996 22.5419C53.4996 21.9612 53.2049 21.5792 52.6003 21.3653C52.1661 21.1819 51.3753 21.0903 50.4294 21.0903ZM50.5381 25.0629C49.5922 25.0629 48.9099 24.8642 48.3208 24.4212C47.747 23.9933 47.4989 23.3516 47.4989 22.9085C47.4989 22.7863 47.53 22.4501 47.8091 22.1446C47.9796 21.9612 48.3517 21.6098 49.2356 21.014C49.2665 20.9987 49.282 20.9834 49.282 20.9528C49.282 20.9222 49.251 20.8916 49.2201 20.8764C48.4912 20.6014 48.2742 20.1582 48.2121 19.9138V19.8832C48.1967 19.7916 48.1657 19.6999 48.3052 19.6081C48.4138 19.5318 48.5688 19.4402 48.7393 19.3332C49.0029 19.1804 49.282 19.0123 49.4526 18.8748C49.4837 18.8442 49.4837 18.8138 49.4837 18.7832C49.4837 18.7526 49.4526 18.722 49.4216 18.7068C48.3363 18.3553 47.7936 17.5608 47.7936 16.3691C47.7936 15.5898 48.1502 14.8869 48.7859 14.4439C49.2201 14.1077 50.3054 13.6953 51.0187 13.6953H51.0653C51.794 13.7104 52.1971 13.8632 52.7707 14.0619C53.0809 14.1689 53.3756 14.2146 53.7787 14.2146C54.3834 14.2146 54.647 14.0313 54.864 13.8175C54.8795 13.8479 54.9106 13.9244 54.9261 14.123C54.9416 14.3217 54.8795 14.6119 54.7244 14.8259C54.6004 14.9939 54.3214 15.1162 54.0423 15.1162H53.9647C53.6856 15.0856 53.5615 15.055 53.5615 15.055L53.4996 15.0856C53.4841 15.1162 53.4996 15.1467 53.5151 15.1926L53.5306 15.2232C53.5615 15.3607 53.6236 15.7731 53.6236 15.8802C53.6236 17.133 53.112 17.683 52.5692 18.0955C52.042 18.4775 51.4374 18.722 50.7551 18.7832C50.7396 18.7832 50.6776 18.7832 50.5381 18.7985C50.4605 18.7985 50.3519 18.8138 50.3364 18.8138H50.3209C50.1969 18.8442 49.8868 18.997 49.8868 19.2568C49.8868 19.4859 50.0264 19.761 50.693 19.8069C50.8326 19.8222 50.9721 19.8222 51.1272 19.8374C52.011 19.8985 53.112 19.975 53.6236 20.1429C54.3368 20.4027 54.7865 21.0291 54.7865 21.7779C54.7865 22.9085 53.9647 23.9628 52.6003 24.6197C51.9335 24.9101 51.2668 25.0629 50.5381 25.0629ZM59.3762 14.4133C59.0505 14.4133 58.7559 14.4897 58.5389 14.6425C57.9342 15.0092 57.624 15.7427 57.624 16.8121C57.624 18.8138 58.6474 20.2194 60.1049 20.2194C60.5391 20.2194 60.8802 20.0972 61.1749 19.8527C61.6244 19.4859 61.8571 18.7526 61.8571 17.7289C61.8571 15.7427 60.8492 14.4133 59.3762 14.4133ZM59.6554 20.9528C57.0194 20.9528 56.0735 19.0429 56.0735 17.2553C56.0735 16.0024 56.5852 15.0397 57.6085 14.3521C58.3374 13.9091 59.2056 13.6647 59.9809 13.6647C61.9965 13.6647 63.4077 15.0856 63.4077 17.133C63.4077 18.5234 62.8494 19.6234 61.7795 20.2958C61.2678 20.6318 60.3842 20.9528 59.6554 20.9528ZM32.0244 14.4133C31.6987 14.4133 31.4042 14.4897 31.187 14.6425C30.5823 15.0092 30.2722 15.7427 30.2722 16.8121C30.2722 18.8138 31.2955 20.2194 32.7531 20.2194C33.1873 20.2194 33.5284 20.0972 33.823 19.8527C34.2726 19.4859 34.5053 18.7526 34.5053 17.7289C34.5053 15.7427 33.5128 14.4133 32.0244 14.4133ZM32.3035 20.9528C29.6675 20.9528 28.7216 19.0429 28.7216 17.2553C28.7216 16.0024 29.2333 15.0397 30.2567 14.3521C30.9855 13.9091 31.8538 13.6647 32.629 13.6647C34.6448 13.6647 36.0558 15.0856 36.0558 17.133C36.0558 18.5234 35.4976 19.6234 34.4277 20.2958C33.9315 20.6318 33.0477 20.9528 32.3035 20.9528ZM14.5806 20.8C14.5496 20.7542 14.5185 20.6167 14.534 20.4486C14.534 20.3264 14.5651 20.2499 14.5806 20.2194C14.9061 20.1735 15.0768 20.1276 15.2627 20.0819C15.5729 20.0054 15.6969 19.8374 15.7125 19.4555C15.759 18.5387 15.759 16.7968 15.7435 15.5898V15.5592C15.7435 15.4217 15.7435 15.2536 15.5729 15.1314C15.3248 14.9787 15.0302 14.8412 14.6425 14.7341C14.503 14.6884 14.41 14.6119 14.4255 14.5202C14.4255 14.4286 14.5185 14.3217 14.7202 14.2911C15.2318 14.2452 16.5652 13.9244 17.0924 13.6953C17.1234 13.7257 17.17 13.8175 17.17 13.9397L17.1545 14.1077C17.139 14.2758 17.1234 14.4745 17.1234 14.6731C17.1234 14.7341 17.1855 14.78 17.2475 14.78C17.2785 14.78 17.3096 14.7647 17.3406 14.7494C18.3329 13.9855 19.2322 13.7104 19.6973 13.7104C20.4572 13.7104 21.0464 14.0619 21.4961 14.7953C21.527 14.8412 21.5581 14.8563 21.6046 14.8563C21.6357 14.8563 21.6821 14.8412 21.6976 14.8106C22.6124 14.123 23.5273 13.7104 24.1319 13.7104C25.574 13.7104 26.4269 14.7647 26.4269 16.5523C26.4269 17.0566 26.4269 17.7136 26.4113 18.3095C26.4113 18.8442 26.3958 19.3332 26.3958 19.6846C26.3958 19.761 26.5043 20.0054 26.6749 20.0513C26.892 20.1582 27.1866 20.2041 27.5742 20.2652H27.5898C27.6208 20.3721 27.5587 20.7694 27.4968 20.8459C27.4036 20.8459 27.2641 20.8459 27.1091 20.8306C26.8145 20.8153 26.3958 20.8 25.9307 20.8C24.9693 20.8 24.4732 20.8153 23.9924 20.8459C23.9615 20.7236 23.946 20.3569 23.9924 20.2652C24.2715 20.2194 24.4111 20.1735 24.5817 20.1276C24.8918 20.036 24.9693 19.8985 24.9848 19.5012C24.9848 19.211 25.0468 16.7358 24.9538 16.1398C24.8608 15.5287 24.3955 14.8106 23.3722 14.8106C22.9846 14.8106 22.3799 14.9634 21.7906 15.4064C21.7597 15.437 21.7287 15.5134 21.7287 15.5592V15.5745C21.7906 15.8953 21.7906 16.2622 21.7906 16.8274V17.8205C21.7906 18.5081 21.7751 19.1498 21.7906 19.6387C21.7906 19.975 21.9923 20.0513 22.1629 20.1125C22.2559 20.1276 22.3178 20.1429 22.3954 20.1582C22.535 20.1888 22.6745 20.2194 22.8916 20.2652C22.9226 20.3264 22.9226 20.5249 22.876 20.693C22.8605 20.7847 22.8295 20.8306 22.8141 20.8459C22.2869 20.8306 21.7442 20.8153 20.9534 20.8153C20.7208 20.8153 20.3177 20.8306 19.9765 20.8306C19.6973 20.8306 19.4337 20.8459 19.2788 20.8459C19.2633 20.8153 19.2322 20.7083 19.2322 20.5402C19.2322 20.4027 19.2633 20.2958 19.2943 20.2652C19.3718 20.2499 19.4337 20.2347 19.5114 20.2347C19.6973 20.2041 19.8524 20.1735 20.0075 20.1429C20.2711 20.0666 20.3641 19.9291 20.3796 19.593C20.4262 18.829 20.4726 16.6441 20.3641 16.094C20.1781 15.2079 19.6664 14.7647 18.8446 14.7647C18.364 14.7647 17.7592 14.9939 17.263 15.3607C17.1855 15.4217 17.1234 15.5745 17.1234 15.7121V16.6135C17.1234 17.7136 17.1234 19.0888 17.139 19.6846C17.1545 19.8679 17.2164 20.0819 17.5732 20.1582C17.6506 20.1735 17.7747 20.2041 17.9298 20.2194L18.2089 20.2652C18.2399 20.3569 18.2244 20.7236 18.1623 20.8459C18.0072 20.8459 17.8213 20.8306 17.6041 20.8306C17.2785 20.8153 16.8598 20.8 16.3947 20.8C15.852 20.8 15.4644 20.8153 15.1542 20.8306C14.9372 20.8 14.7666 20.8 14.5806 20.8Z" fill="white"/>
<path fill-rule="evenodd" clip-rule="evenodd" d="M6.42507 24.4671L5.78935 24.2531C5.78935 24.2531 5.86697 21.0598 4.70406 20.8306C3.92879 19.9444 4.8281 -16.7561 7.61902 20.7084C7.61902 20.7084 6.65776 21.182 6.48716 21.9918C6.30103 22.7864 6.42507 24.4671 6.42507 24.4671Z" fill="white"/>
<path fill-rule="evenodd" clip-rule="evenodd" d="M6.42507 24.4671L5.78935 24.2531C5.78935 24.2531 5.86697 21.0598 4.70406 20.8306C3.92879 19.9444 4.8281 -16.7561 7.61902 20.7084C7.61902 20.7084 6.65776 21.182 6.48716 21.9918C6.30103 22.7864 6.42507 24.4671 6.42507 24.4671Z" fill="white"/>
<path fill-rule="evenodd" clip-rule="evenodd" d="M6.76599 21.3806C6.76599 21.3806 12.3325 17.7747 11.03 10.2726C9.77408 4.81804 6.81241 3.03039 6.48687 2.34278C6.13028 1.85388 5.78906 0.998291 5.78906 0.998291L6.02176 16.1704C6.02176 16.1857 5.54099 20.8152 6.76599 21.3806Z" fill="white"/>
<path fill-rule="evenodd" clip-rule="evenodd" d="M6.76599 21.3806C6.76599 21.3806 12.3325 17.7747 11.03 10.2726C9.77408 4.81804 6.81241 3.03039 6.48687 2.34278C6.13028 1.85388 5.78906 0.998291 5.78906 0.998291L6.02176 16.1704C6.02176 16.1857 5.54099 20.8152 6.76599 21.3806Z" fill="white"/>
<path fill-rule="evenodd" clip-rule="evenodd" d="M5.46367 21.5792C5.46367 21.5792 0.23827 18.065 0.548437 11.877C0.842937 5.68895 4.53331 2.64844 5.2465 2.09836C5.71175 1.60945 5.72727 1.42604 5.75831 0.937134C6.08386 1.62475 6.02191 11.22 6.06834 12.3506C6.2079 16.7052 5.82026 20.7542 5.46367 21.5792Z" fill="white"/>
<path fill-rule="evenodd" clip-rule="evenodd" d="M5.46367 21.5792C5.46367 21.5792 0.23827 18.065 0.548437 11.877C0.842937 5.68895 4.53331 2.64844 5.2465 2.09836C5.71175 1.60945 5.72727 1.42604 5.75831 0.937134C6.08386 1.62475 6.02191 11.22 6.06834 12.3506C6.2079 16.7052 5.82026 20.7542 5.46367 21.5792Z" fill="#D9D9D9"/>
</svg>
