<svg width="65" height="38" viewBox="0 0 65 38" fill="none" xmlns="http://www.w3.org/2000/svg">
<g clip-path="url(#clip0_80_542)">
<path d="M15.6365 9.90722H27.7074V10.8511H16.743V17.9552H27.0536V18.899H16.743V26.6986H27.8332V27.6425H15.6365V9.90722ZM28.7888 9.90722H30.0713L35.7548 17.7068L41.5639 9.90722L49.4653 0L36.4841 18.5265L43.1734 27.6425H41.8406L35.7548 19.3462L29.6438 27.6425H28.3361L35.0758 18.5265L28.7888 9.90722ZM43.6512 10.8511V9.90722H57.4071V10.8511H51.0698V27.6425H49.9633V10.8511H43.6512ZM0.535156 9.90722H1.91829L20.9909 37.9857L13.1091 27.6425L1.69196 11.2485L1.64166 27.6425H0.535156L0.535156 9.90722ZM57.2956 26.4137C57.0696 26.4137 56.9 26.2414 56.9 26.0187C56.9 25.796 57.0696 25.6237 57.2956 25.6237C57.5244 25.6237 57.6912 25.796 57.6912 26.0187C57.6912 26.2414 57.5244 26.4137 57.2956 26.4137ZM58.3829 25.3745H58.975C58.983 25.69 59.2172 25.9021 59.5617 25.9021C59.9465 25.9021 60.1645 25.6741 60.1645 25.2472V22.543H60.7674V25.2499C60.7674 26.0187 60.3152 26.4615 59.5671 26.4615C58.8646 26.4615 58.3829 26.032 58.3829 25.3745ZM61.5559 25.34H62.1534C62.2045 25.7032 62.5651 25.9339 63.0846 25.9339C63.569 25.9339 63.9242 25.6873 63.9242 25.348C63.9242 25.0563 63.6982 24.8814 63.1841 24.7621L62.6836 24.6428C61.9811 24.481 61.6609 24.147 61.6609 23.5849C61.6609 22.9036 62.226 22.4502 63.0738 22.4502C63.8623 22.4502 64.4383 22.9036 64.4733 23.5478H63.8866C63.83 23.1952 63.5179 22.9752 63.0657 22.9752C62.5894 22.9752 62.2718 23.2005 62.2718 23.5452C62.2718 23.8182 62.4763 23.9747 62.9823 24.0913L63.4102 24.1947C64.2068 24.3776 64.5352 24.6958 64.5352 25.2711C64.5352 26.0028 63.9592 26.4615 63.0388 26.4615C62.1776 26.4615 61.599 26.024 61.5559 25.34Z" fill="white"/>
</g>
<defs>
<clipPath id="clip0_80_542">
<rect width="64" height="38" fill="white" transform="translate(0.535156)"/>
</clipPath>
</defs>
</svg>
