<svg width="21" height="24" viewBox="0 0 21 24" fill="none" xmlns="http://www.w3.org/2000/svg">
<g clip-path="url(#clip0_80_540)">
<path d="M10.4604 23.7736C10.1605 23.7736 9.85607 23.6895 9.59197 23.5306L6.83011 21.8252C6.41829 21.5822 6.61972 21.4981 6.75401 21.4514C7.30459 21.2504 7.4165 21.2084 8.00289 20.858C8.06556 20.8206 8.14613 20.8346 8.2088 20.8766L10.3306 22.1896C10.4067 22.2364 10.5141 22.2364 10.5857 22.1896L18.8534 17.2087C18.9295 17.162 18.9787 17.0685 18.9787 16.9751V7.01328C18.9787 6.91515 18.9295 6.82638 18.8489 6.77498L10.5857 1.79874C10.5096 1.75202 10.4067 1.75202 10.3306 1.79874L2.07183 6.77965C1.99125 6.82638 1.94201 6.91983 1.94201 7.01795V16.9751C1.94201 17.0685 1.99125 17.162 2.07183 17.204L4.33682 18.5684C5.5678 19.2086 6.31981 18.4563 6.31981 17.6947V7.86368C6.31981 7.7235 6.42724 7.61603 6.56153 7.61603H7.60898C7.73879 7.61603 7.8507 7.7235 7.8507 7.86368V17.6993C7.8507 19.4095 6.95544 20.3907 5.40218 20.3907C4.92321 20.3907 4.54721 20.3907 3.49976 19.8487L1.33324 18.5451C0.796088 18.2227 0.464844 17.6199 0.464844 16.9704V7.01328C0.464844 6.36847 0.796088 5.76104 1.33324 5.43864L9.59197 0.45773C10.1157 0.149344 10.8095 0.149344 11.3288 0.45773L19.5964 5.44331C20.1336 5.76571 20.4648 6.36847 20.4648 7.01795V16.9751C20.4648 17.6199 20.1336 18.2227 19.5964 18.5497L11.3288 23.5306C11.0647 23.6895 10.7648 23.7736 10.4604 23.7736ZM17.1345 13.9566C17.1345 12.0923 15.9259 11.597 13.3879 11.2466C10.8185 10.8915 10.5588 10.7092 10.5588 10.0831C10.5588 9.56447 10.7782 8.87294 12.6806 8.87294C14.3771 8.87294 15.0038 9.25609 15.2634 10.4523C15.2858 10.5644 15.3843 10.6485 15.4962 10.6485H16.5705C16.6376 10.6485 16.7003 10.6205 16.7451 10.5691C16.7898 10.5177 16.8122 10.4476 16.8077 10.3775C16.6421 8.31691 15.3306 7.35904 12.6806 7.35904C10.3216 7.35904 8.91605 8.39634 8.91605 10.1392C8.91605 12.0269 10.3171 12.5502 12.5776 12.7838C15.2858 13.0595 15.4962 13.4754 15.4962 14.0314C15.4962 14.9939 14.7531 15.4051 13.0118 15.4051C10.8229 15.4051 10.344 14.8304 10.1828 13.695C10.1649 13.5735 10.0665 13.4847 9.9456 13.4847H8.87577C8.74148 13.4847 8.63852 13.5969 8.63852 13.7324C8.63852 15.1855 9.39501 16.919 13.0163 16.919C15.6305 16.9143 17.1345 15.835 17.1345 13.9566Z" fill="white"/>
</g>
<defs>
<clipPath id="clip0_80_540">
<rect width="20" height="24" fill="white" transform="translate(0.464844)"/>
</clipPath>
</defs>
</svg>
