<svg width="24" height="24" viewBox="0 0 24 24" fill="none" xmlns="http://www.w3.org/2000/svg">
<g clip-path="url(#clip0_80_534)">
<path d="M12.0352 9.85953C10.9046 9.85953 9.98384 10.8203 9.98384 12C9.98384 13.1798 10.9046 14.1405 12.0352 14.1405C13.1657 14.1405 14.0865 13.1798 14.0865 12C14.0865 10.8203 13.1657 9.85953 12.0352 9.85953ZM6.29234 16.254L5.83953 16.137C2.47003 15.246 0.535156 13.7385 0.535156 11.9963C0.535156 10.254 2.47075 8.74653 5.83953 7.85553L6.29234 7.73853L6.41956 8.20728C6.76025 9.43353 7.19797 10.629 7.72625 11.7855L7.82328 11.9963L7.72625 12.2108C7.19869 13.3628 6.76025 14.5583 6.41956 15.789L6.29234 16.254ZM5.63038 8.94903C3.06947 9.69903 1.49756 10.851 1.49756 11.9963C1.49756 13.1415 3.07019 14.289 5.63038 15.0435C5.94519 14.0003 6.32325 12.9848 6.76456 11.9963C6.32253 11.0078 5.94447 9.99228 5.63038 8.94903ZM17.778 16.254L17.6507 15.7853C17.3101 14.559 16.8723 13.3635 16.3441 12.2108L16.247 11.9963L16.3441 11.7818C16.8716 10.6298 17.3101 9.43428 17.6507 8.20353L17.778 7.73853L18.2308 7.85553C21.6003 8.74653 23.5352 10.254 23.5352 11.9963C23.5352 13.7385 21.5996 15.246 18.2308 16.137L17.778 16.254ZM17.3058 11.9963C17.7665 13.035 18.1481 14.055 18.4399 15.0435C21.0044 14.2898 22.5727 13.1415 22.5727 11.9963C22.5727 10.851 21.0001 9.70353 18.4399 8.94903C18.1251 9.98778 17.7471 11.0078 17.3058 11.9963ZM5.62247 8.94528L5.49525 8.47653C4.54794 4.99203 4.83616 2.49228 6.28516 1.62078C7.70756 0.765026 9.98744 1.77678 12.3794 4.33953L12.705 4.68753L12.3794 5.03553C11.5299 5.95728 10.7551 6.94953 10.0586 8.00403L9.92778 8.19528L9.70281 8.21478C8.47878 8.31603 7.26553 8.51928 6.07528 8.82453L5.62247 8.94528ZM7.44163 2.31678C7.18359 2.31678 6.95503 2.37153 6.76384 2.48853C5.81294 3.06303 5.64475 5.05503 6.29953 7.74228C7.32159 7.50378 8.35444 7.33578 9.3995 7.23828C9.99822 6.34728 10.6573 5.49603 11.3646 4.69503C9.871 3.17553 8.45578 2.31678 7.44163 2.31678ZM16.6323 22.6755C16.6287 22.6755 16.6287 22.6755 16.6323 22.6755C15.2659 22.6755 13.51 21.6053 11.6909 19.6523L11.3653 19.3043L11.6909 18.9563C12.5404 18.0345 13.3153 17.0423 14.0117 15.9878L14.1389 15.7965L14.3639 15.7733C15.5879 15.6758 16.8012 15.4725 17.995 15.1635L18.4478 15.0465L18.5751 15.5153C19.5224 18.9998 19.2342 21.4958 17.7852 22.3665C17.433 22.5773 17.0362 22.6838 16.6323 22.6755ZM12.705 19.2968C14.1986 20.8163 15.6138 21.6758 16.628 21.6758H16.6316C16.886 21.6758 17.1146 21.6173 17.3058 21.504C18.2567 20.9295 18.4292 18.9375 17.7701 16.2503C16.748 16.4888 15.7108 16.6568 14.6701 16.7505C14.0714 17.6453 13.4123 18.492 12.705 19.2968ZM18.4478 8.94528L17.995 8.82453C16.8012 8.52003 15.5879 8.31678 14.3639 8.21478L14.1389 8.19528L14.0117 8.00403C13.3153 6.94953 12.5404 5.95728 11.6909 5.03553L11.3653 4.68753L11.6909 4.33953C14.0829 1.77678 16.3628 0.765026 17.7852 1.62078C19.2342 2.49153 19.5224 4.99203 18.5751 8.47653L18.4478 8.94528ZM14.6708 7.23828C15.764 7.34403 16.8048 7.51203 17.7708 7.74228C18.4299 5.05503 18.2574 3.06228 17.3065 2.48853C16.3592 1.91853 14.5774 2.79303 12.7058 4.69578C13.413 5.50053 14.0685 6.34803 14.6708 7.23903V7.23828ZM7.44163 22.6755C7.03697 22.683 6.63662 22.578 6.28516 22.3673C4.83616 21.4965 4.54794 18.9998 5.49525 15.516L5.62247 15.0473L6.07528 15.1643C7.18359 15.4575 8.40403 15.66 9.70281 15.774L9.92778 15.7973L10.055 15.9885C10.7515 17.043 11.5263 18.0353 12.3758 18.957L12.7014 19.305L12.3758 19.653C10.5603 21.606 8.80438 22.6763 7.44163 22.6763V22.6755ZM6.30025 16.2503C5.64116 18.9375 5.81366 20.9303 6.76456 21.504C7.71187 22.0665 9.49006 21.1995 11.3653 19.2968C10.658 18.492 9.99894 17.6445 9.40022 16.7498C8.35587 16.656 7.32231 16.4888 6.30025 16.2503ZM12.0352 16.8788C11.2453 16.8788 10.4367 16.8435 9.62447 16.773L9.3995 16.7535L9.26869 16.5585C8.81228 15.8708 8.37744 15.1643 7.97709 14.4375C7.57244 13.7108 7.20228 12.969 6.858 12.2108L6.76097 11.9963L6.858 11.7818C7.20228 11.0243 7.57316 10.2818 7.97709 9.55503C8.37384 8.84028 8.80797 8.12553 9.26869 7.43403L9.3995 7.23903L9.62447 7.21953C11.2302 7.07853 12.8438 7.07853 14.4458 7.21953L14.6708 7.23903L14.8016 7.43403C15.7188 8.80878 16.5273 10.266 17.2123 11.7818L17.3093 11.9963L17.2123 12.2108C16.5273 13.7265 15.7223 15.1838 14.8016 16.5585L14.6708 16.7535L14.4458 16.773C13.6373 16.8435 12.8251 16.8788 12.0352 16.8788ZM9.93137 15.7928C11.3466 15.906 12.7237 15.906 14.1425 15.7928C14.9324 14.586 15.6361 13.3163 16.2463 11.9955C15.6397 10.6755 14.936 9.40578 14.1389 8.19828C12.7388 8.08503 11.3315 8.08503 9.93137 8.19828C9.13428 9.40503 8.42991 10.6748 7.824 11.9955C8.43422 13.3155 9.13787 14.5853 9.93137 15.7928Z" fill="white"/>
</g>
<defs>
<clipPath id="clip0_80_534">
<rect width="23" height="24" fill="white" transform="translate(0.535156)"/>
</clipPath>
</defs>
</svg>
