<svg width="31" height="24" viewBox="0 0 31 24" fill="none" xmlns="http://www.w3.org/2000/svg">
<g clip-path="url(#clip0_80_570)">
<path d="M14.6134 17.7619C14.5994 17.79 14.5853 17.8125 14.6134 17.7619ZM26.2914 13.6837C25.3486 13.6834 24.4184 13.8999 23.5726 14.3165C23.2961 13.7587 23.0101 13.2712 22.9633 12.9056C22.907 12.479 22.8461 12.2259 22.9117 11.7197C22.9773 11.2134 23.2726 10.4962 23.268 10.4447C23.2633 10.3931 23.2023 10.1353 22.5976 10.1306C21.993 10.1259 21.4726 10.2478 21.4122 10.4072C21.3054 10.6984 21.2223 10.9978 21.1637 11.3025C21.0559 11.8509 19.9548 13.8103 19.3314 14.8322C19.1251 14.4337 18.9517 14.0822 18.9142 13.8009C18.858 13.3744 18.797 13.1212 18.8626 12.615C18.9283 12.1087 19.2236 11.3915 19.2189 11.34C19.2142 11.2884 19.1533 11.0306 18.5491 11.0259C17.9448 11.0212 17.4241 11.1431 17.3631 11.3025C17.3022 11.4619 17.2366 11.8369 17.1147 12.1978C16.9928 12.5587 15.5261 15.8212 15.1422 16.6697C14.9453 17.1009 14.7766 17.4478 14.6547 17.6822C14.6359 17.7197 14.6219 17.7431 14.6125 17.7619C14.6266 17.7384 14.6359 17.715 14.6359 17.7244C14.5328 17.9259 14.4719 18.0384 14.4719 18.0384V18.0431C14.3922 18.1931 14.3031 18.329 14.2609 18.329C14.2328 18.329 14.1719 17.9353 14.275 17.3962C14.4953 16.2619 15.0156 14.4994 15.0109 14.4384C15.0062 14.4056 15.1094 14.1009 14.6687 13.9369C14.2422 13.7822 14.0875 14.04 14.05 14.04C14.0125 14.04 13.9844 14.1337 13.9844 14.1337C13.9844 14.1337 14.4578 12.1462 13.0755 12.1462C12.213 12.1462 11.013 13.0931 10.4233 13.9509C10.053 14.1525 9.25139 14.5884 8.40764 15.0525C8.08421 15.2306 7.7514 15.4134 7.43733 15.5869C7.4139 15.5634 7.39515 15.54 7.37171 15.5165C5.69405 13.7259 2.59655 12.4603 2.7278 10.0556C2.77468 9.17905 3.07936 6.87748 8.68421 4.08373C13.278 1.79623 16.9506 2.42436 17.583 3.82123C18.4923 5.81342 15.6194 9.52123 10.8489 10.0556C9.03061 10.2572 8.07483 9.55405 7.83577 9.29155C7.58733 9.01498 7.54983 9.00092 7.45608 9.05248C7.30139 9.13686 7.39983 9.38061 7.45608 9.52592C7.59671 9.89623 8.18265 10.5525 9.18061 10.8806C10.0572 11.1665 12.1891 11.3259 14.7667 10.3275C17.6626 9.21186 19.9169 6.10405 19.2559 3.50248C18.5828 0.858734 14.1991 -0.00845323 10.0539 1.46342C7.58405 2.33998 4.91311 3.71811 2.99171 5.51342C0.709364 7.65092 0.344208 9.51186 0.494208 10.29C1.02811 13.0509 4.83343 14.8509 6.3564 16.1822C6.2814 16.2244 6.21108 16.2619 6.14546 16.2994C5.38186 16.679 2.48077 18.1978 1.75468 19.8009C0.934364 21.6197 1.89061 22.9228 2.51827 23.1009C4.47718 23.6447 6.48296 22.665 7.56061 21.0572C8.63827 19.4494 8.50749 17.3494 8.01061 16.3931C8.00593 16.379 7.99655 16.3697 7.99186 16.3556C8.18874 16.2384 8.3903 16.1212 8.59186 16.004C8.98046 15.7744 9.36014 15.5634 9.69296 15.3806C9.50546 15.8869 9.36952 16.4962 9.29921 17.3775C9.21483 18.4087 9.6414 19.7447 10.1945 20.2697C10.4383 20.4994 10.7331 20.504 10.9159 20.504C11.5628 20.504 11.8534 19.9697 12.1764 19.3322C12.5748 18.554 12.9264 17.6494 12.9264 17.6494C12.9264 17.6494 12.4858 20.0962 13.6905 20.0962C14.1306 20.0962 14.5712 19.529 14.7686 19.2384V19.2431C14.7686 19.2431 14.778 19.2244 14.8014 19.1869C14.8483 19.1165 14.8717 19.0744 14.8717 19.0744V19.0603C15.0498 18.7556 15.4389 18.0572 16.0244 16.904C16.7837 15.4134 17.5098 13.5525 17.5098 13.5525C17.58 13.9616 17.6771 14.3656 17.8005 14.7619C17.9317 15.2072 18.2083 15.6947 18.4286 16.1681C18.2505 16.4119 18.1426 16.5525 18.1426 16.5525C18.143 16.5561 18.1447 16.5594 18.1473 16.5619C18.0067 16.7494 17.8473 16.9509 17.6833 17.1478C17.0837 17.8603 16.3708 18.6759 16.277 18.9103C16.1645 19.1869 16.1926 19.3931 16.4083 19.5525C16.5676 19.6744 16.8489 19.6931 17.1437 19.6697C17.6828 19.6322 18.0625 19.5009 18.2453 19.4165C18.5823 19.2957 18.9009 19.1285 19.1917 18.9197C19.7776 18.4884 20.1339 17.8697 20.1011 17.054C20.0823 16.604 19.937 16.154 19.7589 15.7322C19.8105 15.6572 19.8667 15.5775 19.9183 15.4978C20.8459 14.1431 21.5631 12.6562 21.5631 12.6562C21.6333 13.0653 21.7304 13.4693 21.8537 13.8656C21.9662 14.2453 22.1861 14.6625 22.3876 15.0703C21.5162 15.7781 20.9772 16.5984 20.7897 17.1375C20.4428 18.1359 20.7147 18.5859 21.2256 18.689C21.4553 18.7359 21.7834 18.6281 22.0272 18.525C22.3892 18.4044 22.7305 18.2289 23.0392 18.0047C23.6251 17.5734 24.1919 16.9687 24.1544 16.1484C24.1403 15.7781 24.0372 15.4078 23.9012 15.0515C24.6372 14.7422 25.593 14.5734 26.8117 14.714C29.4217 15.0187 29.9326 16.65 29.8342 17.3297C29.7358 18.0094 29.1873 18.389 29.0045 18.5015C28.8217 18.614 28.7655 18.6562 28.7795 18.7406C28.803 18.8625 28.8873 18.8578 29.042 18.8297C29.2576 18.7922 30.4103 18.2765 30.4619 17.0156C30.5369 15.4219 29.0045 13.6687 26.29 13.6828L26.2914 13.6837ZM6.17358 20.4665C5.31155 21.4087 4.10218 21.765 3.58233 21.465C3.02452 21.1406 3.24483 19.754 4.30843 18.75C4.9553 18.1406 5.78921 17.5781 6.34233 17.2312C6.4689 17.1562 6.65171 17.0437 6.87671 16.9078C6.91421 16.8844 6.93296 16.875 6.93296 16.875C6.97515 16.8469 7.02202 16.8234 7.0689 16.7953C7.45749 18.2203 7.08296 19.4765 6.17358 20.4656V20.4665ZM12.4717 16.1822C12.1717 16.9181 11.5394 18.7931 11.155 18.6947C10.8269 18.6103 10.6253 17.1806 11.0894 15.7744C11.3237 15.0665 11.8206 14.2228 12.1159 13.8947C12.5889 13.365 13.1092 13.1962 13.2311 13.4072C13.3951 13.6837 12.6592 15.7228 12.4717 16.1822ZM17.6748 18.6665C17.5483 18.7322 17.4311 18.7744 17.3748 18.7415C17.3326 18.7181 17.4264 18.629 17.4264 18.629C17.4264 18.629 18.078 17.9306 18.3358 17.6119C18.4858 17.4244 18.6592 17.204 18.8462 16.9603C18.8462 16.9837 18.8509 17.0072 18.8509 17.0353C18.8448 17.8744 18.0391 18.4415 17.6734 18.6665H17.6748ZM21.6864 17.7525C21.5926 17.6869 21.6067 17.4665 21.9208 16.7822C22.0426 16.515 22.3234 16.065 22.8114 15.6337C22.8666 15.797 22.8967 15.9677 22.9005 16.14C22.8958 17.1947 22.1411 17.5884 21.6869 17.7525H21.6864Z" fill="white"/>
</g>
<defs>
<clipPath id="clip0_80_570">
<rect width="30" height="24" fill="white" transform="translate(0.464844)"/>
</clipPath>
</defs>
</svg>
