<svg width="43" height="24" viewBox="0 0 43 24" fill="none" xmlns="http://www.w3.org/2000/svg">
<g clip-path="url(#clip0_80_579)">
<path fill-rule="evenodd" clip-rule="evenodd" d="M1.00977 2.84802C1.00977 1.80532 1.85026 0.960022 2.88704 0.960022H10.3961C11.4329 0.960022 12.2734 1.80532 12.2734 2.84802C12.2734 3.89073 11.4329 4.73602 10.3961 4.73602H4.76431V8.51202H10.3961C11.4329 8.51202 12.2734 9.35732 12.2734 10.4V17.952C12.2734 18.9947 11.4329 19.84 10.3961 19.84H2.88704C1.85026 19.84 1.00977 18.9947 1.00977 17.952C1.00977 16.9093 1.85026 16.064 2.88704 16.064H8.51886V12.288H2.88704C1.85026 12.288 1.00977 11.4427 1.00977 10.4V2.84802ZM16.0279 2.84802C16.0279 1.80532 16.8684 0.960022 17.9052 0.960022H25.4143C26.4511 0.960022 27.2916 1.80532 27.2916 2.84802V19.84H29.1689C30.2056 19.84 31.0461 20.6855 31.0461 21.728C31.0461 22.7706 30.2056 23.616 29.1689 23.616H25.4143C24.3775 23.616 23.537 22.7706 23.537 21.728V19.84H17.9052C16.8684 19.84 16.0279 18.9947 16.0279 17.952V2.84802ZM23.537 16.064H19.7825V4.73602H23.537V16.064ZM32.9234 0.960022C33.96 0.960022 34.8007 1.80532 34.8007 2.84802V16.064H40.4325C41.4691 16.064 42.3098 16.9093 42.3098 17.952C42.3098 18.9947 41.4691 19.84 40.4325 19.84H32.9234C31.8868 19.84 31.0461 18.9947 31.0461 17.952V2.84802C31.0461 1.80532 31.8868 0.960022 32.9234 0.960022Z" fill="white"/>
</g>
<defs>
<clipPath id="clip0_80_579">
<rect width="42" height="24" fill="white" transform="translate(0.464844)"/>
</clipPath>
</defs>
</svg>
