<svg width="30" height="24" viewBox="0 0 30 24" fill="none" xmlns="http://www.w3.org/2000/svg">
<path d="M15.1077 3.27271C11.488 3.27271 9.23755 5.12664 8.32924 8.84846C9.68493 6.99452 11.2711 6.29755 13.0742 6.75755C14.1045 7.0224 14.8501 7.78907 15.6635 8.63937C16.9921 10.0333 18.4969 11.6363 21.8861 11.6363C25.5058 11.6363 27.7563 9.7824 28.6646 6.06058C27.3089 7.91452 25.7228 8.61149 23.9197 8.15149C22.8894 7.88664 22.1573 7.11998 21.3303 6.26967C20.0017 4.87573 18.4969 3.27271 15.1077 3.27271ZM8.32924 11.6363C4.70954 11.6363 2.45909 13.4903 1.55078 17.2121C2.90647 15.3582 4.49263 14.6612 6.2957 15.1212C7.32603 15.386 8.0581 16.1527 8.88507 17.003C10.2136 18.3969 11.7185 20 15.1077 20C18.7274 20 20.9778 18.146 21.8861 14.4242C20.5305 16.2782 18.9443 16.9751 17.1412 16.5151C16.1109 16.2503 15.3788 15.4836 14.5519 14.6333C13.2233 13.2394 11.7185 11.6363 8.32924 11.6363Z" fill="white"/>
</svg>
