<svg width="24" height="24" viewBox="0 0 24 24" fill="none" xmlns="http://www.w3.org/2000/svg">
<g clip-path="url(#clip0_80_581)">
<path d="M0.464844 12V24H23.4648V0H0.464844V12ZM19 11.044C19.5846 11.196 20.0292 11.467 20.4384 11.909C20.6502 12.145 20.9646 12.575 20.9895 12.679C20.9971 12.709 19.9966 13.409 19.391 13.802C19.3689 13.817 19.2808 13.718 19.183 13.566C18.8859 13.116 18.5764 12.922 18.102 12.888C17.4043 12.838 16.9558 13.219 16.9597 13.855C16.9533 14.0114 16.9871 14.1667 17.0574 14.305C17.2108 14.636 17.4963 14.835 18.3895 15.238C20.0369 15.978 20.7413 16.465 21.1792 17.158C21.668 17.931 21.7782 19.166 21.4456 20.084C21.0815 21.082 20.1758 21.76 18.9013 21.984C18.5074 22.057 17.573 22.046 17.1494 21.966C16.2256 21.794 15.3497 21.318 14.8092 20.693C14.5974 20.45 14.1843 19.813 14.2102 19.768C14.2766 19.715 14.3472 19.6678 14.4211 19.627C14.5246 19.566 14.9108 19.333 15.2759 19.112L15.9371 18.712L16.0761 18.926C16.2697 19.234 16.6923 19.657 16.9482 19.798C17.6823 20.202 18.6895 20.145 19.1859 19.68C19.2857 19.5923 19.3647 19.4816 19.4168 19.3567C19.4688 19.2318 19.4924 19.096 19.4858 18.96C19.4858 18.682 19.4523 18.56 19.3133 18.35C19.1351 18.084 18.77 17.86 17.7331 17.39C16.5466 16.857 16.0358 16.526 15.5682 16C15.2763 15.6529 15.0607 15.2433 14.9366 14.8C14.8494 14.461 14.8274 13.611 14.8964 13.269C15.1408 12.072 16.0061 11.239 17.2548 10.991C17.6602 10.911 18.6023 10.941 19 11.044ZM13.6007 12.046L13.6084 13.029H10.6136V21.905H8.49568V13.029H5.50376V12.065C5.50376 11.531 5.5143 11.085 5.52868 11.075C5.54018 11.059 7.36197 11.051 9.56997 11.055L13.5902 11.067L13.6007 12.046Z" fill="white"/>
</g>
<defs>
<clipPath id="clip0_80_581">
<rect width="23" height="24" fill="white" transform="translate(0.464844)"/>
</clipPath>
</defs>
</svg>
