<svg width="87" height="86" viewBox="0 0 87 86" fill="none" xmlns="http://www.w3.org/2000/svg">
<g clip-path="url(#clip0_153_337)">
<path d="M24.7303 35.9588C24.7303 37.023 24.8566 37.8776 25.0528 38.5065C25.2759 39.1354 25.5715 39.8234 25.9639 40.5651C26.1171 40.8043 26.1735 41.0274 26.1735 41.2236C26.1735 41.5165 25.9907 41.7987 25.6279 42.0916L23.8219 43.2822C23.5989 43.4515 23.3462 43.5348 23.0802 43.5483C22.7872 43.5483 22.505 43.4085 22.2255 43.1424C21.8332 42.7366 21.4972 42.2878 21.1909 41.7987C20.8684 41.2531 20.5754 40.6941 20.3094 40.119C18.0707 42.7501 15.2703 44.0669 11.8975 44.0669C9.48949 44.0669 7.5733 43.3816 6.17311 42.0083C4.77292 40.6216 4.06074 38.8021 4.06074 36.507C4.06074 34.0856 4.91536 32.0968 6.66492 30.6133C8.41449 29.1298 10.723 28.3881 13.6766 28.3881C14.6414 28.3881 15.6492 28.4714 16.7001 28.6111C17.7643 28.7509 18.8554 28.9901 19.9895 29.24V27.1545C19.9895 24.9857 19.5407 23.4592 18.6458 22.5777C17.7347 21.6962 16.1975 21.2608 13.9857 21.2608C12.9913 21.2608 11.9566 21.3737 10.8924 21.6236C9.84155 21.8897 8.80686 22.1988 7.81249 22.6046C7.47655 22.7578 7.14061 22.8706 6.80467 22.9835C6.66492 23.0265 6.51174 23.0534 6.35586 23.0668C5.95005 23.0668 5.75386 22.7739 5.75386 22.1719V20.7717C5.75386 20.3229 5.8103 19.9735 5.95005 19.7773C6.15967 19.5113 6.43917 19.3016 6.74824 19.1753C7.75605 18.6566 8.94661 18.2239 10.3468 17.888C11.8169 17.5091 13.3138 17.329 14.8107 17.3424C18.2265 17.3424 20.7044 18.1111 22.3142 19.6671C23.881 21.2071 24.6792 23.5452 24.6792 26.6949V35.9614L24.7303 35.9588ZM13.1257 40.3125C14.0636 40.3125 15.0445 40.1432 16.0658 39.7938C17.1005 39.4579 18.0115 38.829 18.7802 37.9744C19.2424 37.4288 19.5918 36.8268 19.7611 36.1415C19.9304 35.4562 20.0406 34.615 20.0406 33.6502V32.4462C19.1725 32.2366 18.3045 32.0673 17.4095 31.9571C16.528 31.8442 15.6331 31.7878 14.722 31.7878C12.8032 31.7878 11.4057 32.1667 10.4677 32.9353C9.51636 33.7039 9.06755 34.7978 9.06755 36.2248C9.06755 37.5686 9.40349 38.5629 10.1184 39.2483C10.8037 39.9631 11.8088 40.3125 13.1257 40.3125ZM36.0957 43.4058C35.577 43.4058 35.2277 43.3225 35.0046 43.1129C34.7815 42.9436 34.5719 42.5378 34.4026 42.0083L27.6839 19.8929C27.5576 19.5139 27.4608 19.1377 27.4312 18.7453C27.4312 18.2831 27.6543 18.0304 28.1031 18.0304H30.9169C31.4625 18.0304 31.828 18.1138 32.0215 18.3099C32.2607 18.4793 32.4273 18.8851 32.5966 19.4306L37.4126 38.3694L41.8765 19.4306C42.0163 18.8555 42.1856 18.4793 42.4087 18.3099C42.7581 18.1003 43.1504 18.0009 43.5562 18.0304H45.8379C46.3835 18.0304 46.7624 18.1138 46.9855 18.3099C47.2086 18.4793 47.4182 18.8851 47.5311 19.4306L52.0514 38.5925L56.9937 19.4306C57.1765 18.8555 57.3727 18.4793 57.5689 18.3099C57.9048 18.1003 58.2972 18.0009 58.6896 18.0304H61.3502C61.8124 18.0304 62.0651 18.2535 62.0651 18.7453C62.0651 18.8851 62.0382 19.0248 62.0086 19.2076C61.9656 19.4468 61.8957 19.6833 61.8124 19.9224L54.9109 42.0244C54.7416 42.5996 54.5481 42.9758 54.3089 43.1451C53.9864 43.3548 53.6102 43.4542 53.2312 43.4246H50.7668C50.2212 43.4246 49.8557 43.3413 49.6192 43.1451C49.3962 42.9489 49.2 42.57 49.0871 41.9976L44.65 23.5479L40.2399 41.968C40.1001 42.5431 39.9308 42.9194 39.6943 43.1156C39.4712 43.3118 39.0654 43.3951 38.5467 43.3951L36.0957 43.4058ZM72.8392 44.1771C71.3557 44.1771 69.8722 43.9944 68.4452 43.6584C67.0181 43.3225 65.8974 42.9436 65.1557 42.5109C64.6934 42.2583 64.387 41.9788 64.2742 41.7127C64.1613 41.4601 64.0914 41.194 64.0914 40.9145V39.4579C64.0914 38.8559 64.3306 38.5629 64.7499 38.5629C64.9192 38.5629 65.0992 38.5898 65.2686 38.6463C65.4379 38.7161 65.7012 38.829 65.9834 38.9392C66.9644 39.3719 68.0125 39.7078 69.1332 39.9336C70.2807 40.1728 71.388 40.2829 72.5356 40.2829C74.3416 40.2829 75.7417 39.9604 76.7066 39.3316C77.6579 38.7564 78.2331 37.7218 78.2035 36.6172C78.2169 35.8754 77.9374 35.1606 77.4349 34.615C76.9162 34.0829 75.9379 33.5938 74.5377 33.1315L70.3936 31.8442C68.3081 31.1858 66.7547 30.2209 65.8168 28.9336C64.8923 27.7431 64.3897 26.2891 64.3763 24.7761C64.3763 23.5721 64.6424 22.5213 65.161 21.5994C65.6797 20.6884 66.365 19.8929 67.2197 19.2613C68.0743 18.6029 69.0526 18.1138 70.1867 17.7778C71.3342 17.4284 72.5382 17.2887 73.7987 17.2887C74.4276 17.2887 75.086 17.3156 75.7176 17.4016C76.376 17.4849 76.978 17.5978 77.58 17.7241C78.139 17.8638 78.6846 18.0036 79.2032 18.1729C79.7219 18.3422 80.1277 18.5223 80.4072 18.6916C80.7432 18.8609 81.0361 19.1108 81.2619 19.4064C81.4581 19.6859 81.5414 20.0219 81.5279 20.3578V21.7016C81.5279 22.3036 81.2887 22.6126 80.8695 22.6126C80.4771 22.5696 80.1143 22.4594 79.7784 22.2767C78.0557 21.5081 76.1798 21.1291 74.2905 21.156C72.6538 21.156 71.3638 21.4086 70.4823 21.9542C69.5874 22.4998 69.1385 23.3248 69.1385 24.5019C69.1385 25.3001 69.418 25.9854 69.9932 26.531C70.5683 27.0766 71.6299 27.6221 73.1429 28.1139L77.201 29.3878C79.2597 30.0463 80.7566 30.9708 81.6381 32.1452C82.5196 33.3062 82.955 34.6499 82.955 36.1496C82.955 37.367 82.6889 38.4877 82.2132 39.4659C81.6946 40.4308 81.0092 41.2854 80.1277 41.9868C79.2328 42.7017 78.182 43.2043 76.9511 43.5832C75.6638 43.9756 74.32 44.1852 72.85 44.1852L72.8392 44.1771ZM78.2545 58.0742C68.8349 65.0321 55.1716 68.7113 43.4138 68.7113C26.9394 68.7113 12.0883 62.6214 0.87605 52.4896C-0.00545037 51.6914 0.792737 50.6003 1.85699 51.2426C13.9776 58.2704 28.9416 62.5381 44.4082 62.5381C54.8491 62.5381 66.314 60.3532 76.8812 55.9027C78.448 55.1744 79.7918 56.9239 78.2519 58.0715L78.2545 58.0742ZM82.1756 53.6103C80.9716 52.0703 74.2099 52.8685 71.1595 53.2474C70.2485 53.3603 70.0953 52.5487 70.9365 51.9467C76.3115 48.1815 85.1426 49.2592 86.18 50.5196C87.2012 51.8204 85.8871 60.6542 80.8614 64.8816C80.0928 65.5401 79.3349 65.2041 79.6843 64.3361C80.8319 61.5088 83.3796 55.1368 82.1756 53.6103Z" fill="#FE9D14"/>
</g>
<defs>
<clipPath id="clip0_153_337">
<rect width="86" height="86" fill="white" transform="translate(0.5)"/>
</clipPath>
</defs>
</svg>
