<svg width="80" height="82" viewBox="0 0 80 82" fill="none" xmlns="http://www.w3.org/2000/svg">
<path d="M37.4491 66.2973C46.3741 64.4596 53.7441 62.9383 53.8291 62.9181L53.9841 62.8801L45.5591 51.1984C40.9241 44.7741 37.1341 39.4914 37.1341 39.461C37.1341 39.4306 45.8341 11.4755 45.8841 11.3768C45.9016 11.3439 51.8216 23.2585 60.2366 40.2609L74.6716 69.4234L74.7816 69.6462H48.0041H21.2266L37.4491 66.2973Z" fill="#0C8DD7"/>
<path d="M5.3125 62.7333C5.3125 62.7181 9.2825 54.6839 14.135 44.8804L22.9575 27.0579L33.25 17.0037C38.905 11.4729 43.5475 6.93948 43.565 6.93188C43.528 7.09959 43.4727 7.26259 43.4 7.41789L32.225 35.3274L21.25 62.7409H13.2775C8.9 62.7687 5.3125 62.751 5.3125 62.7333Z" fill="#0C8DD7"/>
</svg>
