<svg width="110" height="50" viewBox="0 0 110 50" fill="none" xmlns="http://www.w3.org/2000/svg">
<path d="M75.6594 47.1993C76.34 44.8893 76.0719 42.7581 74.9444 41.1837C73.9234 39.7331 72.1875 38.8909 70.0941 38.7843L30.4012 38.2824C30.1503 38.2824 29.9166 38.1587 29.7928 37.9421C29.6691 37.7462 29.6312 37.4952 29.6862 37.2271C29.8306 36.8524 30.2053 36.5637 30.635 36.5293L70.6681 36.0102C75.4119 35.7765 80.5681 31.9471 82.3763 27.2377L84.6484 21.2771C84.755 21.009 84.7928 20.7581 84.7206 20.5071C82.1425 8.83337 71.7406 0.133057 59.2797 0.133057C47.8019 0.133057 38.0806 7.54431 34.5916 17.8224C32.3366 16.1587 29.4697 15.2443 26.3725 15.5502C20.8587 16.0865 16.4347 20.5106 15.8984 26.0243C15.7747 27.4371 15.8641 28.8362 16.1838 30.1081C7.1775 30.3762 0 37.7359 0 46.7937C0 47.5809 0.0721875 48.3887 0.161562 49.2102C0.23375 49.5849 0.556875 49.8737 0.931562 49.8737H74.1744C74.6041 49.8737 74.9787 49.5884 75.1231 49.1759L75.6594 47.1993ZM88.3025 21.7068C87.945 21.7068 87.5669 21.7068 87.2094 21.7618C86.9413 21.7618 86.7247 21.9577 86.6181 22.2087L85.0781 27.5987C84.3975 29.9087 84.6484 32.0399 85.7931 33.6315C86.8141 35.0821 88.5672 35.9037 90.6641 36.0137L99.0962 36.5327C99.3644 36.5327 99.5809 36.6393 99.7219 36.8559C99.8456 37.0518 99.8662 37.3406 99.8112 37.5537C99.6875 37.949 99.2922 38.2515 98.8797 38.2687L90.0694 38.7877C85.2878 39.0043 80.1694 42.8509 78.3613 47.5602L77.7356 49.2068C77.5913 49.5299 77.825 49.8531 78.1825 49.8531H108.422C108.763 49.8531 109.086 49.6193 109.192 49.279C109.711 47.3987 109.997 45.429 109.997 43.4077C109.997 31.4831 100.258 21.7446 88.2956 21.7446L88.3025 21.7068Z" fill="#ED7C1C"/>
</svg>
