<svg width="87" height="86" viewBox="0 0 87 86" fill="none" xmlns="http://www.w3.org/2000/svg">
<g clip-path="url(#clip0_153_339)">
<path d="M50.6058 39.6962H58.1989C58.375 39.6962 58.544 39.6264 58.6689 39.5022C58.7938 39.378 58.8644 39.2094 58.8654 39.0333V32.2715C58.8654 32.0947 58.7952 31.9252 58.6702 31.8002C58.5452 31.6752 58.3757 31.605 58.1989 31.605H50.6058C50.43 31.605 50.2614 31.6748 50.1371 31.7992C50.0127 31.9235 49.9429 32.0921 49.9429 32.2679V39.0333C49.9429 39.3988 50.2403 39.6962 50.6058 39.6962ZM40.0206 20.2387H47.6101C47.7869 20.2387 47.9564 20.1685 48.0814 20.0435C48.2064 19.9185 48.2766 19.7489 48.2766 19.5722V12.8068C48.2757 12.6307 48.2051 12.4621 48.0802 12.3379C47.9553 12.2136 47.7863 12.1439 47.6101 12.1439H40.0206C39.8448 12.1439 39.6762 12.2138 39.5519 12.3381C39.4276 12.4624 39.3577 12.631 39.3577 12.8068V19.5722C39.3577 19.9377 39.6516 20.2387 40.0206 20.2387ZM40.0206 29.9674H47.6101C47.7866 29.9665 47.9556 29.896 48.0804 29.7712C48.2052 29.6464 48.2757 29.4774 48.2766 29.3009V22.5392C48.2757 22.363 48.2051 22.1944 48.0802 22.0702C47.9553 21.946 47.7863 21.8763 47.6101 21.8763H40.0206C39.8448 21.8763 39.6762 21.9461 39.5519 22.0704C39.4276 22.1947 39.3577 22.3634 39.3577 22.5392V29.3009C39.3577 29.6664 39.6516 29.9638 40.0206 29.9674ZM29.5215 29.9674H37.1181C37.2937 29.9655 37.4614 29.8945 37.5848 29.7697C37.7082 29.6449 37.7775 29.4765 37.7775 29.3009V22.5392C37.7775 22.3634 37.7076 22.1947 37.5833 22.0704C37.459 21.9461 37.2904 21.8763 37.1146 21.8763H29.5251C29.3492 21.8763 29.1806 21.9461 29.0563 22.0704C28.932 22.1947 28.8621 22.3634 28.8621 22.5392V29.3009C28.8621 29.6664 29.1596 29.9638 29.5251 29.9674M18.9041 29.9674H26.4971C26.6733 29.9665 26.8419 29.8958 26.9661 29.7709C27.0903 29.6461 27.1601 29.4771 27.1601 29.3009V22.5392C27.1601 22.3634 27.0902 22.1947 26.9659 22.0704C26.8416 21.9461 26.673 21.8763 26.4971 21.8763H18.9041C18.7279 21.8763 18.5589 21.946 18.434 22.0702C18.3091 22.1944 18.2385 22.363 18.2376 22.5392V29.3009C18.2376 29.6664 18.5386 29.9638 18.9041 29.9674ZM40.0206 39.6962H47.6101C47.7863 39.6962 47.9553 39.6264 48.0802 39.5022C48.2051 39.378 48.2757 39.2094 48.2766 39.0333V32.2715C48.2766 32.0947 48.2064 31.9252 48.0814 31.8002C47.9564 31.6752 47.7869 31.605 47.6101 31.605H40.0206C39.8448 31.605 39.6762 31.6748 39.5519 31.7992C39.4276 31.9235 39.3577 32.0921 39.3577 32.2679V39.0333C39.3577 39.3988 39.6516 39.6962 40.0206 39.6962ZM29.5215 39.6962H37.1181C37.2933 39.6952 37.461 39.625 37.5846 39.5007C37.7081 39.3765 37.7775 39.2085 37.7775 39.0333V32.2715C37.7779 32.1844 37.7613 32.0982 37.7284 32.0175C37.6955 31.9369 37.6471 31.8636 37.5858 31.8017C37.5246 31.7398 37.4518 31.6906 37.3716 31.6568C37.2913 31.6231 37.2052 31.6055 37.1181 31.605H29.5215C29.3463 31.606 29.1786 31.6762 29.055 31.8004C28.9315 31.9246 28.8621 32.0927 28.8621 32.2679V39.0333C28.8621 39.3988 29.1596 39.6962 29.5251 39.6962M18.9041 39.6962H26.4971C26.673 39.6962 26.8416 39.6263 26.9659 39.502C27.0902 39.3777 27.1601 39.2091 27.1601 39.0333V32.2715C27.1605 32.1844 27.1439 32.0982 27.111 32.0175C27.0781 31.9369 27.0297 31.8636 26.9684 31.8017C26.9072 31.7398 26.8344 31.6906 26.7541 31.6568C26.6739 31.6231 26.5878 31.6055 26.5007 31.605H18.9041C18.7273 31.605 18.5578 31.6752 18.4328 31.8002C18.3078 31.9252 18.2376 32.0947 18.2376 32.2715V39.0333C18.2376 39.3988 18.5386 39.6962 18.9041 39.6962ZM8.44073 39.6962H16.0374C16.2126 39.6952 16.3803 39.625 16.5038 39.5007C16.6274 39.3765 16.6967 39.2085 16.6967 39.0333V32.2715C16.6972 32.1844 16.6805 32.0982 16.6476 32.0175C16.6148 31.9369 16.5663 31.8636 16.5051 31.8017C16.4439 31.7398 16.3711 31.6906 16.2908 31.6568C16.2106 31.6231 16.1244 31.6055 16.0374 31.605H8.44073C8.26553 31.606 8.09784 31.6762 7.97429 31.8004C7.85074 31.9246 7.78139 32.0927 7.78139 32.2679V39.0333C7.78139 39.3988 8.07164 39.6962 8.44073 39.6962ZM85.6508 35.4392C85.4179 35.2564 83.2428 33.6117 78.649 33.6117C77.4378 33.6153 76.2266 33.7192 75.0298 33.9234C74.1411 27.8318 69.1066 24.8576 68.8808 24.7286L67.6481 24.0155L66.8383 25.1873C65.8206 26.7568 65.0825 28.4911 64.6453 30.3114C63.8211 33.7873 64.3228 37.0553 66.0894 39.8467C63.9573 41.0363 60.5352 41.3266 59.8401 41.3517H3.19114C2.4799 41.3526 1.79796 41.6351 1.29437 42.1373C0.790771 42.6396 0.506485 43.3208 0.503644 44.032C0.437287 48.9943 1.27762 53.9271 2.98331 58.5875C4.93623 63.7045 7.83873 67.4742 11.6191 69.7818C15.8475 72.3726 22.7275 73.8561 30.5212 73.8561C34.043 73.8669 37.5581 73.5477 41.0204 72.9029C45.8322 72.019 50.4624 70.3367 54.7195 67.9257C58.2287 65.8944 61.3868 63.3098 64.072 60.2717C68.5583 55.1905 71.2315 49.5324 73.2202 44.505H74.0121C78.9285 44.505 81.9492 42.5378 83.6155 40.8894C84.7227 39.8395 85.5863 38.5603 86.1489 37.1413L86.5001 36.1093L85.6508 35.4392Z" fill="#1172D8"/>
</g>
<defs>
<clipPath id="clip0_153_339">
<rect width="86" height="86" fill="white" transform="translate(0.5)"/>
</clipPath>
</defs>
</svg>
