<svg width="115" height="44" viewBox="0 0 115 44" fill="none" xmlns="http://www.w3.org/2000/svg">
<path d="M9.00467 39.2004C8.99994 40.2921 8.53946 41.2752 7.80353 41.9699L7.80164 41.9717C7.04468 42.6814 6.02363 43.1173 4.90071 43.1173C3.77626 43.1173 2.75367 42.6799 1.99423 41.9662L1.99659 41.9684C1.25736 41.2745 0.796875 40.2912 0.796875 39.2004C0.796875 38.1079 1.25866 37.1233 1.99778 36.431L1.9999 36.4292C2.75686 35.7196 3.77792 35.2836 4.90083 35.2836C6.02374 35.2836 7.04468 35.7194 7.80389 36.4312L7.80152 36.4291C8.53922 37.1256 8.99994 38.1087 9.00443 39.1995V39.2003L9.00467 39.2004ZM50.1281 42.4746H42.7663L23.3835 11.8966C22.9363 11.2066 22.5268 10.4132 22.1966 9.57968L22.1641 9.48705H21.994C22.1476 10.8656 22.2353 12.4639 22.2353 14.0825C22.2353 14.4768 22.2301 14.8698 22.2199 15.2617L22.2211 15.2038V42.4744H15.7143V0.873746H23.5535L42.2889 30.7338C43.078 31.9668 43.5883 32.8221 43.8151 33.2851H43.9285C43.7412 31.8712 43.6343 30.2362 43.6343 28.5763C43.6343 28.2635 43.6381 27.9513 43.6456 27.6403L43.6448 27.6864V0.869019H50.128L50.1281 42.4746ZM81.8247 42.4746H59.0444V0.873746H80.9222V6.73249H65.778V18.5157H79.7314V24.3458H65.778V36.6486H81.8247V42.4746ZM114.202 6.73249H102.54V42.4746H95.8067V6.73249H84.1732V0.873746H114.202V6.73249Z" fill="#623495"/>
</svg>
