<svg width="83" height="82" viewBox="0 0 83 82" fill="none" xmlns="http://www.w3.org/2000/svg">
<g clip-path="url(#clip0_153_390)">
<path d="M9.54658 39.8998C6.00008 33.7157 5.27916 27.9278 7.80066 23.5647C11.1763 17.7154 19.6497 15.6722 30.3643 17.6232C30.5116 17.6432 30.6532 17.6928 30.7808 17.7691C30.9083 17.8454 31.0191 17.9467 31.1064 18.067C31.1937 18.1872 31.2557 18.3239 31.2887 18.4688C31.3217 18.6137 31.3251 18.7637 31.2985 18.9099C31.2719 19.0561 31.216 19.1955 31.1342 19.3195C31.0523 19.4435 30.9461 19.5496 30.8221 19.6315C30.6981 19.7133 30.5588 19.7692 30.4126 19.7958C30.2664 19.8223 30.1163 19.819 29.9714 19.7859C20.0631 17.9819 12.5088 19.803 9.70375 24.6649C7.63666 28.2422 8.2585 33.2373 11.4531 38.8099C11.5334 38.9354 11.5873 39.0759 11.6117 39.2228C11.636 39.3698 11.6303 39.5201 11.5948 39.6648C11.5593 39.8095 11.4949 39.9455 11.4053 40.0645C11.3157 40.1835 11.2029 40.283 11.0736 40.3571C10.9444 40.4313 10.8015 40.4783 10.6535 40.4956C10.5056 40.5128 10.3557 40.4998 10.2129 40.4573C10.0701 40.4149 9.9374 40.3439 9.82287 40.2487C9.70834 40.1534 9.61434 40.0325 9.54658 39.8998ZM60.5232 19.1641C66.7928 19.2461 71.3062 21.2004 73.3392 24.7196C76.1408 29.5678 73.9542 37.0025 67.4693 44.6627C67.3652 44.7709 67.2844 44.8994 67.2319 45.0401C67.1793 45.1808 67.1561 45.3307 67.1637 45.4808C67.1713 45.6308 67.2095 45.7776 67.276 45.9123C67.3426 46.0469 67.4359 46.1666 67.5504 46.2638C67.6649 46.361 67.7981 46.4337 67.9418 46.4775C68.0855 46.5213 68.2366 46.5352 68.3858 46.5183C68.5351 46.5015 68.6793 46.4542 68.8096 46.3796C68.9399 46.3049 69.0535 46.2043 69.1435 46.084C76.1613 37.7952 78.6111 29.4585 75.2422 23.6194C72.7617 19.3247 67.5206 17.0594 60.554 16.9672C60.4048 16.9572 60.2552 16.9777 60.1142 17.0275C59.9732 17.0773 59.8439 17.1553 59.7341 17.2567C59.6242 17.3582 59.5363 17.481 59.4755 17.6176C59.4147 17.7541 59.3824 17.9017 59.3805 18.0512C59.3786 18.2007 59.4073 18.349 59.4646 18.487C59.522 18.6251 59.6069 18.75 59.7142 18.8542C59.8214 18.9583 59.9488 19.0395 60.0885 19.0928C60.2282 19.1461 60.3739 19.1703 60.5232 19.1641ZM54.1887 71.2307C54.0649 71.1561 53.9276 71.1068 53.7847 71.0853C53.6418 71.0639 53.496 71.0708 53.3558 71.1057C53.2156 71.1406 53.0836 71.2028 52.9674 71.2887C52.8512 71.3747 52.753 71.4826 52.6786 71.6065C49.4874 76.9126 45.5719 79.8031 41.5402 79.8031C35.9301 79.8031 30.5796 74.1758 27.1902 64.7082C27.1449 64.568 27.0719 64.4383 26.9755 64.3268C26.8791 64.2153 26.7613 64.1243 26.6291 64.0592C26.4968 63.9941 26.3528 63.9563 26.2057 63.9479C26.0585 63.9396 25.9112 63.9609 25.7724 64.0106C25.6337 64.0603 25.5063 64.1373 25.3979 64.2372C25.2895 64.3371 25.2023 64.4577 25.1414 64.5919C25.0805 64.7262 25.0472 64.8712 25.0435 65.0186C25.0398 65.1659 25.0657 65.3125 25.1197 65.4497C28.7858 75.6928 34.7889 82 41.5334 82C46.4534 82 51.0078 78.6448 54.5612 72.7408C54.6357 72.617 54.6851 72.4797 54.7065 72.3368C54.7279 72.1939 54.721 72.0481 54.6861 71.9079C54.6512 71.7676 54.589 71.6356 54.5031 71.5194C54.4172 71.4032 54.3126 71.3051 54.1887 71.2307ZM79.3217 62.3678C79.3202 63.3342 79.0525 64.2814 78.5481 65.1057C78.0437 65.93 77.322 66.5994 76.4622 67.0406C75.6025 67.4818 74.6378 67.6776 73.6741 67.6067C72.7103 67.5358 71.7847 67.2009 70.9987 66.6387C62.6108 71.5757 46.5832 69.0645 31.5021 60.352C25.0787 56.6449 19.4515 52.1793 15.1192 47.4199C15.0151 47.3144 14.9334 47.1889 14.8791 47.051C14.8247 46.9132 14.7988 46.7657 14.8028 46.6176C14.8068 46.4694 14.8407 46.3236 14.9025 46.1889C14.9643 46.0542 15.0526 45.9334 15.1622 45.8336C15.2719 45.7339 15.4005 45.6574 15.5405 45.6086C15.6804 45.5598 15.8288 45.5398 15.9766 45.5498C16.1245 45.5598 16.2688 45.5995 16.4009 45.6667C16.5331 45.7338 16.6503 45.8269 16.7455 45.9405C20.9207 50.5291 26.3702 54.8546 32.5988 58.4489C46.8361 66.6694 61.8216 69.1089 69.4886 64.9611C69.0894 64.2605 68.8565 63.4776 68.808 62.6727C68.7594 61.8679 68.8965 61.0626 69.2087 60.3192C69.5208 59.5757 69.9996 58.9139 70.6082 58.3849C71.2167 57.856 71.9387 57.4739 72.7183 57.2683C73.498 57.0627 74.3145 57.039 75.1047 57.1991C75.895 57.3592 76.6379 57.6987 77.2761 58.1916C77.9143 58.6844 78.4306 59.3173 78.7853 60.0414C79.14 60.7656 79.3236 61.5615 79.3217 62.3678ZM14.1932 62.3678C14.1949 63.296 13.9511 64.2081 13.4864 65.0116C13.0217 65.8151 12.3527 66.4813 11.5474 66.9428C10.742 67.4042 9.82895 67.6444 8.90079 67.639C7.97262 67.6335 7.06241 67.3827 6.26252 66.9118C5.46262 66.441 4.80151 65.767 4.34627 64.9581C3.89102 64.1492 3.65785 63.2343 3.6704 62.3062C3.68296 61.3781 3.9408 60.4699 4.41776 59.6736C4.89472 58.8774 5.57382 58.2214 6.38616 57.7724C5.59008 47.9427 15.9187 34.7646 31.5328 25.7514C38.0177 22.0067 44.769 19.3486 51.1137 17.9922C51.3892 17.9533 51.6691 18.0203 51.8971 18.1795C52.1252 18.3387 52.2845 18.5784 52.3429 18.8503C52.4014 19.1223 52.3547 19.4062 52.2122 19.6451C52.0697 19.884 51.842 20.06 51.575 20.1378C45.4592 21.4498 38.9231 24.0226 32.6296 27.6545C17.9242 36.1449 8.20725 48.3834 8.54891 57.1301C8.67875 57.1198 8.80516 57.1096 8.935 57.1096C11.8392 57.1096 14.1967 59.4671 14.1967 62.3712L14.1932 62.3678ZM36.2786 5.26166C36.3277 3.89989 36.9032 2.61027 37.8839 1.66425C38.8647 0.718222 40.1742 0.189575 41.5368 0.189575C42.8995 0.189575 44.209 0.718222 45.1897 1.66425C46.1705 2.61027 46.746 3.89989 46.7951 5.26166C46.7951 5.34024 46.7882 5.41541 46.7848 5.49057C55.4939 9.99032 61.5448 25.3414 61.5448 43.0842C61.5448 50.3787 60.5267 57.3795 58.627 63.4475C58.5892 63.5913 58.5226 63.726 58.4312 63.8434C58.3399 63.9608 58.2257 64.0584 58.0956 64.1304C57.9654 64.2024 57.822 64.2473 57.674 64.2623C57.5261 64.2773 57.3766 64.2622 57.2346 64.2178C57.0927 64.1734 56.9612 64.1007 56.8481 64.004C56.7351 63.9074 56.6428 63.7888 56.5769 63.6555C56.5109 63.5222 56.4727 63.3769 56.4645 63.2284C56.4563 63.0799 56.4783 62.9313 56.5292 62.7915C58.3605 56.9422 59.3479 50.1601 59.3479 43.0842C59.3479 26.3767 53.7924 12.0096 46.204 7.67724C45.6638 8.72499 44.787 9.56068 43.7145 10.05C42.642 10.5392 41.4362 10.6537 40.2908 10.375C39.1454 10.0962 38.127 9.44041 37.3993 8.51301C36.6716 7.58561 36.2769 6.44047 36.2786 5.26166ZM40.7339 39.3634C40.2453 39.4688 39.7822 39.6695 39.3712 39.9539C38.9601 40.2383 38.6091 40.6009 38.3381 41.0209C38.0672 41.441 37.8816 41.9103 37.792 42.4021C37.7025 42.8939 37.7106 43.3985 37.8161 43.8871C37.9215 44.3757 38.1222 44.8388 38.4066 45.2498C38.691 45.6609 39.0535 46.0119 39.4736 46.2829C39.8937 46.5538 40.363 46.7394 40.8548 46.8289C41.3465 46.9185 41.8511 46.9103 42.3397 46.8049C43.3266 46.592 44.1883 45.9957 44.7355 45.1474C45.2827 44.299 45.4705 43.268 45.2576 42.2812C45.0446 41.2944 44.4484 40.4326 43.6 39.8854C42.7517 39.3382 41.7207 39.1505 40.7339 39.3634Z" fill="#323541"/>
</g>
<defs>
<clipPath id="clip0_153_390">
<rect width="82" height="82" fill="white" transform="translate(0.5)"/>
</clipPath>
</defs>
</svg>
