<svg width="100" height="100" viewBox="0 0 100 100" fill="none" xmlns="http://www.w3.org/2000/svg">
<path d="M98.9609 76.9063C95.3984 77.8125 93.1953 76.9453 91.2188 73.9766C86.7813 67.3281 81.8828 60.9844 77.1563 54.5235C76.5469 53.6875 75.9141 52.8672 75.125 51.8281C69.5313 59.375 63.9453 66.5625 58.7031 74.0391C56.8281 76.7109 54.8594 77.875 51.3594 76.9297L72.3906 48.7031L52.8125 23.211C56.1797 22.5547 58.5078 22.8906 60.5703 25.9063C65.125 32.5625 70.1484 38.8985 75.1562 45.6016C80.1953 38.9219 85.1563 32.5781 89.8438 25.9844C91.7266 23.3125 93.75 22.2969 97.1328 23.2813C94.5703 26.6797 92.0625 30.0235 89.5391 33.3438C86.1328 37.8203 82.7891 42.3516 79.2578 46.7344C78 48.2969 78.2031 49.3125 79.3281 50.7891C85.8594 59.375 92.3125 68.0469 98.9609 76.9063Z" fill="#0A0909"/>
<path d="M1.03906 48.2344C1.60156 45.4141 1.97656 42.5391 2.75781 39.7735C7.44531 23.0313 26.6641 16.0703 39.8672 26.4453C47.6016 32.5313 49.5234 41.1094 49.1406 50.7813H5.54688C4.89063 68.1328 17.3828 78.6094 33.3047 73.2656C38.8906 71.3906 42.1797 67.0156 43.8281 61.5469C44.6641 58.8047 46.0469 58.375 48.625 59.1563C47.3047 66 44.3125 71.7188 38.0625 75.2969C28.6875 80.6563 15.3047 78.9219 8.26562 71.4766C4.10937 67.1016 2.34375 61.6563 1.5625 55.7735C1.44531 54.836 1.20312 53.9141 1.01562 52.9844C1.03125 51.4011 1.03906 49.8177 1.03906 48.2344ZM5.625 47.0703H45.0234C44.7656 34.5235 36.9531 25.6094 26.2734 25.5313C14.5547 25.4375 6.13281 34.1406 5.625 47.0703Z" fill="#0A0909"/>
</svg>
