<svg width="73" height="74" viewBox="0 0 73 74" fill="none" xmlns="http://www.w3.org/2000/svg">
<g clip-path="url(#clip0_153_368)">
<path d="M11.8329 48.1721L19.0265 1.90223C19.0786 1.55925 19.2375 1.24143 19.4807 0.994024C19.7239 0.746618 20.0389 0.582234 20.381 0.524273C20.723 0.466312 21.0746 0.517727 21.3857 0.671201C21.6968 0.824675 21.9516 1.07238 22.1138 1.37906L29.8487 15.8909L11.8329 48.1721ZM62.9177 59.3989L56.0679 16.8186C56.0175 16.5201 55.8861 16.2412 55.688 16.0124C55.4899 15.7835 55.2328 15.6135 54.9446 15.5209C54.6564 15.4283 54.3484 15.4167 54.054 15.4873C53.7597 15.5579 53.4904 15.708 53.2756 15.9213L10.084 59.3989L33.9824 72.8673C34.7194 73.2814 35.5505 73.4989 36.3959 73.4989C37.2413 73.4989 38.0725 73.2814 38.8095 72.8673L62.9177 59.3989ZM43.4967 22.2419L37.9609 11.6508C37.8212 11.3844 37.6113 11.1614 37.354 11.0057C37.0966 10.8501 36.8016 10.7678 36.5009 10.7678C36.2001 10.7678 35.9051 10.8501 35.6478 11.0057C35.3904 11.1614 35.1805 11.3844 35.0409 11.6508L10.7379 55.2013L43.4967 22.2419Z" fill="#FFCE37"/>
</g>
<defs>
<clipPath id="clip0_153_368">
<rect width="73" height="73" fill="white" transform="translate(0 0.5)"/>
</clipPath>
</defs>
</svg>
