<svg width="76" height="76" viewBox="0 0 76 76" fill="none" xmlns="http://www.w3.org/2000/svg">
<g clip-path="url(#clip0_153_333)">
<path d="M44.4087 9.09453L59.8259 18.0055C62.3783 15.3195 66.6251 15.2094 69.3111 17.7617C69.7634 18.2023 70.1666 18.7016 70.483 19.25C72.3251 22.4609 71.2166 26.5625 67.9916 28.4047C67.4548 28.7094 66.8689 28.9531 66.2455 29.1008V46.9109C69.8337 47.7664 72.0439 51.3547 71.1884 54.943C71.0408 55.5781 70.7853 56.1875 70.4689 56.75C68.6127 59.9492 64.5252 61.0461 61.3142 59.1922C60.7048 58.85 60.1423 58.3859 59.6783 57.8609L44.3455 66.7109C45.5056 70.2148 43.6001 73.9976 40.0962 75.1578C39.4119 75.3898 38.7041 75.5 37.9962 75.5C34.3095 75.5 31.3072 72.5211 31.3072 68.8226C31.3072 68.1875 31.4056 67.5406 31.5884 66.9172L16.1595 58.018C13.6072 60.6922 9.37203 60.8023 6.70015 58.2383C4.03999 55.6859 3.94156 51.4625 6.47984 48.7906C7.37046 47.8625 8.50718 47.2039 9.75171 46.8992V29.0891C6.16343 28.2336 3.94156 24.6219 4.80874 21.0195C4.9564 20.3961 5.20015 19.7984 5.51656 19.25C7.35874 16.0508 11.4603 14.9539 14.6595 16.8078C15.208 17.1242 15.7212 17.5156 16.1619 17.9797L31.5908 9.08046C30.5408 5.5414 32.5681 1.81718 36.0955 0.7789C36.7048 0.584369 37.3517 0.49765 38.0009 0.49765C41.6877 0.49765 44.69 3.47656 44.69 7.16327C44.69 7.82187 44.5916 8.46874 44.4087 9.09218V9.09453ZM42.7986 11.8414C42.7377 11.9023 42.6884 11.9633 42.6158 12.0242L62.8072 46.9859C62.8916 46.9625 62.99 46.9367 63.0627 46.9133V29.0797C59.4861 28.2008 57.3134 24.575 58.2041 20.9984C58.2158 20.9258 58.2416 20.8391 58.2533 20.7664L42.7986 11.8414ZM33.3744 12.0242L33.1916 11.8414L17.7369 20.7523C18.7634 24.2914 16.7103 27.9922 13.1712 29.0164C13.0869 29.0398 13.0119 29.0539 12.9275 29.0773V46.9109L13.197 46.9836L33.3884 12.0219L33.3744 12.0242ZM39.8689 13.6109C38.6478 13.9531 37.3541 13.9531 36.1447 13.6109L15.9533 48.5726C16.8697 49.4516 17.5166 50.5859 17.833 51.8328H58.1783C58.483 50.5883 59.1298 49.4516 60.058 48.5609L39.8689 13.6109ZM42.9439 64.318L58.3001 55.4445C58.2509 55.2969 58.2158 55.1516 58.1783 55.0039H17.8212L17.7486 55.2594L33.1916 64.1703C34.4009 62.9141 36.1095 62.1312 38.0009 62.1312C39.9673 62.1312 41.7251 62.975 42.9439 64.318Z" fill="#E63BAE"/>
</g>
<defs>
<clipPath id="clip0_153_333">
<rect width="75" height="75" fill="white" transform="translate(0.5 0.5)"/>
</clipPath>
</defs>
</svg>
