<svg width="71" height="80" viewBox="0 0 71 80" fill="none" xmlns="http://www.w3.org/2000/svg">
<g clip-path="url(#clip0_153_335)">
<path d="M0.5 5V75H70.5V5H0.5ZM38.5938 59.5937C38.5938 66.4062 34.5937 69.5156 28.7656 69.5156C23.5 69.5156 20.4531 66.7969 18.8906 63.5L24.25 60.2656C25.2812 62.0938 26.2188 63.6406 28.4844 63.6406C30.6406 63.6406 32.0156 62.7969 32.0156 59.5V37.1406H38.5938V59.5937ZM54.1562 69.5156C48.0469 69.5156 44.0938 66.6094 42.1719 62.7969L47.5312 59.7031C48.9375 62 50.7812 63.7031 54.0156 63.7031C56.7344 63.7031 58.4844 62.3437 58.4844 60.4531C58.4844 58.2031 56.7031 57.4062 53.6875 56.0781L52.0469 55.375C47.2969 53.3594 44.1562 50.8125 44.1562 45.4531C44.1562 40.5156 47.9219 36.7656 53.7812 36.7656C57.9687 36.7656 60.9687 38.2188 63.125 42.0312L58 45.3125C56.875 43.2969 55.6562 42.5 53.7656 42.5C51.8437 42.5 50.625 43.7188 50.625 45.3125C50.625 47.2813 51.8438 48.0781 54.6719 49.3125L56.3125 50.0156C61.9063 52.4063 65.0469 54.8594 65.0469 60.3594C65.0469 66.2656 60.3906 69.5156 54.1562 69.5156Z" fill="#F0D637"/>
</g>
<defs>
<clipPath id="clip0_153_335">
<rect width="70" height="80" fill="white" transform="translate(0.5)"/>
</clipPath>
</defs>
</svg>
