<svg width="128" height="128" viewBox="0 0 128 128" fill="none" xmlns="http://www.w3.org/2000/svg">
<g clip-path="url(#clip0_153_356)">
<path opacity="0.1" d="M115.035 38.4187C115.01 38.5194 115.01 38.6247 115.035 38.7254C115.035 38.7254 115.36 40.896 114.984 41.864L99.5843 82.776C98.4856 85.7867 99.9576 89.1307 102.91 90.2774C105.859 91.424 109.134 89.9467 110.31 86.96L125.71 46.0507C126.008 45.2587 127.736 43.704 127.736 43.704C127.809 43.633 127.875 43.5553 127.934 43.472V43.4454C127.934 43.4214 127.96 43.4214 127.96 43.3947C128.36 42.3494 125.784 40.36 122.235 38.9547C118.686 37.552 115.462 37.272 115.062 38.3414C115.062 38.3414 115.035 38.368 115.035 38.4214V38.4187Z" fill="black"/>
<path d="M114.587 38.0611C114.562 38.1618 114.562 38.2671 114.587 38.3677C114.587 38.3677 114.913 40.5384 114.537 41.5064L99.1367 82.4157C98.0381 85.4291 99.5127 88.7731 102.462 89.9197C105.414 91.0664 108.689 89.5891 109.862 86.6024L125.262 45.6931C125.563 44.9011 127.289 43.3464 127.289 43.3464C127.362 43.2754 127.428 43.1977 127.486 43.1144V43.0877C127.486 43.0637 127.513 43.0637 127.513 43.0371C127.913 41.9917 125.337 40.0024 121.787 38.5971C118.238 37.1944 115.014 36.9144 114.614 37.9837C114.614 38.0104 114.614 38.0344 114.587 38.0611Z" fill="url(#paint0_linear_153_356)"/>
<path d="M119.439 56.5653L108.313 86.0666C107.487 88.1866 105.113 89.2826 102.988 88.44C100.863 87.6 99.7374 85.1226 100.513 83.0053L107.612 64.144C107.612 64.144 108.489 62.6906 110.239 61.6453C111.988 60.5973 113.412 60.8266 115.337 59.96C117.287 59.0906 119.439 56.5653 119.439 56.5653Z" fill="url(#paint1_linear_153_356)"/>
<path d="M124.827 42.1867C125.051 41.5947 123.456 40.416 121.267 39.5547C119.08 38.6907 117.123 38.4693 116.901 39.0613C116.68 39.6507 118.275 40.8293 120.464 41.6907C122.653 42.5547 124.608 42.776 124.829 42.184L124.827 42.1867Z" fill="#333333"/>
<path opacity="0.3" d="M114.48 38.3653C114.48 38.3653 114.803 40.528 114.432 41.496L99.1332 82.2907C98.0399 85.2933 99.5065 88.6267 102.435 89.7733C102.933 89.976 103.453 90.104 103.976 90.128C102.995 89.3653 102.28 88.2987 101.936 87.088C101.592 85.8773 101.637 84.592 102.064 83.408L117.064 43.4293C117.064 43.4293 115.003 41.4693 114.48 38.3627V38.3653Z" fill="#0A0909"/>
<g opacity="0.5">
<path opacity="0.5" d="M109.562 65.1386C109.621 65.138 109.68 65.1255 109.735 65.1021C109.79 65.0787 109.839 65.0447 109.881 65.0021C109.922 64.9595 109.955 64.9091 109.977 64.8539C109.999 64.7986 110.01 64.7395 110.01 64.68C110.01 64.6204 109.999 64.5614 109.977 64.5061C109.955 64.4508 109.922 64.4004 109.881 64.3579C109.839 64.3153 109.79 64.2813 109.735 64.2579C109.68 64.2344 109.621 64.222 109.562 64.2213C109.442 64.2234 109.328 64.2728 109.244 64.3588C109.161 64.4447 109.115 64.5602 109.116 64.68C109.115 64.7998 109.161 64.9152 109.244 65.0012C109.328 65.0871 109.442 65.1365 109.562 65.1386ZM112.468 68.6506C112.839 68.6506 113.14 68.3413 113.14 67.9626C113.14 67.584 112.839 67.2746 112.468 67.2746C112.098 67.2746 111.799 67.584 111.799 67.9626C111.799 68.3413 112.098 68.6506 112.468 68.6506ZM108.023 73.1786C108.722 73.1786 109.29 72.5973 109.29 71.8826C109.29 71.168 108.722 70.584 108.023 70.584C107.322 70.584 106.756 71.1653 106.756 71.8826C106.756 72.6 107.322 73.1786 108.023 73.1786ZM105.986 74.96C106.356 74.96 106.658 74.6533 106.658 74.2746C106.658 73.896 106.356 73.5866 105.986 73.5866C105.615 73.5866 105.316 73.8933 105.316 74.2746C105.316 74.656 105.615 74.96 105.986 74.96ZM108.644 79.8213C108.764 79.8192 108.878 79.7698 108.962 79.6838C109.045 79.5979 109.091 79.4824 109.09 79.3626C109.09 79.2433 109.044 79.1285 108.961 79.0432C108.877 78.9578 108.764 78.9088 108.644 78.9066C108.525 78.9081 108.41 78.9568 108.326 79.0422C108.242 79.1277 108.196 79.2429 108.196 79.3626C108.196 79.4222 108.207 79.4813 108.229 79.5365C108.251 79.5918 108.284 79.6422 108.325 79.6848C108.367 79.7274 108.417 79.7613 108.471 79.7848C108.526 79.8082 108.585 79.8206 108.644 79.8213Z" fill="#0A0909"/>
</g>
<path opacity="0.1" d="M30.1594 62.16C30.8367 62.72 32.0607 62.3894 32.8874 61.472C33.762 60.5067 33.8874 59.2587 33.2127 58.6987C32.5354 58.1387 31.3114 58.4694 30.4874 59.4374C29.6127 60.4027 29.458 61.624 30.1594 62.16ZM28.138 63.968C27.962 63.968 27.6367 64.2987 27.9114 64.424C28.2847 64.552 28.4607 64.8827 28.4607 65.3414C28.138 67.2507 25.8127 69.4133 24.914 70.152C24.6874 70.3787 25.0127 70.888 25.2367 70.712C25.7354 70.304 26.786 69.464 27.6367 68.344C26.2367 71.5254 23.4874 75.648 22.4367 77.0987C18.338 82.8747 12.1114 88.192 7.83671 88.192C6.17505 88.2046 4.56319 87.6251 3.28983 86.5575C2.01648 85.4898 1.16481 84.0037 0.887382 82.3653C0.836715 81.984 0.338049 81.9094 0.436715 82.4187C1.21005 87.176 4.81005 89.032 9.16205 89.032C13.9354 89.032 19.5354 85.5227 22.6367 81.9094C27.6367 76.08 30.8607 69.3627 30.0127 65.5707C29.6607 64.1707 28.6874 63.9414 28.138 63.968ZM58.8607 76.6667C60.186 76.336 61.2607 75.5974 61.2607 74.4267C61.2607 74.2987 61.0367 74.2987 61.0367 74.4267C61.0367 75.1147 60.2607 75.6987 59.3834 75.8267C57.3354 76.1574 53.2847 73.7147 51.3834 71.1947C53.4367 71.984 57.61 70.8374 59.586 69.3867C61.41 68.0374 62.1354 66.5627 62.2607 65.3654C62.4847 63.3814 60.3594 62.2107 57.386 63.3814C55.4847 64.1707 53.21 65.8747 50.8367 69.0827C53.3354 64.8827 58.2607 58.0107 63.0847 53.6347C68.9594 48.3147 72.3594 49.3334 67.0847 54.984C64.9114 57.2987 60.81 60.3014 57.986 61.6C57.1114 61.9814 57.5354 62.4907 58.162 62.2134C61.1594 60.8614 65.1594 58.088 67.586 55.7734C74.7327 48.7734 68.7594 43.5067 60.8607 50.912C55.4847 55.952 51.986 61.2187 48.9354 68.064C47.8874 69.3627 47.1114 70.432 46.162 71.2453C46.0367 71.3467 45.962 71.448 45.8874 71.552C43.2607 73.84 39.1354 76.9467 36.562 76.9707C34.7354 77.024 33.962 75.6214 34.2874 73.816C34.786 70.9894 37.6607 67.656 40.1114 66.5094C43.2847 65.0347 45.162 67.912 40.986 70.2027C39.386 71.0427 37.4874 71.4987 36.7114 71.4987C35.8127 71.4987 35.8847 71.8827 36.6607 71.9067C37.9354 71.96 39.986 71.4 41.3354 70.76C45.61 68.6747 45.8874 64.7814 41.2367 64.6534C36.186 64.4747 30.1354 68.8534 30.186 74.376C30.2367 76.8694 32.186 78.216 34.8607 78.216C39.3354 78.168 43.3114 74.7067 46.586 71.6534C47.0607 71.2454 47.5114 70.8134 47.962 70.3547C46.81 73.3067 46.2367 76.056 46.5114 78.0907C46.6874 79.568 47.5114 80.2534 48.162 80.8134C48.2874 80.9147 48.562 80.8134 48.386 80.5334C47.4367 79.3867 47.7114 75.952 49.01 72.6187C50.1114 74.8587 54.386 77.6854 58.8607 76.6667ZM53.4847 67.0214C58.7114 62.2614 60.7594 66.512 57.4367 69.1067C55.7114 70.456 52.2847 71.4747 51.21 70.8134L50.986 70.6854C50.8607 70.456 50.7114 70.2267 50.6127 69.9974C51.4847 68.904 52.4847 67.936 53.4847 67.0214ZM82.5354 61.6C84.634 61.8294 83.762 59.2347 81.634 59.8934C80.6847 60.176 79.7594 62.032 79.0847 63.6374C76.986 66.816 73.4847 71.168 71.034 73.4587C68.8607 75.368 66.8607 75.8774 69.3114 72.312C70.3114 70.888 71.586 69.3627 72.3114 67.8347C74.034 63.9947 70.3594 62.288 67.386 64.6027C65.6607 65.952 63.3354 68.7253 61.5114 70.2533C61.01 70.6587 61.1354 71.2694 61.6367 70.864C63.0847 69.6667 65.6367 66.9174 67.8367 65.3174C69.6607 63.8907 70.386 64.808 69.3354 66.0027C67.8847 67.7094 65.3354 70.6854 64.6847 72.568C63.786 75.3947 64.8607 76.64 66.6847 76.64C69.186 76.64 72.9114 72.6694 75.41 69.5147C76.2367 68.448 77.1354 67.2 77.9114 66.0027C75.7354 70.304 73.458 74.656 70.634 78.6C66.634 84.1467 61.6367 88.3227 56.8847 88.3227C55.2171 88.3363 53.5988 87.758 52.3175 86.6906C51.0363 85.6232 50.1751 84.136 49.8874 82.4934C49.834 82.112 49.386 82.0347 49.434 82.5467C50.21 87.304 53.81 89.16 58.1594 89.16C62.9354 89.16 67.5354 86.336 70.7594 82.8747C77.2607 75.8773 78.034 68.0134 80.034 63.6107C80.986 61.6 81.834 61.5254 82.5354 61.6ZM108.983 54.88C109.935 53.2267 109.885 51.9307 107.658 51.9307C105.983 51.9814 102.935 53.176 101.509 54.296C101.183 54.6267 101.335 54.8027 101.735 54.6267C102.01 54.5254 102.335 54.3467 102.634 54.2187C104.234 53.328 103.583 55.1867 103.234 55.872C101.335 59.2587 97.9594 64.0187 96.1834 66.384C95.3426 67.5396 94.4334 68.6438 93.4607 69.6907C91.7594 71.3467 88.386 74.2747 85.8074 75.24C77.5354 78.3947 88.0847 64.0427 88.9594 62.872C90.9087 60.3787 95.2847 56.0267 96.61 53.8373C97.5594 52.184 97.5087 50.8854 95.2847 50.8854C93.61 50.9387 90.5594 52.1334 89.1354 53.2534C88.81 53.584 88.9594 53.76 89.3594 53.584C89.634 53.4827 89.9594 53.304 90.2607 53.176C91.8607 52.2854 91.21 54.144 90.8607 54.8294C88.9594 58.216 85.586 62.9734 83.81 65.3414C82.3594 67.3254 80.5834 69.312 79.21 70.4293C78.6607 70.888 78.986 71.3227 79.5354 70.9387C80.034 70.608 80.762 69.872 81.586 69.0054C80.0847 72.0587 78.8607 76.36 82.81 76.8694C86.186 77.328 90.186 73.84 92.7834 71.2427L93.7087 70.304L93.9354 70.0747C92.434 73.128 91.21 77.4294 95.1594 77.9387C99.4847 78.5494 104.858 72.6187 106.935 70.4293C107.335 70.024 107.21 69.3094 106.535 70.024C105.309 71.3227 101.159 75.1653 98.1594 76.3093C89.8847 79.464 100.434 65.1094 101.309 63.9414C103.282 61.3974 107.658 57.0427 108.983 54.88Z" fill="black"/>
<path d="M29.7123 61.728C30.3869 62.288 31.6136 61.9573 32.4376 61.04C33.3123 60.0747 33.4376 58.8267 32.7629 58.2667C32.0883 57.7067 30.8616 58.0373 30.0376 59.0053C29.1629 59.9733 29.0376 61.168 29.7123 61.728ZM27.7123 63.536C27.5363 63.536 27.2136 63.8667 27.4883 63.992C27.8616 64.12 28.0376 64.4507 28.0376 64.9093C27.7123 66.8187 25.3869 68.9813 24.4883 69.72C24.2616 69.9493 24.5869 70.456 24.8136 70.28C25.3123 69.872 26.3603 69.032 27.2136 67.912C25.8136 71.0933 23.0616 75.216 22.0136 76.6667C17.9123 82.4427 11.6883 87.76 7.4136 87.76C5.75232 87.7727 4.14077 87.1936 2.86747 86.1265C1.59418 85.0594 0.742266 83.5739 0.464265 81.936C0.410932 81.552 -0.0877346 81.4773 0.010932 81.9867C0.789599 86.744 4.3896 88.6 8.73893 88.6C13.5123 88.6 19.1123 85.0907 22.2136 81.4773C27.2109 75.648 30.4376 68.9307 29.5869 65.1387C29.2136 63.712 28.2616 63.4853 27.7123 63.536ZM58.4109 76.2347C59.7363 75.904 60.8109 75.1653 60.8109 73.9947C60.8109 73.8667 60.5869 73.8667 60.5869 73.9947C60.5869 74.6827 59.8136 75.2667 58.9363 75.3947C56.8856 75.7253 52.8376 73.2827 50.9363 70.7627C52.9869 71.552 57.1603 70.4053 59.1363 68.9547C60.9603 67.608 61.6856 66.1307 61.8109 64.9333C62.0349 62.9493 59.9123 61.7787 56.9363 62.9493C55.0376 63.7387 52.7603 65.4427 50.3869 68.6507C52.8856 64.4507 57.8109 57.5787 62.6376 53.2027C68.5123 47.8827 71.9096 48.9013 66.6376 54.552C64.4616 56.8667 60.3603 59.8693 57.5363 61.168C56.6616 61.5493 57.0856 62.0587 57.7123 61.7813C60.7123 60.4293 64.7123 57.656 67.1363 55.3413C74.2856 48.3413 68.3096 43.0747 60.4109 50.48C55.0376 55.4933 51.5363 60.7867 48.4856 67.632C47.4376 68.9307 46.6616 70 45.7123 70.8133C45.5869 70.9147 45.5123 71.016 45.4376 71.12C42.8109 73.408 38.6883 76.5147 36.1123 76.5387C34.2883 76.592 33.5123 75.1893 33.8376 73.384C34.3363 70.5573 37.2109 67.224 39.6616 66.0773C42.8349 64.6027 44.7123 67.48 40.5363 69.7707C38.9363 70.6107 37.0376 71.0667 36.2616 71.0667C35.3629 71.0667 35.4349 71.4507 36.2109 71.4747C37.4856 71.528 39.5363 70.968 40.8883 70.328C45.1629 68.2427 45.4376 64.3493 40.7869 64.2213C35.7363 64.0427 29.6883 68.4213 29.7363 73.944C29.7896 76.4373 31.7363 77.784 34.4136 77.784C38.8883 77.736 42.8616 74.2747 46.1363 71.2213C46.6109 70.8133 47.0616 70.3813 47.5123 69.9227C46.3629 72.8747 45.7869 75.624 46.0616 77.6587C46.2376 79.136 47.0616 79.8213 47.7123 80.3813C47.8376 80.4827 48.1123 80.3813 47.9363 80.1013C46.9869 78.9547 47.2616 75.5227 48.5629 72.1867C49.6856 74.4267 53.9603 77.2533 58.4109 76.2347ZM53.0403 66.5627C58.2643 61.8053 60.3149 66.056 56.9869 68.6507C55.2643 70 51.8403 71.016 50.7656 70.3573L50.5389 70.2267C50.4136 70 50.2643 69.7707 50.1656 69.5413C51.0403 68.472 52.0403 67.48 53.0403 66.5627ZM82.0883 61.168C84.1869 61.3973 83.3149 58.8027 81.1896 59.4613C80.2376 59.744 79.3123 61.6 78.6376 63.2053C76.5389 66.3867 73.0376 70.736 70.5896 73.0267C68.4136 74.936 66.4136 75.4453 68.8643 71.88C69.8643 70.456 71.1389 68.9307 71.8643 67.4027C73.5896 63.5627 69.9149 61.856 66.9389 64.1707C65.2136 65.52 62.8883 68.2933 61.0643 69.8213C60.5656 70.2293 60.6909 70.84 61.1896 70.432C62.6403 69.2347 65.1896 66.4853 67.3896 64.8853C69.2136 63.4587 69.9389 64.376 68.8883 65.5707C67.4403 67.2773 64.8883 70.2533 64.2403 72.136C63.3389 74.9627 64.4136 76.208 66.2403 76.208C68.7389 76.208 72.4643 72.24 74.9629 69.0827C75.7896 68.016 76.6883 66.768 77.4643 65.5707C75.2883 69.872 73.0136 74.224 70.1896 78.168C66.1896 83.7147 61.1896 87.8907 56.4403 87.8907C54.7724 87.9044 53.1537 87.3262 51.872 86.2589C50.5902 85.1915 49.7286 83.7042 49.4403 82.0613C49.3869 81.68 48.9389 81.6027 48.9896 82.1147C49.7629 86.872 53.3629 88.728 57.7149 88.728C62.4883 88.728 67.0883 85.904 70.3149 82.4427C76.8136 75.4453 77.5896 67.5813 79.5896 63.1787C80.5389 61.168 81.4136 61.0667 82.0883 61.168ZM108.534 54.424C109.486 52.7707 109.435 51.472 107.211 51.472C105.534 51.5253 102.486 52.72 101.059 53.84C100.736 54.1707 100.886 54.3467 101.286 54.1707C101.56 54.0693 101.886 53.8907 102.184 53.7627C103.784 52.872 103.136 54.7307 102.784 55.416C100.886 58.8027 97.5096 63.56 95.7363 65.928C94.8936 67.0853 93.9816 68.1893 93.0109 69.2347C91.3096 70.888 87.9363 73.816 85.3603 74.7813C77.0856 77.9387 87.6349 63.5867 88.5096 62.416C90.4616 59.92 94.8349 55.5707 96.1603 53.3813C97.1096 51.728 97.0589 50.4293 94.8349 50.4293C93.1603 50.48 90.1096 51.6747 88.6856 52.7947C88.3603 53.1253 88.5096 53.304 88.9096 53.1253C89.1843 53.024 89.5096 52.8453 89.8109 52.72C91.4109 51.8293 90.7603 53.6853 90.4109 54.3733C88.5096 57.76 85.1363 62.5173 83.3603 64.8827C81.9096 66.8693 80.1336 68.856 78.7603 69.976C78.2109 70.4293 78.5363 70.864 79.0856 70.4827C79.5869 70.152 80.3123 69.416 81.1363 68.5493C79.6349 71.6027 78.4109 75.904 82.3629 76.4133C85.7363 76.8693 89.7363 73.384 92.3363 70.7867L93.2616 69.8453L93.4856 69.616C91.9843 72.672 90.7603 76.9707 94.7123 77.4827C99.0349 78.0907 104.411 72.1627 106.486 69.9733C106.886 69.5653 106.76 68.8533 106.086 69.5653C104.859 70.864 100.71 74.7067 97.7123 75.8533C89.4349 79.008 99.9843 64.6533 100.859 63.4827C102.859 60.9387 107.211 56.5867 108.534 54.424Z" fill="url(#paint2_linear_153_356)"/>
</g>
<defs>
<linearGradient id="paint0_linear_153_356" x1="107.046" y1="49.8531" x2="120.354" y2="51.3948" gradientUnits="userSpaceOnUse">
<stop stop-color="white"/>
<stop offset="1" stop-color="#D5D5D5"/>
</linearGradient>
<linearGradient id="paint1_linear_153_356" x1="106.247" y1="63.6506" x2="114.32" y2="64.7767" gradientUnits="userSpaceOnUse">
<stop stop-color="#A00900"/>
<stop offset="1" stop-color="#E71300"/>
</linearGradient>
<linearGradient id="paint2_linear_153_356" x1="0.000265042" y1="88.6736" x2="0.000265042" y2="46.8907" gradientUnits="userSpaceOnUse">
<stop stop-color="#353535"/>
<stop offset="0.403" stop-color="#4A4A4C"/>
<stop offset="1" stop-color="#353535"/>
</linearGradient>
<clipPath id="clip0_153_356">
<rect width="128" height="128" fill="white"/>
</clipPath>
</defs>
</svg>
