<svg width="359" height="62" viewBox="0 0 359 62" fill="none" xmlns="http://www.w3.org/2000/svg">
<path d="M15.097 33.926C16.0566 32.8856 17.0381 31.802 18.0414 30.6749C19.0883 29.5479 20.0915 28.4425 21.0512 27.3588C22.0109 26.2318 22.9051 25.1697 23.7339 24.1727C24.6063 23.1757 25.3479 22.3088 25.9586 21.5718H37.54C35.228 24.2161 32.9597 26.7519 30.7351 29.1794C28.554 31.5635 26.1549 34.0343 23.5376 36.5918C24.8462 37.7623 26.1985 39.1711 27.5944 40.8183C28.9902 42.4222 30.3425 44.091 31.6511 45.8249C32.9597 47.5589 34.1593 49.2928 35.2499 51.0267C36.3404 52.7606 37.2564 54.3428 37.998 55.7733H26.8092C26.1112 54.6462 25.3043 53.4108 24.3882 52.067C23.5158 50.6799 22.5779 49.3144 21.5747 47.9706C20.5714 46.5835 19.5027 45.2614 18.3685 44.0043C17.278 42.7473 16.1875 41.6852 15.097 40.8183V55.7733H5.34766V6.87694L15.097 5.31641V33.926Z" fill="#3972E7"/>
<path d="M71.9149 54.6028C70.2573 55.0796 68.1198 55.5131 65.5026 55.9032C62.8853 56.3367 60.1372 56.5535 57.2582 56.5535C54.3356 56.5535 51.8928 56.1633 49.9299 55.3831C48.0106 54.6028 46.4838 53.5191 45.3497 52.132C44.2155 50.7015 43.4086 49.0109 42.9287 47.0603C42.4489 45.1097 42.209 42.9639 42.209 40.6231V21.5718H51.9583V39.4527C51.9583 42.5738 52.3727 44.8279 53.2015 46.215C54.0303 47.6021 55.5788 48.2957 57.8471 48.2957C58.545 48.2957 59.2866 48.274 60.0718 48.2307C60.857 48.144 61.5549 48.0573 62.1656 47.9706V21.5718H71.9149V54.6028Z" fill="#3972E7"/>
<path d="M103.181 38.4125C103.181 32.1704 100.869 29.0494 96.2455 29.0493C95.2422 29.0494 94.239 29.1794 93.2357 29.4395C92.276 29.6996 91.4908 30.0247 90.8802 30.4148V48.0357C91.36 48.1224 91.9707 48.2091 92.7122 48.2958C93.4538 48.3391 94.2608 48.3608 95.1332 48.3608C97.7941 48.3608 99.8006 47.4505 101.153 45.6299C102.505 43.8093 103.181 41.4035 103.181 38.4125ZM113.127 38.6725C113.127 41.4035 112.712 43.8743 111.884 46.085C111.098 48.2958 109.943 50.1814 108.416 51.7419C106.889 53.3024 105.013 54.5162 102.789 55.3831C100.564 56.2067 98.034 56.6185 95.1986 56.6185C94.0209 56.6185 92.7777 56.5535 91.469 56.4235C90.204 56.3368 88.939 56.2067 87.674 56.0334C86.4526 55.86 85.2749 55.6649 84.1407 55.4482C83.0066 55.1881 82.0033 54.928 81.1309 54.6679V6.87694L90.8802 5.31641V22.3521C91.9707 21.8753 93.1048 21.5069 94.2826 21.2467C95.4603 20.9867 96.7254 20.8566 98.0776 20.8566C100.52 20.8566 102.68 21.2901 104.555 22.157C106.431 22.9807 108.001 24.1727 109.266 25.7332C110.531 27.2938 111.491 29.1794 112.145 31.3901C112.8 33.5575 113.127 35.985 113.127 38.6725Z" fill="#3972E7"/>
<path d="M118.984 38.9326C118.984 35.8983 119.442 33.2541 120.358 30.9999C121.318 28.7025 122.561 26.7952 124.088 25.278C125.615 23.7609 127.36 22.6122 129.323 21.8319C131.329 21.0517 133.379 20.6615 135.473 20.6615C140.359 20.6615 144.219 22.157 147.055 25.148C149.89 28.0957 151.308 32.4521 151.308 38.2174C151.308 38.7809 151.286 39.4094 151.242 40.103C151.198 40.7532 151.155 41.3384 151.111 41.8586H128.995C129.213 43.8526 130.151 45.4348 131.809 46.6052C133.467 47.7756 135.691 48.3608 138.483 48.3608C140.271 48.3608 142.016 48.209 143.718 47.9056C145.462 47.5588 146.88 47.147 147.971 46.6702L149.279 54.5378C148.756 54.7979 148.058 55.058 147.185 55.3181C146.313 55.5782 145.331 55.7949 144.241 55.9683C143.194 56.185 142.06 56.3584 140.839 56.4885C139.617 56.6185 138.396 56.6835 137.174 56.6835C134.077 56.6835 131.373 56.2284 129.061 55.3181C126.793 54.4078 124.895 53.1724 123.368 51.6118C121.885 50.008 120.773 48.1223 120.031 45.9549C119.333 43.7876 118.984 41.4468 118.984 38.9326ZM141.885 35.2264C141.842 34.4028 141.689 33.6008 141.427 32.8206C141.209 32.0403 140.838 31.3468 140.315 30.7399C139.835 30.133 139.203 29.6345 138.418 29.2444C137.676 28.8543 136.738 28.6592 135.604 28.6592C134.513 28.6592 133.576 28.8543 132.79 29.2444C132.005 29.5912 131.351 30.068 130.827 30.6748C130.304 31.2817 129.89 31.997 129.584 32.8206C129.323 33.6008 129.126 34.4028 128.995 35.2264H141.885Z" fill="#3972E7"/>
<path d="M179.572 30.1547C178.699 29.938 177.674 29.7212 176.497 29.5044C175.319 29.2444 174.054 29.1143 172.702 29.1143C172.091 29.1143 171.349 29.1794 170.477 29.3094C169.648 29.3961 169.016 29.5045 168.579 29.6345V55.7732H158.83V23.3924C160.575 22.7856 162.625 22.2221 164.981 21.7019C167.38 21.1384 170.041 20.8566 172.963 20.8566C173.487 20.8566 174.119 20.9 174.861 20.9866C175.602 21.03 176.344 21.1167 177.085 21.2467C177.827 21.3334 178.569 21.4635 179.31 21.6368C180.052 21.7669 180.684 21.9403 181.208 22.157L179.572 30.1547Z" fill="#3972E7"/>
<path d="M186.434 22.7423C188.091 22.2655 190.229 21.832 192.846 21.4418C195.463 21.0084 198.211 20.7917 201.09 20.7916C204.013 20.7917 206.434 21.1818 208.353 21.962C210.316 22.699 211.865 23.761 212.999 25.1481C214.133 26.5352 214.94 28.1825 215.42 30.0897C215.9 31.9971 216.139 34.1211 216.14 36.4619V55.7733H206.39V37.6322C206.39 34.5112 205.976 32.3005 205.147 31C204.318 29.6996 202.77 29.0494 200.501 29.0494C199.803 29.0494 199.062 29.0928 198.277 29.1794C197.492 29.2228 196.794 29.2878 196.183 29.3745V55.7733H186.434V22.7423Z" fill="#3972E7"/>
<path d="M223.393 38.9326C223.393 35.8983 223.851 33.2541 224.767 30.9999C225.726 28.7025 226.97 26.7952 228.496 25.278C230.023 23.7609 231.768 22.6122 233.731 21.8319C235.737 21.0517 237.788 20.6615 239.881 20.6615C244.767 20.6615 248.627 22.157 251.463 25.148C254.298 28.0957 255.716 32.4521 255.716 38.2174C255.716 38.7809 255.694 39.4094 255.65 40.103C255.607 40.7532 255.563 41.3384 255.519 41.8586H233.404C233.622 43.8526 234.56 45.4348 236.217 46.6052C237.875 47.7756 240.099 48.3608 242.891 48.3608C244.68 48.3608 246.424 48.209 248.126 47.9056C249.871 47.5588 251.288 47.147 252.379 46.6702L253.687 54.5378C253.164 54.7979 252.466 55.058 251.594 55.3181C250.721 55.5782 249.74 55.7949 248.649 55.9683C247.602 56.185 246.468 56.3584 245.247 56.4885C244.025 56.6185 242.804 56.6835 241.583 56.6835C238.485 56.6835 235.781 56.2284 233.469 55.3181C231.201 54.4078 229.303 53.1724 227.776 51.6118C226.293 50.008 225.181 48.1223 224.439 45.9549C223.742 43.7876 223.393 41.4468 223.393 38.9326ZM246.294 35.2264C246.25 34.4028 246.097 33.6008 245.836 32.8206C245.617 32.0403 245.247 31.3468 244.723 30.7399C244.243 30.133 243.611 29.6345 242.826 29.2444C242.084 28.8543 241.146 28.6592 240.012 28.6592C238.922 28.6592 237.984 28.8543 237.199 29.2444C236.413 29.5912 235.759 30.068 235.236 30.6748C234.712 31.2817 234.298 31.997 233.993 32.8206C233.731 33.6008 233.534 34.4028 233.404 35.2264H246.294Z" fill="#3972E7"/>
<path d="M262.912 13.054L272.661 11.4935V21.5719H284.374V29.6346H272.661V41.6636C272.661 43.701 273.01 45.3265 273.708 46.5402C274.45 47.754 275.911 48.3608 278.092 48.3608C279.139 48.3608 280.208 48.2741 281.298 48.1008C282.433 47.884 283.458 47.6023 284.374 47.2555L285.748 54.798C284.57 55.2748 283.261 55.6866 281.822 56.0334C280.382 56.3802 278.616 56.5536 276.522 56.5536C273.861 56.5536 271.658 56.2068 269.913 55.5132C268.168 54.7763 266.773 53.7793 265.726 52.5222C264.679 51.2218 263.937 49.6613 263.501 47.8407C263.108 46.0201 262.912 44.0044 262.912 41.7936V13.054Z" fill="#3972E7"/>
<path d="M289.336 38.9326C289.336 35.8983 289.794 33.2541 290.71 30.9999C291.67 28.7025 292.913 26.7952 294.44 25.278C295.966 23.7609 297.711 22.6122 299.674 21.8319C301.681 21.0517 303.731 20.6615 305.825 20.6615C310.71 20.6615 314.571 22.157 317.406 25.148C320.241 28.0957 321.659 32.4521 321.659 38.2174C321.659 38.7809 321.637 39.4094 321.594 40.103C321.55 40.7532 321.506 41.3384 321.463 41.8586H299.347C299.565 43.8526 300.503 45.4348 302.161 46.6052C303.818 47.7756 306.043 48.3608 308.835 48.3608C310.623 48.3608 312.368 48.209 314.069 47.9056C315.814 47.5588 317.232 47.147 318.322 46.6702L319.631 54.5378C319.107 54.7979 318.409 55.058 317.537 55.3181C316.664 55.5782 315.683 55.7949 314.593 55.9683C313.546 56.185 312.411 56.3584 311.19 56.4885C309.969 56.6185 308.747 56.6835 307.526 56.6835C304.429 56.6835 301.724 56.2284 299.412 55.3181C297.144 54.4078 295.247 53.1724 293.72 51.6118C292.237 50.008 291.124 48.1223 290.383 45.9549C289.685 43.7876 289.336 41.4468 289.336 38.9326ZM312.237 35.2264C312.193 34.4028 312.041 33.6008 311.779 32.8206C311.561 32.0403 311.19 31.3468 310.667 30.7399C310.187 30.133 309.554 29.6345 308.769 29.2444C308.028 28.8543 307.09 28.6592 305.956 28.6592C304.865 28.6592 303.927 28.8543 303.142 29.2444C302.357 29.5912 301.702 30.068 301.179 30.6748C300.656 31.2817 300.241 31.997 299.936 32.8206C299.674 33.6008 299.478 34.4028 299.347 35.2264H312.237Z" fill="#3972E7"/>
<path d="M339.063 48.8159C340.851 48.8159 342.116 48.6425 342.858 48.2957C343.599 47.949 343.97 47.2771 343.97 46.2801C343.97 45.4998 343.49 44.8279 342.531 44.2644C341.571 43.6575 340.11 42.9856 338.147 42.2487C336.62 41.6852 335.224 41.1 333.959 40.4931C332.738 39.8863 331.691 39.171 330.818 38.3474C329.946 37.4805 329.27 36.4618 328.79 35.2914C328.31 34.121 328.07 32.7122 328.07 31.065C328.07 27.8573 329.27 25.3214 331.669 23.4574C334.068 21.5935 337.362 20.6615 341.549 20.6615C343.643 20.6615 345.65 20.8566 347.569 21.2467C349.488 21.5935 351.015 21.9836 352.149 22.4171L350.448 29.9596C349.314 29.5695 348.071 29.2227 346.718 28.9193C345.41 28.6158 343.927 28.4641 342.269 28.4641C339.215 28.4641 337.689 29.3094 337.689 30.9999C337.689 31.3901 337.754 31.7369 337.885 32.0403C338.016 32.3438 338.278 32.6472 338.67 32.9506C339.063 33.2107 339.586 33.5141 340.241 33.8609C340.939 34.1644 341.811 34.5111 342.858 34.9013C344.995 35.6815 346.762 36.4618 348.158 37.242C349.554 37.979 350.644 38.8026 351.429 39.7129C352.258 40.5798 352.825 41.5552 353.131 42.6388C353.48 43.7225 353.654 44.9796 353.654 46.4101C353.654 49.7912 352.367 52.3487 349.794 54.0827C347.264 55.8166 343.665 56.6835 338.997 56.6835C335.944 56.6835 333.392 56.4234 331.342 55.9033C329.335 55.3831 327.939 54.9496 327.154 54.6028L328.79 46.7352C330.448 47.3854 332.149 47.9056 333.894 48.2957C335.639 48.6425 337.362 48.8159 339.063 48.8159Z" fill="#3972E7"/>
</svg>
