<svg width="81" height="82" viewBox="0 0 81 82" fill="none" xmlns="http://www.w3.org/2000/svg">
<g clip-path="url(#clip0_153_388)">
<path d="M0.5 1.28979L73.5325 70.598C73.5325 70.598 74.9125 72.5495 73.13 74.486C71.3475 76.4224 69.0025 74.7619 69.0025 74.7619L0.5 1.28979ZM22.1925 8.23808L78.9 61.0121C78.9 61.0121 80.2675 62.9637 78.4825 64.9001C76.695 66.8365 74.365 65.176 74.365 65.176L22.1925 8.23808ZM6.96 23.0965L63.65 75.8857C63.65 75.8857 65.03 77.8221 63.2475 79.7611C61.465 81.7127 59.135 80.037 59.135 80.037L6.96 23.0965ZM40.5275 14.2093L80.15 51.0845C80.15 51.0845 81.1125 52.4438 79.8625 53.8006C78.6125 55.1573 76.9825 54.0005 76.9825 54.0005L40.5275 14.2093ZM11.97 40.3141L51.5925 77.1893C51.5925 77.1893 52.5425 78.5461 51.2925 79.9028C50.0425 81.2621 48.43 80.1028 48.43 80.1028L11.97 40.3141ZM59.2625 22.8181L77.35 39.5344C77.35 39.5344 77.8175 40.1824 77.2075 40.8127C76.58 41.4481 75.775 40.9064 75.775 40.9064L59.2625 22.8181ZM21.1 58.6504L39.1725 75.3845C39.1725 75.3845 39.6525 76.0148 39.04 76.6476C38.4175 77.2956 37.61 76.7413 37.61 76.7413L21.1 58.6504Z" fill="#DE5453"/>
</g>
<defs>
<clipPath id="clip0_153_388">
<rect width="80" height="81" fill="white" transform="translate(0.5 0.5)"/>
</clipPath>
</defs>
</svg>
