<svg width="212" height="60" viewBox="0 0 212 60" fill="none" xmlns="http://www.w3.org/2000/svg">
<g clip-path="url(#clip0_153_344)">
<path fill-rule="evenodd" clip-rule="evenodd" d="M197.389 24.8476C197.198 24.8856 197.007 25.3029 197.007 25.5303C196.969 27.0472 196.931 31.0673 196.931 33.7977C196.931 33.8736 197.045 34.0252 197.16 34.0252C197.733 34.0631 199.108 34.1011 200.293 34.1011C201.936 34.1011 202.891 33.8736 203.426 33.6462C204.802 32.9635 205.451 31.4843 205.451 29.8535C205.451 26.175 202.853 24.7717 198.994 24.7717C198.726 24.7341 197.962 24.7341 197.389 24.8476ZM207.247 41.7997C207.247 38.0453 204.458 35.9593 199.414 35.9593C199.185 35.9593 197.58 35.9213 197.198 35.9973C197.083 36.0352 196.931 36.1112 196.931 36.2251C196.931 38.9175 196.892 43.2031 197.007 44.8714C197.083 45.5921 197.618 46.6161 198.268 46.9195C198.955 47.2988 200.522 47.3744 201.592 47.3744C204.611 47.3744 207.247 45.706 207.247 41.7997ZM189.594 22.762C189.976 22.762 191.122 22.8755 194.065 22.8755C196.854 22.8755 199.07 22.7999 201.783 22.7999C205.107 22.7999 209.693 23.9755 209.693 28.9054C209.693 31.3328 207.973 33.2669 205.719 34.215C205.604 34.253 205.604 34.3285 205.719 34.3665C208.928 35.1631 211.756 37.1352 211.756 40.8516C211.756 44.4925 209.464 46.8056 206.139 48.2469C204.114 49.119 201.592 49.4224 199.032 49.4224C197.083 49.4224 191.849 49.195 188.945 49.2709C188.639 49.157 189.212 47.7916 189.479 47.5642C190.167 47.5262 190.702 47.4883 191.428 47.2608C192.46 46.9954 192.574 46.692 192.727 45.1372C192.804 43.8098 192.804 39.107 192.804 35.7698C192.804 31.1809 192.842 28.0712 192.804 26.5543C192.766 25.3788 192.345 24.9995 191.505 24.7717C190.855 24.6581 189.785 24.5063 188.906 24.3927C188.715 24.2029 189.365 22.9135 189.594 22.762ZM167.547 46.3507C168.464 47.071 170.26 47.3744 171.864 47.3744C173.928 47.3744 175.991 46.9954 177.978 45.2128C180.003 43.3925 181.417 40.5862 181.417 36.1112C181.417 31.8256 179.774 28.3366 176.412 26.2889C174.501 25.113 172.055 24.6202 169.228 24.6202C168.387 24.6202 167.585 24.6581 167.088 24.8856C166.973 24.9615 166.706 25.3029 166.706 25.4923C166.63 26.251 166.63 32.091 166.63 35.5044C166.63 39.0314 166.63 43.9613 166.706 44.5301C166.706 45.0992 166.973 45.9714 167.547 46.3507ZM158.873 22.762C159.599 22.762 162.388 22.8755 163.726 22.8755C166.133 22.8755 167.852 22.762 172.399 22.762C176.22 22.762 179.43 23.786 181.723 25.7198C184.512 28.1092 185.964 31.4087 185.964 35.4285C185.964 41.155 183.327 44.4545 180.691 46.3507C178.055 48.2848 174.615 49.4224 169.725 49.4224C167.126 49.4224 162.656 49.3465 158.949 49.3085H158.911C158.72 48.9675 159.217 47.6401 159.522 47.6022C160.516 47.4883 160.783 47.4503 161.28 47.2608C162.082 46.9574 162.235 46.5402 162.35 45.1372C162.465 42.5204 162.426 39.3727 162.426 35.8078C162.426 33.2669 162.465 28.2986 162.388 26.7058C162.274 25.3788 161.701 25.0375 160.554 24.8097C159.981 24.6961 159.217 24.5442 158.147 24.4307C157.994 24.1649 158.682 22.9894 158.873 22.762Z" fill="#55AD49"/>
<path fill-rule="evenodd" clip-rule="evenodd" d="M112.639 47.8297C111.683 47.7158 110.995 47.5642 110.155 47.1849C110.04 47.109 109.849 46.7301 109.849 46.5782C109.772 45.2508 109.772 41.4584 109.772 38.9175C109.772 36.8695 109.429 35.0872 108.55 33.8357C107.518 32.3944 106.028 31.5602 104.117 31.5602C102.436 31.5602 100.182 32.6982 98.3094 34.291C98.2712 34.3286 97.9655 34.5943 98.0038 34.1771C98.0038 33.7598 98.0803 32.9256 98.1185 32.3568C98.1568 31.8257 97.8511 31.5602 97.8511 31.5602C96.6281 32.167 93.1892 32.9636 91.9283 33.0771C91.0113 33.2669 90.7822 34.1391 91.7374 34.4425H91.7757C92.8071 34.7459 93.4949 35.0872 94.0297 35.4285C94.4119 35.7319 94.3737 36.1492 94.3737 36.4905C94.4119 39.3348 94.4119 43.696 94.2975 46.0853C94.2593 47.0334 93.9918 47.3744 93.304 47.5263L93.3802 47.4883C92.8453 47.6022 92.4249 47.7158 91.7753 47.7917C91.5462 48.0191 91.5462 49.233 91.7753 49.4984C92.1957 49.4984 94.4119 49.3845 96.2463 49.3845C98.7681 49.3845 100.067 49.4984 100.717 49.4984C100.984 49.195 101.061 48.0571 100.908 47.7917C100.182 47.7537 99.6468 47.6781 99.1503 47.5263C98.4624 47.3744 98.2712 47.0334 98.2329 46.2368C98.1568 44.2268 98.1568 39.9795 98.1568 37.0973C98.1568 36.3007 98.3859 35.9214 98.6151 35.6939C99.4938 34.9357 100.908 34.4045 102.169 34.4045C103.391 34.4045 104.194 34.7838 104.805 35.277C105.646 35.9594 105.913 36.9454 106.028 37.6661C106.219 39.2968 106.143 42.5204 106.143 45.3267C106.143 46.8436 106.028 47.2229 105.455 47.4124C105.187 47.5263 104.5 47.6781 103.697 47.7537C103.43 48.0191 103.506 49.195 103.697 49.4604C104.805 49.4604 106.104 49.3465 108.015 49.3465C110.384 49.3465 111.912 49.4604 112.524 49.4604C112.715 49.233 112.792 48.133 112.639 47.8297ZM123.223 33.3429C121.198 33.3429 119.937 34.8977 119.937 37.3247C119.937 39.7897 121.045 42.634 124.178 42.634C124.713 42.634 125.706 42.4065 126.165 41.8757C126.891 41.193 127.388 39.8277 127.388 38.3867C127.388 35.2391 125.821 33.3429 123.223 33.3429ZM122.955 50.1051C122.191 50.1051 121.656 50.3326 121.312 50.5224C119.707 51.5461 118.981 52.5321 118.981 53.708C118.981 54.8076 119.401 55.6798 120.319 56.4384C121.427 57.3865 122.955 57.8417 124.904 57.8417C128.801 57.8417 130.521 55.7557 130.521 53.708C130.521 52.2667 129.795 51.3186 128.305 50.7878C127.235 50.3326 125.286 50.1051 122.955 50.1051ZM123.223 59.9654C120.892 59.9654 119.211 59.4722 117.759 58.3726C116.345 57.3106 115.733 55.7178 115.733 54.6182C115.733 54.3148 115.81 53.4802 116.498 52.722C116.918 52.2667 117.835 51.3946 120.013 49.9157C120.089 49.8777 120.128 49.8397 120.128 49.7638C120.128 49.6879 120.051 49.6119 119.975 49.5743C118.179 48.8916 117.644 47.7917 117.491 47.1849V47.109C117.453 46.8816 117.377 46.6541 117.72 46.4263C117.988 46.2368 118.37 46.0094 118.79 45.744C119.44 45.3647 120.128 44.9474 120.548 44.6061C120.624 44.5301 120.624 44.4546 120.624 44.3786C120.624 44.3027 120.548 44.2268 120.471 44.1892C117.797 43.3166 116.46 41.3445 116.46 38.3867C116.46 36.4526 117.338 34.7079 118.905 33.6083C119.975 32.7737 122.649 31.7501 124.407 31.7501H124.522C126.318 31.7877 127.311 32.167 128.725 32.6602C129.489 32.9256 130.215 33.0392 131.209 33.0392C132.699 33.0392 133.348 32.5843 133.883 32.0534C133.921 32.129 133.998 32.3189 134.036 32.8117C134.074 33.3049 133.921 34.0252 133.539 34.5564C133.234 34.9733 132.546 35.277 131.858 35.277H131.667C130.979 35.2011 130.674 35.1252 130.674 35.1252L130.521 35.2011C130.483 35.277 130.521 35.3526 130.559 35.4665L130.597 35.5424C130.674 35.8838 130.827 36.9074 130.827 37.1732C130.827 40.2829 129.566 41.6479 128.228 42.6719C126.929 43.62 125.439 44.2268 123.758 44.3786C123.719 44.3786 123.567 44.3786 123.223 44.4166C123.032 44.4166 122.764 44.4546 122.726 44.4546H122.688C122.382 44.5301 121.618 44.9095 121.618 45.5542C121.618 46.123 121.962 46.8056 123.605 46.9195C123.949 46.9575 124.292 46.9575 124.675 46.9955C126.853 47.147 129.566 47.3368 130.827 47.7537C132.584 48.3984 133.692 49.9533 133.692 51.8119C133.692 54.6182 131.667 57.235 128.305 58.8654C126.662 59.5861 125.019 59.9654 123.223 59.9654ZM145.003 33.5324C144.2 33.5324 143.474 33.7218 142.939 34.1011C141.449 35.0113 140.685 36.8319 140.685 39.4863C140.685 44.4546 143.207 47.9436 146.798 47.9436C147.868 47.9436 148.709 47.6402 149.435 47.0334C150.543 46.123 151.116 44.3027 151.116 41.7618C151.116 36.8319 148.632 33.5324 145.003 33.5324ZM145.691 49.7638C139.195 49.7638 136.864 45.0233 136.864 40.5863C136.864 37.4766 138.125 35.0872 140.647 33.3805C142.443 32.2809 144.582 31.6741 146.493 31.6741C151.46 31.6741 154.937 35.2011 154.937 40.2829C154.937 43.7339 153.562 46.4643 150.925 48.133C149.664 48.9672 147.487 49.7638 145.691 49.7638ZM77.5996 33.5324C76.797 33.5324 76.0712 33.7218 75.536 34.1011C74.046 35.0113 73.2816 36.8319 73.2816 39.4863C73.2816 44.4546 75.8035 47.9436 79.3953 47.9436C80.4653 47.9436 81.3058 47.6402 82.0319 47.0334C83.1398 46.123 83.7132 44.3027 83.7132 41.7618C83.7132 36.8319 81.2676 33.5324 77.5996 33.5324ZM78.2874 49.7638C71.7915 49.7638 69.4606 45.0233 69.4606 40.5863C69.4606 37.4766 70.7215 35.0872 73.2434 33.3805C75.0395 32.2809 77.1791 31.6741 79.0896 31.6741C84.0572 31.6741 87.5342 35.2011 87.5342 40.2829C87.5342 43.7339 86.1586 46.4643 83.522 48.133C82.2993 48.9672 80.1214 49.7638 78.2874 49.7638ZM34.6129 49.3845C34.5364 49.271 34.4599 48.9296 34.4981 48.5123C34.4981 48.209 34.5746 48.0191 34.6129 47.9436C35.4151 47.8297 35.8356 47.7158 36.2939 47.6022C37.0582 47.4124 37.3639 46.9955 37.4021 46.0474C37.5169 43.7719 37.5169 39.4483 37.4787 36.4526V36.3766C37.4787 36.0353 37.4787 35.618 37.0582 35.3146C36.4469 34.9357 35.7208 34.5943 34.7656 34.3286C34.4216 34.215 34.1925 34.0252 34.2307 33.7978C34.2307 33.5703 34.4599 33.3049 34.9568 33.229C36.2177 33.1151 39.5036 32.3189 40.8027 31.7501C40.8792 31.8257 40.994 32.0534 40.994 32.3568L40.9557 32.7737C40.9175 33.191 40.8792 33.6842 40.8792 34.1771C40.8792 34.3286 41.0322 34.4425 41.1849 34.4425C41.2614 34.4425 41.3379 34.4045 41.4144 34.3665C43.8597 32.4704 46.0759 31.7877 47.2221 31.7877C49.0947 31.7877 50.5465 32.6602 51.6548 34.4804C51.7309 34.5943 51.8074 34.632 51.9222 34.632C51.9987 34.632 52.1131 34.5943 52.1513 34.5184C54.4058 32.8117 56.6602 31.7877 58.1503 31.7877C61.7039 31.7877 63.8056 34.4045 63.8056 38.8416C63.8056 40.0931 63.8056 41.7238 63.7674 43.2031C63.7674 44.5301 63.7291 45.744 63.7291 46.6162C63.7291 46.8056 63.9965 47.4124 64.4169 47.5263C64.9518 47.7917 65.6779 47.9056 66.6331 48.0571H66.6714C66.7479 48.3225 66.5949 49.3086 66.4422 49.4984C66.2127 49.4984 65.8688 49.4984 65.487 49.4604C64.7609 49.4225 63.7291 49.3845 62.583 49.3845C60.2138 49.3845 58.9911 49.4225 57.8063 49.4984C57.7302 49.195 57.6919 48.2849 57.8063 48.0571C58.4942 47.9436 58.8381 47.8297 59.2585 47.7158C60.0229 47.4883 60.2138 47.147 60.252 46.1609C60.252 45.4406 60.4047 39.2968 60.1755 37.8176C59.9464 36.3007 58.7998 34.5184 56.278 34.5184C55.3228 34.5184 53.8327 34.8977 52.3805 35.9973C52.3043 36.0733 52.2278 36.2627 52.2278 36.3766V36.4146C52.3805 37.2108 52.3805 38.1213 52.3805 39.5243V41.9892C52.3805 43.696 52.3422 45.2888 52.3805 46.5023C52.3805 47.3368 52.8774 47.5263 53.2979 47.6781C53.527 47.7158 53.6797 47.7537 53.8709 47.7917C54.2149 47.8676 54.5588 47.9436 55.0936 48.0571C55.1701 48.209 55.1701 48.7018 55.0553 49.1191C55.0171 49.3465 54.9406 49.4604 54.9027 49.4984C53.6035 49.4604 52.2661 49.4225 50.3173 49.4225C49.7443 49.4225 48.7508 49.4604 47.9099 49.4604C47.2221 49.4604 46.5725 49.4984 46.1907 49.4984C46.1524 49.4225 46.0759 49.1571 46.0759 48.7398C46.0759 48.3984 46.1524 48.133 46.2289 48.0571C46.4198 48.0191 46.5725 47.9815 46.7637 47.9815C47.2221 47.9056 47.6042 47.8297 47.9864 47.7537C48.636 47.5642 48.8652 47.2229 48.9034 46.3887C49.0182 44.4925 49.1326 39.0694 48.8652 37.704C48.4068 35.5045 47.1459 34.4045 45.1207 34.4045C43.9362 34.4045 42.4458 34.9733 41.2232 35.8838C41.0322 36.0353 40.8792 36.4146 40.8792 36.7559V38.9935C40.8792 41.7238 40.8792 45.1372 40.9175 46.6162C40.9557 47.071 41.1084 47.6022 41.9875 47.7917C42.1784 47.8297 42.4841 47.9056 42.8662 47.9436L43.5541 48.0571C43.6306 48.2849 43.5923 49.195 43.4393 49.4984C43.0571 49.4984 42.5988 49.4604 42.0636 49.4604C41.2614 49.4225 40.2296 49.3845 39.0835 49.3845C37.7461 49.3845 36.7908 49.4225 36.0265 49.4604C35.4916 49.3845 35.0712 49.3845 34.6129 49.3845Z" fill="#55AD49"/>
<path fill-rule="evenodd" clip-rule="evenodd" d="M14.5132 58.4864L12.9466 57.9552C12.9466 57.9552 13.1379 50.0292 10.2721 49.4604C8.36161 47.2608 10.5778 -43.8326 17.4554 49.157C17.4554 49.157 15.0866 50.3326 14.6662 52.3426C14.2075 54.3147 14.5132 58.4864 14.5132 58.4864Z" fill="#55AD49"/>
<path fill-rule="evenodd" clip-rule="evenodd" d="M14.5132 58.4864L12.9466 57.9552C12.9466 57.9552 13.1379 50.0292 10.2721 49.4604C8.36161 47.2608 10.5778 -43.8326 17.4554 49.157C17.4554 49.157 15.0866 50.3326 14.6662 52.3426C14.2075 54.3147 14.5132 58.4864 14.5132 58.4864Z" fill="#55AD49"/>
<path fill-rule="evenodd" clip-rule="evenodd" d="M15.3547 50.8258C15.3547 50.8258 29.0721 41.8757 25.8625 23.2548C22.7675 9.71614 15.4691 5.27906 14.6669 3.57235C13.7881 2.35885 12.9473 0.235229 12.9473 0.235229L13.5207 37.8935C13.5207 37.9314 12.3359 49.4224 15.3547 50.8258Z" fill="#55AD49"/>
<path fill-rule="evenodd" clip-rule="evenodd" d="M15.3547 50.8258C15.3547 50.8258 29.0721 41.8757 25.8625 23.2548C22.7675 9.71614 15.4691 5.27906 14.6669 3.57235C13.7881 2.35885 12.9473 0.235229 12.9473 0.235229L13.5207 37.8935C13.5207 37.9314 12.3359 49.4224 15.3547 50.8258Z" fill="#55AD49"/>
<path fill-rule="evenodd" clip-rule="evenodd" d="M12.1453 51.3186C12.1453 51.3186 -0.731615 42.596 0.0327289 27.237C0.758462 11.8777 9.85265 4.33098 11.6101 2.96561C12.7567 1.75211 12.7949 1.29687 12.8714 0.083374C13.6737 1.79008 13.521 25.6063 13.6354 28.4126C13.9793 39.2209 13.0241 49.2709 12.1453 51.3186Z" fill="#55AD49"/>
<path fill-rule="evenodd" clip-rule="evenodd" d="M12.1453 51.3186C12.1453 51.3186 -0.731615 42.596 0.0327289 27.237C0.758462 11.8777 9.85265 4.33098 11.6101 2.96561C12.7567 1.75211 12.7949 1.29687 12.8714 0.083374C13.6737 1.79008 13.521 25.6063 13.6354 28.4126C13.9793 39.2209 13.0241 49.2709 12.1453 51.3186Z" fill="#77B36F"/>
</g>
<defs>
<clipPath id="clip0_153_344">
<rect width="212" height="60" fill="white"/>
</clipPath>
</defs>
</svg>
