<svg width="76" height="76" viewBox="0 0 76 76" fill="none" xmlns="http://www.w3.org/2000/svg">
<g clip-path="url(#clip0_301_90)">
<path d="M38 76C58.9868 76 76 58.9868 76 38C76 17.0132 58.9868 0 38 0C17.0132 0 0 17.0132 0 38C0 58.9868 17.0132 76 38 76Z" fill="#FF8C45"/>
<path d="M31.6539 33.8216L29.1973 28.9974L29.0637 28.7302C28.6852 28.0548 28.1137 27.513 27.416 27.1716C27.6461 27.0603 27.8836 26.9712 28.1359 26.9044C28.4477 26.8228 28.7742 26.7856 29.1008 26.7856H34.2516C35.6172 26.7931 36.8789 27.5278 37.5617 28.7153L37.6953 28.9825L44.3527 42.1786L46.8094 47.0028L46.943 47.27C47.3289 47.9528 47.9078 48.5021 48.6055 48.8435C48.0859 49.0958 47.5145 49.2294 46.9356 49.2368H41.7551C40.3895 49.2294 39.1277 48.4946 38.4523 47.3071L38.3113 47.0399L31.6539 33.8216Z" fill="white"/>
<path d="M55.982 27.0973C55.507 26.8895 54.9949 26.7855 54.4754 26.7781L54.468 26.7559C53.0875 26.7559 51.8184 27.5055 51.1504 28.7078L51.0762 28.8637L48.1223 34.727L44.8418 41.1914L45.1312 41.7629L47.5879 46.5871L47.7141 46.832C48.0109 47.3516 48.4562 47.7672 48.9906 48.0344L49.4434 48.257C49.7625 47.975 50.0371 47.641 50.2523 47.2625L50.3859 46.9953L57.7707 32.4262L57.9488 32.0773C58.7801 30.1699 57.9043 27.9359 55.982 27.0973Z" fill="white"/>
<path d="M28.4181 29.3907L28.2919 29.1458C27.9951 28.6336 27.5646 28.218 27.0302 27.9583L26.5849 27.7356C26.2658 28.0176 25.9911 28.3516 25.7833 28.7227L25.6423 28.9899L18.2501 43.5442L18.072 43.893C17.2185 45.8079 18.0794 48.0493 19.9868 48.9028C21.7829 49.7043 23.8982 48.9993 24.8482 47.27L24.9298 47.1141L27.906 41.2508L31.1716 34.8086L30.8673 34.2149L28.4181 29.3907Z" fill="white"/>
</g>
<defs>
<clipPath id="clip0_301_90">
<rect width="76" height="76" fill="white"/>
</clipPath>
</defs>
</svg>
