<svg width="134" height="80" viewBox="0 0 134 80" fill="none" xmlns="http://www.w3.org/2000/svg">
<g clip-path="url(#clip0_153_331)">
<path d="M31.8824 20.8573H56.9674V22.8444H34.1819V37.8003H55.6086V39.7875H34.1819V56.2076H57.2287V58.1947H31.8824V20.8573ZM59.2146 20.8573H61.8799L73.6908 37.2774L85.7629 20.8573L102.183 0L75.2063 39.0031L89.1076 58.1947H86.3378L73.6908 40.7288L60.9915 58.1947H58.2739L72.2797 39.0031L59.2146 20.8573ZM90.1005 22.8444V20.8573H118.687V22.8444H105.517V58.1947H103.218V22.8444H90.1005ZM0.5 20.8573H3.37433L43.0096 79.97L26.6302 58.1947L2.90398 23.6811L2.79946 58.1947H0.5L0.5 20.8573ZM118.455 55.6079C117.986 55.6079 117.633 55.2451 117.633 54.7763C117.633 54.3074 117.986 53.9446 118.455 53.9446C118.931 53.9446 119.277 54.3074 119.277 54.7763C119.277 55.2451 118.931 55.6079 118.455 55.6079ZM120.715 53.42H121.945C121.962 54.0842 122.449 54.5307 123.164 54.5307C123.964 54.5307 124.417 54.0507 124.417 53.1521V47.459H125.67V53.1576C125.67 54.7763 124.73 55.7084 123.176 55.7084C121.716 55.7084 120.715 54.8042 120.715 53.42ZM127.309 53.3474H128.55C128.657 54.1121 129.406 54.5977 130.485 54.5977C131.492 54.5977 132.23 54.0786 132.23 53.3642C132.23 52.7502 131.761 52.3818 130.692 52.1307L129.652 51.8795C128.192 51.539 127.527 50.8358 127.527 49.6525C127.527 48.2181 128.701 47.2636 130.463 47.2636C132.102 47.2636 133.299 48.2181 133.371 49.5744H132.152C132.035 48.832 131.386 48.3688 130.446 48.3688C129.456 48.3688 128.796 48.8432 128.796 49.5688C128.796 50.1437 129.221 50.473 130.273 50.7186L131.162 50.9362C132.818 51.3213 133.5 51.9911 133.5 53.2023C133.5 54.7428 132.303 55.7084 130.39 55.7084C128.601 55.7084 127.398 54.7874 127.309 53.3474Z" fill="#0A0909"/>
</g>
<defs>
<clipPath id="clip0_153_331">
<rect width="133" height="80" fill="white" transform="translate(0.5)"/>
</clipPath>
</defs>
</svg>
