<svg width="63" height="74" viewBox="0 0 63 74" fill="none" xmlns="http://www.w3.org/2000/svg">
<path d="M31.4992 72.9297C30.557 72.9297 29.6008 72.6731 28.7711 72.1883L20.0945 66.9842C18.8008 66.2428 19.4336 65.9861 19.8555 65.8436C21.5852 65.2305 21.9367 65.1022 23.7789 64.0328C23.9758 63.9188 24.2289 63.9615 24.4258 64.0899L31.0914 68.0963C31.3305 68.2389 31.668 68.2389 31.893 68.0963L57.8664 52.8975C58.1055 52.7549 58.2602 52.4697 58.2602 52.1846V21.7869C58.2602 21.4875 58.1055 21.2166 57.8523 21.0598L31.893 5.87521C31.6539 5.73263 31.3305 5.73263 31.0914 5.87521L5.14609 21.074C4.89297 21.2166 4.73828 21.5018 4.73828 21.8012V52.1846C4.73828 52.4697 4.89297 52.7549 5.14609 52.8832L12.2617 57.0465C16.1289 58.9998 18.4914 56.7043 18.4914 54.3803V24.3818C18.4914 23.9541 18.8289 23.6262 19.2508 23.6262H22.5414C22.9492 23.6262 23.3008 23.9541 23.3008 24.3818V54.3945C23.3008 59.6129 20.4883 62.607 15.6086 62.607C14.1039 62.607 12.9227 62.607 9.63203 60.9531L2.82578 56.9752C1.13828 55.9914 0.0976562 54.1522 0.0976562 52.1703V21.7869C0.0976562 19.8193 1.13828 17.9658 2.82578 16.982L28.7711 1.78322C30.4164 0.8422 32.5961 0.8422 34.2273 1.78322L60.2008 16.9963C61.8883 17.9801 62.9289 19.8193 62.9289 21.8012V52.1846C62.9289 54.1522 61.8883 55.9914 60.2008 56.9895L34.2273 72.1883C33.3977 72.6731 32.4555 72.9297 31.4992 72.9297ZM52.4664 42.974C52.4664 37.2852 48.6695 35.7738 40.6961 34.7045C32.6242 33.6209 31.8086 33.0649 31.8086 31.1543C31.8086 29.5717 32.4977 27.4615 38.4742 27.4615C43.8039 27.4615 45.7727 28.6307 46.5883 32.2807C46.6586 32.6229 46.968 32.8795 47.3195 32.8795H50.6945C50.9055 32.8795 51.1023 32.794 51.243 32.6371C51.3836 32.4803 51.4539 32.2664 51.4398 32.0526C50.9195 25.7649 46.7992 22.842 38.4742 22.842C31.0633 22.842 26.6477 26.0072 26.6477 31.3254C26.6477 37.0856 31.0492 38.6824 38.1508 39.3953C46.6586 40.2365 47.3195 41.5055 47.3195 43.2022C47.3195 46.1393 44.9852 47.394 39.5148 47.394C32.6383 47.394 31.1336 45.6402 30.6273 42.1756C30.5711 41.8049 30.2617 41.534 29.882 41.534H26.5211C26.0992 41.534 25.7758 41.8762 25.7758 42.2897C25.7758 46.7238 28.1523 52.0135 39.5289 52.0135C47.7414 51.9992 52.4664 48.7057 52.4664 42.974Z" fill="#86CF34"/>
</svg>
