<svg width="72" height="72" viewBox="0 0 72 72" fill="none" xmlns="http://www.w3.org/2000/svg">
<g clip-path="url(#clip0_153_342)">
<path d="M36 29.5785C32.4608 29.5785 29.5785 32.4608 29.5785 36C29.5785 39.5393 32.4608 42.4215 36 42.4215C39.5392 42.4215 42.4215 39.5393 42.4215 36C42.4215 32.4608 39.5392 29.5785 36 29.5785ZM18.0225 48.762L16.605 48.411C6.057 45.738 0 41.2155 0 35.9888C0 30.762 6.05925 26.2395 16.605 23.5665L18.0225 23.2155L18.4208 24.6218C19.4873 28.3005 20.8575 31.887 22.5113 35.3565L22.815 35.9888L22.5113 36.6323C20.8598 40.0883 19.4873 43.6748 18.4208 47.367L18.0225 48.762ZM15.9503 26.847C7.9335 29.097 3.01275 32.553 3.01275 35.9888C3.01275 39.4245 7.93575 42.867 15.9503 45.1305C16.9358 42.0008 18.1192 38.9543 19.5007 35.9888C18.117 33.0233 16.9335 29.9768 15.9503 26.847ZM53.9775 48.762L53.5792 47.3558C52.5127 43.677 51.1425 40.0905 49.4888 36.6323L49.185 35.9888L49.4888 35.3453C51.1403 31.8893 52.5127 28.3028 53.5792 24.6105L53.9775 23.2155L55.395 23.5665C65.943 26.2395 72 30.762 72 35.9888C72 41.2155 65.9408 45.738 55.395 48.411L53.9775 48.762ZM52.4993 35.9888C53.9415 39.105 55.1362 42.165 56.0497 45.1305C64.0777 42.8693 68.9872 39.4245 68.9872 35.9888C68.9872 32.553 64.0642 29.1105 56.0497 26.847C55.0642 29.9633 53.8808 33.0233 52.4993 35.9888ZM15.9255 26.8358L15.5273 25.4295C12.5618 14.976 13.464 7.47677 18 4.86227C22.4527 2.29502 29.5898 5.33027 37.0778 13.0185L38.097 14.0625L37.0778 15.1065C34.4183 17.8718 31.9927 20.8485 29.8125 24.012L29.403 24.5858L28.6988 24.6443C24.867 24.948 21.069 25.5578 17.343 26.4735L15.9255 26.8358ZM21.6203 6.95027C20.8125 6.95027 20.097 7.11452 19.4985 7.46552C16.5218 9.18902 15.9953 15.165 18.045 23.2268C21.2445 22.5113 24.4778 22.0073 27.7493 21.7148C29.6235 19.0418 31.6868 16.488 33.9008 14.085C29.2253 9.52652 24.795 6.95027 21.6203 6.95027ZM50.391 68.0265C50.3797 68.0265 50.3797 68.0265 50.391 68.0265C46.1137 68.0265 40.617 64.8158 34.9222 58.9568L33.903 57.9128L34.9222 56.8688C37.5817 54.1035 40.0073 51.1268 42.1875 47.9633L42.5858 47.3895L43.29 47.3198C47.1217 47.0273 50.9197 46.4175 54.657 45.4905L56.0745 45.1395L56.4728 46.5458C59.4383 56.9993 58.536 64.4873 54 67.0995C52.8975 67.7318 51.6555 68.0513 50.391 68.0265ZM38.097 57.8903C42.7725 62.4488 47.2027 65.0273 50.3775 65.0273H50.3888C51.1853 65.0273 51.9008 64.8518 52.4993 64.512C55.476 62.7885 56.016 56.8125 53.9528 48.7508C50.7533 49.4663 47.5065 49.9703 44.2485 50.2515C42.3743 52.9358 40.311 55.476 38.097 57.8903ZM56.0745 26.8358L54.657 26.4735C50.9197 25.56 47.1217 24.9503 43.29 24.6443L42.5858 24.5858L42.1875 24.012C40.0073 20.8485 37.5817 17.8718 34.9222 15.1065L33.903 14.0625L34.9222 13.0185C42.4102 5.33027 49.5473 2.29502 54 4.86227C58.536 7.47452 59.4383 14.976 56.4728 25.4295L56.0745 26.8358ZM44.2507 21.7148C47.673 22.032 50.931 22.536 53.955 23.2268C56.0182 15.165 55.4782 9.18677 52.5015 7.46552C49.536 5.75552 43.9583 8.37902 38.0993 14.0873C40.3133 16.5015 42.3652 19.044 44.2507 21.717V21.7148ZM21.6203 68.0265C20.3535 68.049 19.1002 67.734 18 67.1018C13.464 64.4895 12.5618 56.9993 15.5273 46.548L15.9255 45.1418L17.343 45.4928C20.8125 46.3725 24.633 46.98 28.6988 47.322L29.403 47.3918L29.8012 47.9655C31.9815 51.129 34.407 54.1058 37.0665 56.871L38.0858 57.915L37.0665 58.959C31.383 64.818 25.8863 68.0288 21.6203 68.0288V68.0265ZM18.0472 48.7508C15.984 56.8125 16.524 62.7908 19.5007 64.512C22.4662 66.1995 28.0327 63.5985 33.903 57.8903C31.689 55.476 29.6257 52.9335 27.7515 50.2493C24.4822 49.968 21.2467 49.4663 18.0472 48.7508ZM36 50.6363C33.5273 50.6363 30.996 50.5305 28.4535 50.319L27.7493 50.2605L27.3398 49.6755C25.911 47.6123 24.5498 45.4928 23.2965 43.3125C22.0298 41.1323 20.871 38.907 19.7932 36.6323L19.4895 35.9888L19.7932 35.3453C20.871 33.0728 22.032 30.8453 23.2965 28.665C24.5385 26.5208 25.8975 24.3765 27.3398 22.302L27.7493 21.717L28.4535 21.6585C33.48 21.2355 38.5312 21.2355 43.5465 21.6585L44.2507 21.717L44.6603 22.302C47.5313 26.4263 50.0625 30.798 52.2067 35.3453L52.5105 35.9888L52.2067 36.6323C50.0625 41.1795 47.5425 45.5513 44.6603 49.6755L44.2507 50.2605L43.5465 50.319C41.0153 50.5305 38.4727 50.6363 36 50.6363ZM29.4142 47.3783C33.8445 47.718 38.1555 47.718 42.597 47.3783C45.0697 43.758 47.2725 39.9488 49.1827 35.9865C47.2837 32.0265 45.081 28.2173 42.5858 24.5948C38.2028 24.255 33.7972 24.255 29.4142 24.5948C26.919 28.215 24.714 32.0243 22.8172 35.9865C24.7275 39.9465 26.9302 43.7558 29.4142 47.3783Z" fill="#65DBFB"/>
</g>
<defs>
<clipPath id="clip0_153_342">
<rect width="72" height="72" fill="white"/>
</clipPath>
</defs>
</svg>
