<svg width="84" height="68" viewBox="0 0 84 68" fill="none" xmlns="http://www.w3.org/2000/svg">
<path d="M39.616 50.0853C39.5767 50.1638 39.5373 50.2266 39.616 50.0853ZM72.3143 38.7005C69.6746 38.6997 67.0699 39.3041 64.7018 40.4671C63.9275 38.9099 63.1268 37.549 62.9956 36.5283C62.8381 35.3374 62.6675 34.6308 62.8512 33.2175C63.035 31.8042 63.8618 29.8021 63.8487 29.6581C63.8356 29.5142 63.665 28.7945 61.9718 28.7814C60.2787 28.7683 58.8218 29.1085 58.6525 29.5535C58.3535 30.3665 58.1209 31.2024 57.9569 32.0529C57.655 33.5839 54.572 39.0538 52.8263 41.9066C52.2488 40.7943 51.7632 39.8128 51.6582 39.0277C51.5007 37.8368 51.3301 37.1302 51.5138 35.7169C51.6976 34.3036 52.5245 32.3015 52.5113 32.1576C52.4982 32.0136 52.3276 31.2939 50.6358 31.2808C48.944 31.2677 47.4858 31.6079 47.3152 32.0529C47.1445 32.4978 46.9608 33.5447 46.6195 34.5523C46.2783 35.5599 42.1715 44.6677 41.0965 47.0363C40.5453 48.2402 40.0728 49.2085 39.7315 49.8628C39.679 49.9675 39.6397 50.0329 39.6134 50.0853C39.6528 50.0199 39.679 49.9544 39.679 49.9806C39.3903 50.5433 39.2197 50.8574 39.2197 50.8574V50.8704C38.9965 51.2892 38.7472 51.6687 38.629 51.6687C38.5503 51.6687 38.3797 50.5695 38.6684 49.0646C39.2853 45.8978 40.7422 40.9775 40.729 40.8074C40.7159 40.7158 41.0047 39.8652 39.7709 39.4072C38.5765 38.9753 38.1434 39.695 38.0384 39.695C37.9334 39.695 37.8547 39.9568 37.8547 39.9568C37.8547 39.9568 39.1803 34.4083 35.3097 34.4083C32.8947 34.4083 29.5347 37.0517 27.8836 39.4464C26.8467 40.0091 24.6023 41.2261 22.2398 42.5216C21.3342 43.0189 20.4023 43.5292 19.523 44.0134C19.4573 43.948 19.4048 43.8825 19.3392 43.8171C14.6418 38.8183 5.96878 35.2851 6.33628 28.572C6.46753 26.1249 7.32066 19.6997 23.0142 11.9005C35.8767 5.51459 46.1602 7.2681 47.9307 11.1677C50.477 16.7292 42.4327 27.0802 29.0753 28.572C23.9842 29.1347 21.308 27.1718 20.6386 26.439C19.943 25.6669 19.838 25.6277 19.5755 25.7716C19.1423 26.0072 19.418 26.6876 19.5755 27.0933C19.9692 28.1271 21.6098 29.9591 24.4042 30.8751C26.8585 31.6734 32.8278 32.1183 40.0452 29.331C48.1538 26.2165 54.4657 17.5406 52.615 10.2779C50.7303 2.8974 38.4558 0.476501 26.8493 4.58548C19.9338 7.03255 12.4552 10.8798 7.07522 15.8917C0.684657 21.8589 -0.33778 27.054 0.0822198 29.2263C1.57716 36.9339 12.232 41.9589 16.4963 45.6753C16.2863 45.7931 16.0895 45.8978 15.9057 46.0025C13.7677 47.0624 5.64459 51.3023 3.61153 55.7777C1.31466 60.855 3.99216 64.4929 5.74959 64.9902C11.2345 66.5081 16.8507 63.7732 19.8682 59.2847C22.8856 54.7962 22.5194 48.9337 21.1282 46.2642C21.115 46.2249 21.0888 46.1988 21.0757 46.1595C21.6269 45.8324 22.1913 45.5052 22.7557 45.1781C23.8437 44.5368 24.9068 43.948 25.8387 43.4376C25.3137 44.8509 24.9331 46.5521 24.7362 49.0122C24.5 51.8911 25.6943 55.6206 27.2431 57.0863C27.9256 57.7275 28.7512 57.7406 29.263 57.7406C31.0743 57.7406 31.888 56.2488 32.7923 54.4691C33.908 52.2968 34.8923 49.7712 34.8923 49.7712C34.8923 49.7712 33.6586 56.6021 37.0317 56.6021C38.2642 56.6021 39.4979 55.0187 40.0505 54.2074V54.2204C40.0505 54.2204 40.0767 54.1681 40.1423 54.0634C40.2736 53.8671 40.3392 53.7493 40.3392 53.7493V53.7101C40.838 52.8595 41.9273 50.9097 43.5667 47.6906C45.6929 43.5292 47.726 38.3341 47.726 38.3341C47.9224 39.4761 48.1943 40.604 48.5397 41.7103C48.9072 42.9535 49.6816 44.3144 50.2985 45.6361C49.7997 46.3165 49.4978 46.7091 49.4978 46.7091C49.4988 46.7192 49.5035 46.7285 49.511 46.7353C49.1172 47.2587 48.671 47.8214 48.2116 48.371C46.5329 50.3601 44.5366 52.637 44.2741 53.2913C43.9591 54.0634 44.0378 54.6392 44.6416 55.0841C45.0878 55.4243 45.8753 55.4767 46.7009 55.4113C48.2103 55.3066 49.2734 54.9402 49.7853 54.7046C50.7289 54.3672 51.6208 53.9004 52.4352 53.3175C54.0758 52.1136 55.0733 50.3863 54.9815 48.1093C54.929 46.8531 54.5221 45.5968 54.0233 44.4191C54.1677 44.2097 54.3252 43.9872 54.4696 43.7648C57.067 39.9829 59.0752 35.8321 59.0752 35.8321C59.2716 36.9741 59.5435 38.1019 59.8889 39.2083C60.2039 40.2682 60.8195 41.4329 61.3838 42.5713C58.9439 44.5473 57.4345 46.8374 56.9095 48.3422C55.9383 51.1295 56.6995 52.3858 58.1302 52.6737C58.7733 52.8045 59.692 52.5036 60.3745 52.2157C61.3881 51.8791 62.3438 51.3892 63.2082 50.7631C64.8488 49.5592 66.4357 47.8711 66.3307 45.5811C66.2913 44.5473 66.0025 43.5135 65.6219 42.519C67.6825 41.6553 70.3587 41.1842 73.7712 41.5768C81.0792 42.4274 82.5098 46.9813 82.2342 48.8788C81.9586 50.7762 80.423 51.8362 79.9111 52.1502C79.3992 52.4643 79.2417 52.5821 79.2811 52.8176C79.3467 53.1579 79.583 53.1448 80.0161 53.0663C80.6198 52.9616 83.8473 51.5221 83.9917 48.002C84.2017 43.5528 79.9111 38.6586 72.3104 38.6979L72.3143 38.7005ZM15.9845 57.6359C13.5708 60.2661 10.1845 61.2607 8.72897 60.4232C7.16709 59.5176 7.78397 55.6468 10.762 52.8438C12.5733 51.1426 14.9082 49.5723 16.457 48.604C16.8113 48.3946 17.3232 48.0805 17.9532 47.701C18.0582 47.6356 18.1107 47.6094 18.1107 47.6094C18.2288 47.5309 18.3601 47.4655 18.4913 47.387C19.5794 51.3651 18.5307 54.8721 15.9845 57.6333V57.6359ZM33.6192 45.6753C32.7792 47.7298 31.0087 52.9642 29.9324 52.6894C29.0137 52.4538 28.4493 48.4626 29.7487 44.5368C30.4049 42.5609 31.7962 40.2054 32.623 39.2894C33.9473 37.8107 35.4042 37.3396 35.7455 37.9284C36.2048 38.7005 34.1442 44.3929 33.6192 45.6753ZM48.188 52.6109C47.8336 52.7941 47.5055 52.9118 47.348 52.8202C47.2298 52.7548 47.4923 52.5062 47.4923 52.5062C47.4923 52.5062 49.3167 50.5564 50.0386 49.6665C50.4586 49.1431 50.9442 48.5281 51.4679 47.8476C51.4679 47.913 51.481 47.9785 51.481 48.057C51.464 50.3993 49.2078 51.9827 48.184 52.6109H48.188ZM59.4203 50.0591C59.1578 49.8759 59.1972 49.2609 60.0766 47.3503C60.4178 46.6044 61.204 45.3482 62.5703 44.1443C62.725 44.6 62.8091 45.0766 62.8197 45.5576C62.8066 48.5019 60.6935 49.6011 59.4217 50.0591H59.4203Z" fill="#D06C9D"/>
</svg>
