<svg width="115" height="63" viewBox="0 0 115 63" fill="none" xmlns="http://www.w3.org/2000/svg">
<path fill-rule="evenodd" clip-rule="evenodd" d="M0.666016 5.33329C0.666016 2.47985 2.97924 0.166626 5.83268 0.166626H26.4993C29.3528 0.166626 31.666 2.47985 31.666 5.33329C31.666 8.18674 29.3528 10.5 26.4993 10.5H10.9993V20.8333H26.4993C29.3528 20.8333 31.666 23.1465 31.666 26V46.6666C31.666 49.5201 29.3528 51.8333 26.4993 51.8333H5.83268C2.97924 51.8333 0.666016 49.5201 0.666016 46.6666C0.666016 43.8132 2.97924 41.5 5.83268 41.5H21.3327V31.1666H5.83268C2.97924 31.1666 0.666016 28.8534 0.666016 26V5.33329ZM41.9993 5.33329C41.9993 2.47985 44.3126 0.166626 47.166 0.166626H67.8327C70.6861 0.166626 72.9993 2.47985 72.9993 5.33329V51.8333H78.166C81.0195 51.8333 83.3327 54.1469 83.3327 57C83.3327 59.853 81.0195 62.1666 78.166 62.1666H67.8327C64.9792 62.1666 62.666 59.853 62.666 57V51.8333H47.166C44.3126 51.8333 41.9993 49.5201 41.9993 46.6666V5.33329ZM62.666 41.5H52.3327V10.5H62.666V41.5ZM88.4993 0.166626C91.3524 0.166626 93.666 2.47985 93.666 5.33329V41.5H109.166C112.019 41.5 114.333 43.8132 114.333 46.6666C114.333 49.5201 112.019 51.8333 109.166 51.8333H88.4993C85.6463 51.8333 83.3327 49.5201 83.3327 46.6666V5.33329C83.3327 2.47985 85.6463 0.166626 88.4993 0.166626Z" fill="#DC793A"/>
</svg>
