<svg width="98" height="100" viewBox="0 0 98 100" fill="none" xmlns="http://www.w3.org/2000/svg">
<path d="M48.9993 25.25C38.0968 25.25 31.3185 30.7362 28.5827 41.75C32.666 36.2637 37.4435 34.2012 42.8743 35.5625C45.9777 36.3462 48.2235 38.615 50.6735 41.1313C54.6752 45.2563 59.2077 50 69.416 50C80.3185 50 87.0968 44.5138 89.8327 33.5C85.7493 38.9863 80.9718 41.0488 75.541 39.6875C72.4377 38.9038 70.2327 36.635 67.7418 34.1187C63.7402 29.9937 59.2077 25.25 48.9993 25.25ZM28.5827 50C17.6802 50 10.9018 55.4862 8.16602 66.5C12.2493 61.0137 17.0268 58.9512 22.4577 60.3125C25.561 61.0962 27.766 63.365 30.2568 65.8813C34.2585 70.0063 38.791 74.75 48.9993 74.75C59.9018 74.75 66.6802 69.2638 69.416 58.25C65.3327 63.7363 60.5552 65.7988 55.1243 64.4375C52.021 63.6538 49.816 61.385 47.3252 58.8687C43.3235 54.7437 38.791 50 28.5827 50Z" fill="#1BC1CD"/>
</svg>
