<svg width="73" height="72" viewBox="0 0 73 72" fill="none" xmlns="http://www.w3.org/2000/svg">
<g clip-path="url(#clip0_153_386)">
<path d="M0.5 36V72H72.5V0H0.5V36ZM58.523 33.132C60.353 33.588 61.745 34.401 63.026 35.727C63.689 36.435 64.673 37.725 64.751 38.037C64.775 38.127 61.643 40.227 59.747 41.406C59.678 41.451 59.402 41.154 59.096 40.698C58.166 39.348 57.197 38.766 55.712 38.664C53.528 38.514 52.124 39.657 52.136 41.565C52.1161 42.0342 52.2217 42.5002 52.442 42.915C52.922 43.908 53.816 44.505 56.612 45.714C61.769 47.934 63.974 49.395 65.345 51.474C66.875 53.793 67.22 57.498 66.179 60.252C65.039 63.246 62.204 65.28 58.214 65.952C56.981 66.171 54.056 66.138 52.73 65.898C49.838 65.382 47.096 63.954 45.404 62.079C44.741 61.35 43.448 59.439 43.529 59.304C43.7369 59.145 43.9577 59.0035 44.189 58.881C44.513 58.698 45.722 57.999 46.865 57.336L48.935 56.136L49.37 56.778C49.976 57.702 51.299 58.971 52.1 59.394C54.398 60.606 57.551 60.435 59.105 59.04C59.4175 58.7768 59.6649 58.4448 59.8278 58.0701C59.9907 57.6954 60.0647 57.2881 60.044 56.88C60.044 56.046 59.939 55.68 59.504 55.05C58.946 54.252 57.803 53.58 54.557 52.17C50.843 50.571 49.244 49.578 47.78 48C46.8663 46.9586 46.1915 45.7299 45.803 44.4C45.53 43.383 45.461 40.833 45.677 39.807C46.442 36.216 49.151 33.717 53.06 32.973C54.329 32.733 57.278 32.823 58.523 33.132ZM41.621 36.138L41.645 39.087H32.27V65.715H25.64V39.087H16.274V36.195C16.274 34.593 16.307 33.255 16.352 33.225C16.388 33.177 22.091 33.153 29.003 33.165L41.588 33.201L41.621 36.138Z" fill="#0C7ECE"/>
</g>
<defs>
<clipPath id="clip0_153_386">
<rect width="72" height="72" fill="white" transform="translate(0.5)"/>
</clipPath>
</defs>
</svg>
